<svg id="_Layer_" data-name="&lt;Layer&gt;" xmlns="http://www.w3.org/2000/svg" viewBox="0 0 2215.85 2308.45"><defs><style>.cls-1,.cls-8{opacity:0.4;}.cls-2{fill:#288b54;}.cls-3{fill:#84b884;}.cls-24,.cls-4{opacity:0.5;}.cls-5{fill:#8cb685;}.cls-6{fill:#fdbaa0;}.cls-12,.cls-7,.cls-8{fill:#f18e7b;}.cls-9{fill:#e6eefb;}.cls-10{fill:#383463;}.cls-11{fill:#ffc6b2;}.cls-12,.cls-17,.cls-22{opacity:0.2;}.cls-13{fill:#ffca87;}.cls-14{fill:#f64d63;}.cls-15{fill:#ff6576;}.cls-16{fill:#fabba5;}.cls-17,.cls-24{fill:#ffa669;}.cls-18{fill:#6e2a49;}.cls-19{fill:#ed938b;}.cls-20{fill:#752d4b;}.cls-21{fill:#ef9f8a;}.cls-23{fill:#7b3255;}.cls-25{fill:#ff676d;}.cls-26{fill:#ff8091;}.cls-27,.cls-31,.cls-32{fill:#fff;}.cls-28{fill:#f13a56;}.cls-29{fill:#ffb665;}.cls-30{fill:#f3465e;}.cls-31{opacity:0.3;}.cls-32{opacity:0.1;}.cls-33{fill:#75acf2;}</style></defs><g class="cls-1"><path class="cls-2" d="M903.94,2065.76c-7.58-17.87-34.1-63.26-80.19-107.14a454.57,454.57,0,0,0-116.47-80.09c-54.32-26.17-115.49-43-181.82-49.94l.11-1.08c66.48,7,127.78,23.82,182.22,50a455.61,455.61,0,0,1,116.75,80.3c46.21,44,72.8,89.54,80.41,107.47Z"/><path class="cls-3" d="M485.53,1797.25c-23.82-3.63-30.26,1.67-32.42,11.48s1.72,19.92,17.31,24.74c37.72,11.66,84.78,4.63,86.23-2C557.7,1826.72,518.68,1802.31,485.53,1797.25Z"/><path class="cls-3" d="M534.4,1864.11c-20.47,12.71-21.92,20.93-17.19,29.78s14.25,14,29.23,7.56c36.25-15.64,67.46-51.56,64.28-57.51C608.41,1839.62,562.89,1846.41,534.4,1864.11Z"/><path class="cls-2" d="M557.81,1831.78c-35.18-.4-67.28-19.29-102.6-18.44-.35,0-.35.56,0,.55,35.32-.85,67.42,18,102.6,18.44a.28.28,0,0,0,0-.55Z"/><path class="cls-2" d="M504.27,1821.66a32.12,32.12,0,0,0-6.67-22.07c-.22-.28-.61.11-.39.38a31.59,31.59,0,0,1,6.51,21.69c0,.35.52.35.55,0Z"/><path class="cls-2" d="M487.68,1817.27c-5.19,6.63-12.65,11.46-20.42,14.55-.32.13-.18.66.15.53,7.85-3.12,15.4-8,20.66-14.69.21-.28-.17-.66-.39-.39Z"/><path class="cls-2" d="M491.32,1798.87a52.63,52.63,0,0,1,7.54,21.5c0,.34.59.35.55,0a53.47,53.47,0,0,0-7.62-21.78.27.27,0,0,0-.47.28Z"/><path class="cls-3" d="M612.15,1763.48c-6.73-23.14-14.25-26.75-24-24.58s-17.35,9.94-15.16,26.12c5.3,39.12,31.47,78.85,38.06,77.39C615.79,1841.35,621.51,1795.68,612.15,1763.48Z"/><path class="cls-2" d="M611.24,1843.56c-14.46-32.08-10.81-69.16-26.46-100.84-.16-.31-.63,0-.47.28,15.64,31.67,12,68.75,26.45,100.84.15.32.62,0,.48-.28Z"/><path class="cls-2" d="M597.85,1790.77a31.91,31.91,0,0,0,17.24-15.32c.15-.31-.32-.59-.47-.27a31.4,31.4,0,0,1-16.92,15.06c-.33.12-.18.64.15.53Z"/><path class="cls-2" d="M594.87,1773.85c-8.2-1.95-15.69-6.66-21.78-12.41-.26-.24-.64.14-.39.38,6.16,5.82,13.72,10.58,22,12.56.34.08.49-.45.14-.53Z"/><path class="cls-2" d="M613.11,1769.43a52,52,0,0,1-16.34,15.88c-.3.19,0,.66.27.47a52.54,52.54,0,0,0,16.54-16.07c.2-.3-.28-.57-.47-.28Z"/><path class="cls-3" d="M708.17,1783.83c-7.86-27-16.65-31.24-28.09-28.7s-20.26,11.61-17.71,30.5c6.19,45.69,36.76,92.09,44.46,90.39C712.42,1874.78,719.1,1821.44,708.17,1783.83Z"/><path class="cls-2" d="M707.1,1877.36c-16.92-37.45-12.58-80.8-30.9-117.77-.18-.37-.73,0-.55.33,18.32,37,14,80.31,30.9,117.76.17.37.72,0,.55-.32Z"/><path class="cls-2" d="M691.47,1815.7c8.3-3,16.3-9.91,20.13-17.88.18-.37-.37-.69-.55-.32a36.66,36.66,0,0,1-19.75,17.58c-.39.14-.22.76.17.62Z"/><path class="cls-2" d="M688,1795.94c-9.55-2.23-18.37-7.79-25.44-14.49-.3-.29-.75.16-.45.45,7.16,6.79,16,12.39,25.72,14.66.4.09.57-.52.17-.62Z"/><path class="cls-2" d="M709.29,1790.78a60.59,60.59,0,0,1-19.09,18.55c-.35.22,0,.77.32.55a61.42,61.42,0,0,0,19.32-18.78c.23-.34-.32-.66-.55-.32Z"/><path class="cls-3" d="M618.48,1909.09c-22.65,16.69-23.57,26.4-17.25,36.26s17.89,15,34.74,6.1c40.75-21.57,73.75-66.27,69.5-72.91C702.38,1873.72,650,1885.85,618.48,1909.09Z"/><path class="cls-2" d="M706.66,1877.8c-29.29,28.82-71.52,39.66-99.88,69.63-.28.3.17.75.45.45,28.36-30,70.59-40.81,99.88-69.63a.32.32,0,0,0-.45-.45Z"/><path class="cls-2" d="M654.12,1913.73a37.38,37.38,0,0,0-23.75-12.7c-.41,0-.41.6,0,.64a36.89,36.89,0,0,1,23.3,12.51c.27.31.72-.14.45-.45Z"/><path class="cls-2" d="M636.81,1923.82c1.2,9.75-.95,19.92-4.81,28.88-.16.37.39.7.55.32,3.9-9,6.11-19.34,4.9-29.2-.05-.4-.69-.41-.64,0Z"/><path class="cls-2" d="M624.59,1905.63a61.33,61.33,0,0,1,24,11.5c.32.25.78-.2.45-.45A61.92,61.92,0,0,0,624.76,1905c-.4-.09-.57.52-.17.62Z"/><path class="cls-3" d="M676,1957.55c-25.49,18.78-26.53,29.7-19.41,40.8s20.12,16.89,39.08,6.86c45.85-24.27,83-74.57,78.2-82C770.41,1917.75,711.49,1931.4,676,1957.55Z"/><path class="cls-2" d="M778.91,1917.86c-34.17,33.7-83,47.8-116.06,82.82-.32.34.19.85.51.51,33.07-35,81.88-49.12,116-82.82a.36.36,0,0,0-.5-.51Z"/><path class="cls-2" d="M716.12,1962.77c-6.36-7.63-16.83-13.34-26.73-14.29-.46,0-.46.68,0,.72,9.71.93,20,6.61,26.22,14.08.29.35.8-.16.51-.51Z"/><path class="cls-2" d="M696.64,1974.12c1.37,10.94-1.07,22.44-5.42,32.49-.18.42.44.79.62.37,4.4-10.16,6.91-21.79,5.52-32.86-.06-.45-.78-.46-.72,0Z"/><path class="cls-2" d="M682.89,1953.65a68.67,68.67,0,0,1,27,12.95c.36.28.87-.22.51-.51A69.45,69.45,0,0,0,683.08,1953c-.45-.1-.64.59-.19.69Z"/><path class="cls-3" d="M742.93,1995.25c-29.87,10.49-34.07,20.62-30.52,33.32s14.29,22,35.35,18c51-9.76,101.21-46.95,98.82-55.49C844.85,1984.9,784.52,1980.66,742.93,1995.25Z"/><path class="cls-2" d="M852.93,1987.5c-42.56,22.18-93.35,21.37-135.25,45.14a.36.36,0,0,0,.36.62c41.9-23.77,92.69-23,135.25-45.14.41-.22,0-.83-.36-.62Z"/><path class="cls-2" d="M779.77,2012.08c-3.85-9.19-12.17-17.75-21.4-21.57-.43-.18-.61.52-.19.69,9,3.7,17.16,12.16,20.9,21.07.17.42.87.23.69-.19Z"/><path class="cls-2" d="M757.78,2017.16c-1.9,10.86-7.61,21.13-14.71,29.47-.3.35.21.86.51.51,7.18-8.43,13-18.79,14.9-29.79.08-.46-.62-.65-.7-.19Z"/><path class="cls-2" d="M750.66,1993.55a68.4,68.4,0,0,1,22,20.3c.27.38.89,0,.62-.36A69.41,69.41,0,0,0,751,1992.93a.36.36,0,0,0-.36.62Z"/><path class="cls-3" d="M767.93,1808.27c5.3-31.22,14.58-37.06,27.7-35.71s24.14,10.37,23.72,31.81c-1,51.87-29.22,107.67-38,106.76C774.9,1910.47,760.55,1851.72,767.93,1808.27Z"/><path class="cls-2" d="M779.51,1918.21c14.67-45.69,5.34-95.61,21.7-140.91.16-.44-.54-.63-.69-.2-16.36,45.31-7,95.23-21.71,140.92-.14.44.56.63.7.19Z"/><path class="cls-2" d="M790.86,1841c-9.48-2.2-19.16-8.83-24.37-17.09-.24-.39-.87,0-.62.37,5.31,8.41,15.13,15.17,24.79,17.42.45.1.65-.59.2-.7Z"/><path class="cls-2" d="M792.27,1819.88c10.51-3.75,19.78-11.18,26.88-19.68.29-.35-.21-.86-.51-.51-7,8.41-16.16,15.79-26.56,19.5-.43.16-.24.85.19.69Z"/><path class="cls-2" d="M767,1816.65A69.14,69.14,0,0,0,791,1835.09c.42.2.78-.42.36-.62a68.84,68.84,0,0,1-23.79-18.33c-.3-.35-.8.16-.51.51Z"/><path class="cls-3" d="M891.09,1864.92c19.82-31.21,32.46-33.31,46-25.91s21.3,22.08,11.15,45c-24.57,55.38-80.16,102.7-89.24,97.73C852.37,1978.1,863.5,1908.36,891.09,1864.92Z"/><path class="cls-2" d="M853.79,1988.56c36.52-42.51,49-100.57,87.1-141.9.37-.39-.22-1-.59-.59-38.16,41.33-50.58,99.39-87.1,141.89-.35.41.24,1,.59.6Z"/><path class="cls-2" d="M900.9,1910.53c-9.19-6.6-16.64-18.24-18.46-29.44-.09-.53-.9-.31-.81.22,1.85,11.4,9.5,23.23,18.85,29.94.44.32.86-.41.42-.72Z"/><path class="cls-2" d="M912.1,1888.44c13,.75,26.37-3.12,37.83-9.07.48-.25.06-1-.42-.72-11.32,5.88-24.58,9.69-37.41,8.95-.54,0-.54.81,0,.84Z"/><path class="cls-2" d="M886.31,1873.49a80.74,80.74,0,0,0,17.49,30.77c.37.4,1-.19.6-.59a79.7,79.7,0,0,1-17.28-30.4c-.16-.52-1-.3-.81.22Z"/></g><path class="cls-2" d="M871.43,1992.36c0-.41-.91-41.57-24.8-94.47a332.09,332.09,0,0,0-56.76-86.15c-29.54-32.61-66.3-60.77-109.24-83.7l.37-.7c43,23,79.87,51.2,109.48,83.89a332.36,332.36,0,0,1,56.89,86.37c24,53,24.85,94.34,24.86,94.75Z"/><path class="cls-3" d="M662.24,1695.88c-15.11-9-20.92-7.18-25.07-1.14s-4.31,13.94,4.91,21.48c22.3,18.25,56,26.42,58.84,22.36C703,1735.63,683.27,1708.41,662.24,1695.88Z"/><path class="cls-3" d="M676.92,1754.51c-17.33,3-20.56,8.14-19.8,15.42s5.78,13.4,17.69,13.15c28.81-.63,59.78-16.34,59.26-21.24C733.7,1758.28,701.05,1750.37,676.92,1754.51Z"/><path class="cls-2" d="M701.61,1739.08c-23.66-10-40.21-31.48-64.31-40.65-.24-.09-.35.3-.11.39,24.09,9.16,40.65,30.67,64.32,40.64.23.1.34-.28.1-.38Z"/><path class="cls-2" d="M668.19,1717.56a23.5,23.5,0,0,0,1.58-16.76.2.2,0,0,0-.39.11,23,23,0,0,1-1.53,16.45c-.12.23.23.43.34.2Z"/><path class="cls-2" d="M658.17,1710a35.87,35.87,0,0,1-17.8,4.22.2.2,0,0,0,0,.4,36.31,36.31,0,0,0,18-4.27.2.2,0,0,0-.2-.35Z"/><path class="cls-2" d="M665.72,1698.59a38.82,38.82,0,0,1-.82,16.61.2.2,0,0,0,.38.11,39.32,39.32,0,0,0,.82-16.82c0-.26-.42-.15-.38.1Z"/><path class="cls-3" d="M757.14,1707.82c1.8-17.49-2.3-22-9.52-23.22s-14.46,2-17.42,13.49c-7.16,27.91-.37,62,4.48,62.79C738.21,1761.48,754.62,1732.17,757.14,1707.82Z"/><path class="cls-2" d="M734.53,1761.75c-.87-25.66,11.58-49.73,9.8-75.45,0-.26-.42-.26-.4,0,1.79,25.71-10.67,49.78-9.8,75.45,0,.26.41.26.4,0Z"/><path class="cls-2" d="M740,1722.35a23.38,23.38,0,0,0,15.85-5.64c.2-.17-.09-.45-.28-.28A23.06,23.06,0,0,1,740,1722c-.26,0-.26.39,0,.4Z"/><path class="cls-2" d="M742.59,1710.08a35.5,35.5,0,0,1-11.32-14.39c-.1-.23-.45,0-.34.2a35.86,35.86,0,0,0,11.45,14.53c.21.15.41-.2.21-.34Z"/><path class="cls-2" d="M756.17,1712.1a38.77,38.77,0,0,1-15.46,6.27c-.25,0-.14.42.11.38a38.78,38.78,0,0,0,15.55-6.31c.21-.14,0-.49-.2-.34Z"/><path class="cls-3" d="M721.43,1808c-19.9,5.07-23.19,11.38-21.63,19.79s8,15.06,21.82,13.66c33.48-3.39,68.07-24.56,67-30.21C787.87,1807.15,749.13,1801,721.43,1808Z"/><path class="cls-2" d="M789.67,1811.07c-27.77,11.36-59.24,7.29-86.71,19.68-.27.12,0,.52.23.4,27.43-12.37,58.86-8.29,86.61-19.63.27-.11.15-.56-.13-.45Z"/><path class="cls-2" d="M744.26,1821a27.2,27.2,0,0,0-12.55-15.12c-.27-.14-.5.26-.24.4a26.73,26.73,0,0,1,12.34,14.84c.1.29.55.16.45-.12Z"/><path class="cls-2" d="M729.77,1823c-1.89,6.93-6.13,13.19-11.2,18.2a.23.23,0,0,0,.33.33c5.13-5.07,9.41-11.39,11.32-18.4a.23.23,0,0,0-.45-.13Z"/><path class="cls-2" d="M726.53,1807.38a44.2,44.2,0,0,1,13.06,14.38.23.23,0,0,0,.4-.24A44.89,44.89,0,0,0,726.77,1807c-.25-.18-.48.23-.24.4Z"/><path class="cls-3" d="M823.63,1752c4.28-20.08.09-25.83-8.14-28.16s-17,.47-21.92,13.5c-11.81,31.51-8.18,71.9-2.64,73.47C795,1812,817.67,1780,823.63,1752Z"/><path class="cls-2" d="M790.64,1811.84c2.13-29.94,19.73-56.34,20.81-86.45,0-.3-.45-.27-.46,0-1.08,30.07-18.68,56.43-20.81,86.33,0,.29.43.39.46.09Z"/><path class="cls-2" d="M801.89,1766.74A27.21,27.21,0,0,0,821,1762.2c.25-.18,0-.57-.25-.39a26.88,26.88,0,0,1-18.78,4.48c-.29,0-.39.41-.09.45Z"/><path class="cls-2" d="M806.47,1752.83c-5.38-4.76-9.1-11.34-11.35-18.11a.23.23,0,0,0-.44.15c2.27,6.85,6,13.49,11.48,18.31.22.2.53-.15.31-.35Z"/><path class="cls-2" d="M821.94,1756.88a44.31,44.31,0,0,1-18.68,5.33.23.23,0,0,0,0,.46,44.77,44.77,0,0,0,18.9-5.4c.27-.14,0-.53-.26-.39Z"/><path class="cls-3" d="M747,1856.59c-22.39,5.7-26.09,12.8-24.33,22.26s9,17,24.55,15.37c37.67-3.82,76.59-27.63,75.4-34C821.78,1855.61,778.19,1848.65,747,1856.59Z"/><path class="cls-2" d="M827.53,1858c-32.42,13.33-69.25,9.63-101.29,24.16-.3.14,0,.59.27.45,32-14.5,68.79-10.79,101.16-24.1.31-.13.17-.63-.14-.51Z"/><path class="cls-2" d="M772.72,1871.17a30.71,30.71,0,0,0-14.13-17c-.3-.15-.56.3-.26.46a30.11,30.11,0,0,1,13.88,16.7c.1.32.61.18.51-.14Z"/><path class="cls-2" d="M756.41,1873.49c-2.12,7.8-6.9,14.84-12.61,20.48a.26.26,0,0,0,.37.37c5.78-5.7,10.6-12.82,12.74-20.71a.26.26,0,0,0-.5-.14Z"/><path class="cls-2" d="M752.77,1855.87a49.82,49.82,0,0,1,14.69,16.18.26.26,0,0,0,.45-.27A50.48,50.48,0,0,0,753,1855.41c-.27-.19-.54.26-.26.46Z"/><path class="cls-3" d="M781.92,1900.47c-23.08-1.12-28.7,4.58-29.79,14.14s3.6,18.84,19,21.9c37.14,7.39,81.33-4,82.07-10.38C853.68,1921.46,814.05,1902,781.92,1900.47Z"/><path class="cls-2" d="M858.46,1925.43c-34.88,3.22-69-11.09-103.85-6.62-.33,0-.33.57,0,.52,34.87-4.47,69,9.84,103.85,6.62.34,0,.34-.55,0-.52Z"/><path class="cls-2" d="M802.21,1921.93a30.86,30.86,0,0,0-8.53-20.41c-.23-.24-.61.13-.37.37a30.22,30.22,0,0,1,8.37,20,.27.27,0,0,0,.53,0Z"/><path class="cls-2" d="M785.93,1919.38c-4.3,6.84-11,12.18-18.06,15.88-.3.16,0,.61.26.45,7.18-3.74,13.91-9.16,18.25-16.06.18-.29-.27-.55-.45-.27Z"/><path class="cls-2" d="M787.59,1901.41a50.72,50.72,0,0,1,9.34,19.84c.07.32.58.19.5-.14a50.82,50.82,0,0,0-9.39-20c-.2-.27-.66,0-.45.26Z"/><path class="cls-3" d="M850.18,1780.89c12.15-19.65,20-21.05,28.53-16.53s13.48,13.64,7.3,28c-14.94,34.79-49.33,64.78-55,61.74C826.82,1851.91,833.25,1808.25,850.18,1780.89Z"/><path class="cls-2" d="M827.78,1858.44c22.44-26.9,29.92-63.15,53.38-89.33.23-.25-.14-.62-.37-.37-23.46,26.18-30.94,62.44-53.38,89.33-.21.26.16.63.37.37Z"/><path class="cls-2" d="M856.65,1809.33a30.27,30.27,0,0,1-11.76-18.26c-.06-.34-.57-.2-.51.13a30.66,30.66,0,0,0,12,18.58c.27.19.53-.26.26-.45Z"/><path class="cls-2" d="M863.48,1795.43c8.19.3,16.37-2.15,23.57-5.94.3-.16,0-.61-.26-.45-7.11,3.74-15.23,6.16-23.31,5.87a.26.26,0,0,0,0,.52Z"/><path class="cls-2" d="M847.25,1786.28a51,51,0,0,0,11.16,19.1c.23.25.6-.12.37-.37a50.13,50.13,0,0,1-11-18.87c-.1-.32-.61-.18-.51.14Z"/><path class="cls-3" d="M917.9,1853c22-15.65,31.09-13.6,38.2-4.89s8.34,20.78-4.81,33.47c-31.83,30.7-82.41,47.43-87.19,41.58C860.63,1918.92,887.31,1874.82,917.9,1853Z"/><path class="cls-2" d="M858.75,1926.37c36.34-18.78,60.76-54.5,97.87-72,.36-.17,0-.7-.3-.53-37.12,17.54-61.54,53.26-97.87,72-.35.18,0,.71.3.53Z"/><path class="cls-2" d="M912,1886.59a35.27,35.27,0,0,1-4.43-25c.08-.39-.51-.55-.59-.16a35.85,35.85,0,0,0,4.49,25.43c.21.34.74,0,.53-.31Z"/><path class="cls-2" d="M925.6,1874.68c8.62,4,18.66,5.13,28.07,4.28.39,0,.4-.65,0-.61-9.31.84-19.23-.19-27.76-4.2-.35-.17-.66.36-.31.53Z"/><path class="cls-2" d="M912.31,1857.54a59.49,59.49,0,0,0,3.37,25.54c.13.37.72.21.59-.16a59.23,59.23,0,0,1-3.35-25.38c0-.39-.58-.39-.61,0Z"/><path class="cls-3" d="M573.92,2030c-6.31-10.49-5.07-14.54-.88-17.45s9.69-3,15,3.35c12.77,15.45,18.57,38.91,15.76,40.86C601.72,2058.16,582.71,2044.57,573.92,2030Z"/><path class="cls-2" d="M605,2059.27c-7.28-17.06-22.45-29.4-29.15-46.76-.07-.17-.31,0-.25.13,6.7,17.37,21.87,29.7,29.16,46.76.07.16.31,0,.24-.13Z"/><path class="cls-2" d="M588.89,2033.8a16,16,0,0,1-11.44,1.13.14.14,0,0,0-.08.27,16.38,16.38,0,0,0,11.65-1.15.14.14,0,0,0-.13-.25Z"/><path class="cls-2" d="M584,2027.24a25.15,25.15,0,0,0,2.91-12.54c0-.18-.28-.19-.28,0a24.72,24.72,0,0,1-2.87,12.4c-.09.16.15.31.24.15Z"/><path class="cls-2" d="M575.78,2032.66a27.33,27.33,0,0,0,11.66-.63c.17,0,.11-.32-.06-.27a27.16,27.16,0,0,1-11.59.62c-.18,0-.19.25,0,.28Z"/><g class="cls-4"><path class="cls-3" d="M1905.8,1977.76c10.12-8.5,14.65-7.86,18.46-3.88s4.88,9.82-1,16.53c-14.34,16.24-38.39,26.38-41,23.71C1880.4,2012.17,1891.71,1989.6,1905.8,1977.76Z"/><path class="cls-2" d="M1879.78,2015.88c17-10.65,27.58-28.91,45-39,.17-.1,0-.34-.18-.24-17.4,10.08-28,28.34-45,39-.16.1,0,.34.18.24Z"/><path class="cls-2" d="M1904.24,1994.38a17.36,17.36,0,0,1-3.14-12c0-.19-.27-.24-.29,0a17.66,17.66,0,0,0,3.19,12.25c.11.15.35,0,.24-.18Z"/><path class="cls-2" d="M1910.41,1988a27.11,27.11,0,0,0,13.87,1c.19,0,.16-.33,0-.3a26.74,26.74,0,0,1-13.72-1c-.18-.07-.3.21-.12.28Z"/><path class="cls-2" d="M1903.24,1980.19a29.51,29.51,0,0,0,2.64,12.34c.08.17.36.07.28-.11a29.31,29.31,0,0,1-2.62-12.26c0-.2-.29-.16-.3,0Z"/></g><g class="cls-1"><path class="cls-2" d="M1680.35,2123.79l-.9-.11c1.87-16,12.43-58.49,39-104.29a378.07,378.07,0,0,1,74.24-91.14c37.23-33.57,82.12-61.26,133.41-82.31l.35.84c-51.2,21-96,48.64-133.15,82.15a376.64,376.64,0,0,0-74.06,90.91C1692.74,2065.51,1682.22,2107.81,1680.35,2123.79Z"/><path class="cls-3" d="M1950.9,1812.52c18.12-8.44,24.48-5.72,28.48,1.58s3.28,16.26-8,23.74c-27.32,18.07-66.42,23.44-69.11,18.53C1900.31,1852.8,1925.68,1824.28,1950.9,1812.52Z"/><path class="cls-3" d="M1927.57,1877.14c19.26,5.35,22.33,11.55,20.63,19.7s-8.08,14.49-21.52,12.84c-32.5-4-65.71-25.33-64.57-30.81C1862.94,1874.89,1900.77,1869.69,1927.57,1877.14Z"/><path class="cls-2" d="M1901.53,1857.29c27.93-8.47,49.07-31.09,77.39-38.59.29-.07.14-.5-.14-.43-28.33,7.5-49.46,30.12-77.39,38.59-.28.08-.14.51.14.43Z"/><path class="cls-2" d="M1942.1,1836.19a26.15,26.15,0,0,1,.14-18.78c.11-.27-.29-.48-.41-.21a26.57,26.57,0,0,0-.16,19.13c.11.27.54.13.43-.14Z"/><path class="cls-2" d="M1953.59,1829.33c5.73,4.11,12.89,6.26,19.86,6.9.29,0,.39-.41.1-.44-6.9-.64-14-2.73-19.66-6.8-.23-.17-.54.17-.3.34Z"/><path class="cls-2" d="M1946.22,1815.05a44.14,44.14,0,0,0-1,19.06c0,.28.5.26.45,0a43.86,43.86,0,0,1,1-18.93c.07-.28-.37-.38-.45-.1Z"/><path class="cls-3" d="M1842.22,1815.14c0-20,5.12-24.62,13.42-25.17s16.13,3.87,18.16,17.25c4.9,32.39-6.69,70.12-12.27,70.49C1857.47,1878,1842.27,1843,1842.22,1815.14Z"/><path class="cls-2" d="M1862.05,1878.78c4-28.9-7.52-57.58-2.43-86.44.05-.29-.4-.38-.45-.1-5.09,28.86,6.48,57.54,2.44,86.45,0,.29.4.38.44.09Z"/><path class="cls-2" d="M1860,1833.08a26.21,26.21,0,0,1-17-8.06c-.2-.21-.5.13-.3.34a26.55,26.55,0,0,0,17.29,8.17c.29,0,.27-.44,0-.45Z"/><path class="cls-2" d="M1858.64,1819.75c6.14-3.47,11.09-9.07,14.6-15.13.15-.25-.25-.46-.4-.2-3.48,6-8.38,11.53-14.45,14.95-.26.15,0,.52.25.38Z"/><path class="cls-2" d="M1842.54,1820.43a44.17,44.17,0,0,0,16.91,9c.29.07.38-.37.1-.45a43.31,43.31,0,0,1-16.71-8.83c-.22-.19-.53.15-.3.33Z"/><path class="cls-3" d="M1770.52,1853.72c0-23.35,6-28.75,15.67-29.4s18.84,4.52,21.21,20.15c5.72,37.82-7.81,81.89-14.33,82.33C1788.33,1927.11,1770.58,1886.21,1770.52,1853.72Z"/><path class="cls-2" d="M1793.68,1928.05c4.76-33.76-8.83-67.26-2.85-101,.06-.33-.45-.45-.51-.11-6,33.7,7.6,67.21,2.84,101-.05.33.47.45.52.11Z"/><path class="cls-2" d="M1791.22,1874.67a30.45,30.45,0,0,1-19.82-9.41c-.23-.25-.58.15-.35.4a30.89,30.89,0,0,0,20.2,9.54c.34,0,.31-.51,0-.53Z"/><path class="cls-2" d="M1789.69,1859.1c7.18-4,13-10.6,17.06-17.66.17-.3-.3-.54-.47-.25-4,7-9.8,13.48-16.88,17.47-.3.17,0,.61.29.44Z"/><path class="cls-2" d="M1770.89,1859.9a51.3,51.3,0,0,0,19.75,10.45c.33.09.44-.43.12-.52a50.51,50.51,0,0,1-19.52-10.32c-.26-.22-.61.17-.35.39Z"/><path class="cls-3" d="M1871.11,1932.54c21.92,8,24.92,15.52,22.18,24.85s-10.74,16.13-26.23,12.95c-37.47-7.68-74.16-35.58-72.32-41.85C1796.07,1923.93,1840.59,1921.38,1871.11,1932.54Z"/><path class="cls-2" d="M1793.37,1928.64c30,16.14,66.19,14.9,95.74,32.17.3.17.54-.3.24-.47-29.55-17.27-65.71-16-95.74-32.17a.26.26,0,0,0-.24.47Z"/><path class="cls-2" d="M1844.28,1944.79a30.4,30.4,0,0,1,15.65-15.39c.31-.12.15-.63-.17-.5a30.91,30.91,0,0,0-16,15.65c-.13.31.34.55.47.24Z"/><path class="cls-2" d="M1859.43,1948.63c1.31,8.12,5.46,15.84,10.68,22.12.21.26.66,0,.44-.29-5.16-6.21-9.3-13.83-10.59-21.86,0-.33-.58-.31-.53,0Z"/><path class="cls-2" d="M1865.15,1930.76a51,51,0,0,0-16.57,14.9c-.19.27.2.63.4.35a50.57,50.57,0,0,1,16.47-14.8c.29-.17,0-.61-.3-.45Z"/><path class="cls-3" d="M1836.59,1984.53c24.67,9,28,17.46,25,28s-12.09,18.14-29.52,14.57c-42.16-8.64-83.44-40-81.37-47.09C1752.17,1974.84,1802.26,1972,1836.59,1984.53Z"/><path class="cls-2" d="M1745.15,1977.43c35,18.89,77.22,18.71,111.7,38.9.33.19.6-.34.27-.53-34.48-20.2-76.65-20-111.69-38.9a.3.3,0,0,0-.28.53Z"/><path class="cls-2" d="M1806.41,1998.31A34.06,34.06,0,0,1,1824,1981c.36-.14.17-.71-.19-.57a34.72,34.72,0,0,0-17.94,17.61c-.15.35.38.62.53.27Z"/><path class="cls-2" d="M1823.46,2002.63c1.45,9.12,6.14,17.85,12,24.89.24.29.74,0,.5-.33-5.81-7-10.48-15.57-11.92-24.59-.06-.38-.65-.35-.59,0Z"/><path class="cls-2" d="M1829.9,1982.53a57.06,57.06,0,0,0-18.65,16.76c-.22.3.22.71.44.39a56.9,56.9,0,0,1,18.53-16.66c.34-.18,0-.68-.32-.49Z"/><path class="cls-3" d="M1792.1,2030.14c26.23,1.39,31.93,8.47,32.07,19.41s-6.24,20.89-24,22.59c-42.84,4.1-91.51-13.8-91.6-21.15C1708.55,2045.64,1755.6,2028.21,1792.1,2030.14Z"/><path class="cls-2" d="M1702.59,2050.18c39.05,7.75,79.31-4.76,118.2,4.42a.3.3,0,0,0,.12-.58c-38.89-9.18-79.14,3.33-118.19-4.43a.3.3,0,0,0-.13.59Z"/><path class="cls-2" d="M1767.29,2052.18a34.13,34.13,0,0,1,11.74-21.72c.3-.24,0-.74-.33-.5a34.67,34.67,0,0,0-12,22.09c0,.38.54.51.58.13Z"/><path class="cls-2" d="M1784.88,2051.36c4.07,8.3,11.14,15.23,18.81,20.24.32.21.59-.32.27-.53-7.59-5-14.55-11.83-18.58-20-.17-.34-.66,0-.5.33Z"/><path class="cls-2" d="M1785.12,2030.18a57.38,57.38,0,0,0-12.94,21.56c-.12.37.46.49.58.13a56.81,56.81,0,0,1,12.8-21.29c.27-.28-.17-.67-.44-.4Z"/><path class="cls-3" d="M1728.63,1887.1c-11.49-23.62-20.24-26.11-30.37-22s-16.81,13.87-11.47,30.85c12.91,41,48.35,78.91,55.16,76.13C1746.9,1970.09,1744.63,1920,1728.63,1887.1Z"/><path class="cls-2" d="M1745.54,1977c-22.37-32.93-26.5-74.9-50.12-107.14-.22-.31-.72,0-.49.33,23.61,32.23,27.74,74.2,50.11,107.13.22.32.71,0,.5-.32Z"/><path class="cls-2" d="M1718.34,1919a34.64,34.64,0,0,0,15.67-19.65c.11-.37-.48-.5-.58-.13a34.16,34.16,0,0,1-15.42,19.28c-.34.19,0,.68.33.5Z"/><path class="cls-2" d="M1711.94,1901.42c-9.13-.5-18.16-4.28-25.68-9.34-.32-.21-.59.32-.28.53,7.61,5.12,16.77,8.9,26,9.41.38,0,.35-.58,0-.6Z"/><path class="cls-2" d="M1730.78,1893.28a57,57,0,0,1-14.68,20.14c-.29.25.16.65.44.4a57.24,57.24,0,0,0,14.77-20.27c.15-.35-.38-.62-.53-.27Z"/><path class="cls-3" d="M1643.78,1960.9c-23-20.23-33.6-19-42.64-9.92s-11.81,22.54,1.61,38.4c32.46,38.37,87.75,63.09,93.82,57C1701,2042,1675.87,1989.05,1643.78,1960.9Z"/><path class="cls-2" d="M1702.61,2050c-30.76-20-51.92-51-79-75.19a156.22,156.22,0,0,0-23.39-17.49c-.38-.23-.7.39-.32.62,31.47,18.86,52.92,49.9,79.46,74.5a171,171,0,0,0,23,18.18c.38.24.69-.38.32-.62Z"/><path class="cls-2" d="M1647.11,2000c5.89-7.49,9.23-18.75,8-28.24-.05-.44-.75-.41-.69,0,1.18,9.3-2.07,20.38-7.85,27.73-.28.36.24.82.52.47Z"/><path class="cls-2" d="M1632.33,1983.85c-10,3.6-21.52,3.64-31.87,1.59a.35.35,0,0,0-.15.68c10.49,2.08,22.09,2,32.24-1.61a.35.35,0,0,0-.22-.66Z"/><path class="cls-2" d="M1648.89,1966.63a66,66,0,0,1-6.68,28.23c-.19.4.43.72.62.32a66.67,66.67,0,0,0,6.75-28.59c0-.44-.69-.4-.69,0Z"/></g><path class="cls-5" d="M928,2308.45H675.53c-9.91-12.36-20.24-20.78-35.7-20.15-48.9,2-77.68-18.9-92.09-47.4-.12-.23-.24-.47-.35-.71a104.08,104.08,0,0,1-7.68-21.14c-.05-.23-.11-.47-.17-.7-.58-2.4-1.09-4.81-1.51-7.25-7.49-42.24-111.8-50.12-78.55-100.18s128.82-1.36,165.62-27.11a111.42,111.42,0,0,1,13.09-7.86c.19-.11.39-.21.6-.31,37.91-19.23,93.71-22.19,125,27.71A89.72,89.72,0,0,0,778,2121.14a56.7,56.7,0,0,0,16.63,11l.65.28c26.06,11,56,2.56,102,47.43C930.91,2212.64,933.46,2265.21,928,2308.45Z"/><path class="cls-2" d="M853.11,2308.45h-2.93A745.31,745.31,0,0,0,797,2255.61q-12.71-11.39-26.11-21.86-9.14-7.14-18.57-13.89l-.6-.42q-9.24-6.58-18.75-12.77h0l-.36-.23a569.59,569.59,0,0,0-50.77-29.37,600.3,600.3,0,0,0-125.29-47.38q-11-2.8-22-5.2l-.73-.16a441.52,441.52,0,0,0-73.86-9.86c-1.39-.06-1.39-2.22,0-2.16q4.9.21,9.81.55c34.51,2.44,68.78,9.28,102,18.69q6.12,1.73,12.2,3.59l.69.2a602.86,602.86,0,0,1,95.77,38.58l.72.37q8.92,4.51,17.67,9.36l3.57,2,.62.34A552,552,0,0,1,771,2231.28q9.6,7.48,18.89,15.41l.53.44q10,8.53,19.59,17.55Q832.38,2285.68,853.11,2308.45Z"/><path class="cls-2" d="M637.86,2075.56c24,27.84,37.67,63.8,42.75,99.94.06.42.7.24.64-.18-5.1-36.24-18.83-72.3-42.92-100.23-.28-.32-.75.15-.47.47Z"/><path class="cls-2" d="M660,2068.06a238.6,238.6,0,0,1,31.81,56.56c7.75,19.72,14,40.88,10.32,62.23-.07.41.57.59.64.17,3.65-21.06-2.29-41.8-9.83-61.32a239.24,239.24,0,0,0-32.37-58c-.26-.33-.83,0-.57.34Z"/><path class="cls-2" d="M752.37,2219.05c-47.77,26.78-104.51,37.24-158.81,30.92a248.47,248.47,0,0,1-45.93-9.8.33.33,0,0,0-.18.64c52.76,16.63,111,15.12,163.35-2.57a247.92,247.92,0,0,0,41.91-18.62.33.33,0,0,0-.34-.57Z"/><path class="cls-2" d="M732.44,2206.47c-46.51,22.56-100.29,28.14-151.13,21a288.31,288.31,0,0,1-41.6-9.07.33.33,0,0,0-.17.64c49.47,14.66,103.59,16.44,153.52,2.88a227.43,227.43,0,0,0,39.71-14.83c.38-.19.05-.76-.33-.58Z"/><path class="cls-2" d="M566.7,2091.33c10.49,12.34,16,29.09,17.33,45.06,0,.42.7.42.66,0-1.39-16.15-6.91-33-17.52-45.52-.28-.33-.74.14-.47.46Z"/><path class="cls-2" d="M534.76,2123.1a92.06,92.06,0,0,1-61.49,32.64c-.42,0-.42.71,0,.67a92.75,92.75,0,0,0,62-32.84c.27-.32-.19-.79-.46-.47Z"/><path class="cls-2" d="M794.58,2132.29c1,19.73,3.16,39.37,4.57,59.07,1.36,18.94-.06,38.51-9.31,55.47-.2.37.37.71.57.33,8.85-16.23,10.65-34.94,9.58-53.13-1.21-20.61-3.72-41.12-4.75-61.74,0-.42-.68-.43-.66,0Z"/><g class="cls-1"><path class="cls-5" d="M1741.25,2255.28s-8.93-97.11,43.77-126.31,66.15,4.25,98.53-25.54,72.91-11.13,91.91,11.72,88.46,8.45,100.95,46.19-55.45,24.57-67.59,50.23-37.49,44.48-78.43,31.5S1878.28,2334.42,1741.25,2255.28Z"/><path class="cls-2" d="M2075.9,2162.14c-21.48-4.91-43.67-6.88-65.66-7.2a399.08,399.08,0,0,0-89.14,8.78,361.79,361.79,0,0,0-87.24,30.48,518.49,518.49,0,0,0-74.31,46c-20.6,15.21-41.07,32-57,52.15q-2.28,2.89-4.4,5.91c-.53.76.74,1.42,1.26.67,14.29-20.35,34.08-37,53.66-52.06a524.73,524.73,0,0,1,72.42-46.68,363.52,363.52,0,0,1,84.3-32.37,396.27,396.27,0,0,1,90.71-11.44c23-.24,46.28,1.35,68.91,5.86q3.1.63,6.19,1.33a.72.72,0,0,0,.31-1.4Z"/><path class="cls-2" d="M1807.65,2120.05c-20.43,29.28-19.43,66.4-18.12,100.5a.22.22,0,0,0,.44,0c-1.31-34-2.32-71.05,18.06-100.28.17-.23-.22-.43-.38-.2Z"/><path class="cls-2" d="M1819.6,2202.62c17.47,19.42,42.62,31.28,67.14,39.08q10.42,3.32,21.14,5.61a.22.22,0,0,0,.09-.43c-25.48-5.47-51.12-15-72.29-30.47a102.26,102.26,0,0,1-15.79-14.12c-.19-.21-.48.12-.29.33Z"/><path class="cls-2" d="M1968.53,2107.29c-20.24,13.6-35.3,34.24-44.86,56.47-.11.26.27.47.38.21,9.54-22.17,24.53-42.75,44.72-56.31.23-.16,0-.53-.24-.37Z"/><path class="cls-2" d="M1955.67,2098.67a158.17,158.17,0,0,0-30.94,31.56c-8.13,11.07-15.51,23.21-16.83,37.19,0,.28.4.37.43.09,1.34-14.15,8.91-26.46,17.2-37.62A157.66,157.66,0,0,1,1955.9,2099c.23-.17,0-.54-.23-.37Z"/><path class="cls-2" d="M1870.35,2179.56c26,25.61,60.67,42.25,96.68,47.62a164.86,164.86,0,0,0,30.6,1.7.22.22,0,0,0,0-.44c-36.25,1.41-72.87-9.57-103-29.69a163.81,163.81,0,0,1-24-19.51c-.2-.2-.5.13-.3.32Z"/><path class="cls-2" d="M1885.27,2175c25.72,22.5,59.07,35.5,92.75,39.81a192.19,192.19,0,0,0,28.47,1.51.22.22,0,0,0,0-.44c-33.83.73-68.36-7.47-97.67-24.54a150,150,0,0,1-23.23-16.66c-.21-.19-.51.13-.3.32Z"/><path class="cls-2" d="M2011.18,2129.76c-8.94,6.1-15.42,15.95-19.11,26-.1.26.33.36.43.1,3.65-9.94,10.08-19.7,18.92-25.73a.22.22,0,0,0-.24-.37Z"/><path class="cls-2" d="M2025.86,2156.16a61.32,61.32,0,0,0,33.77,31.78c.26.1.47-.29.21-.39a60.86,60.86,0,0,1-33.57-31.52c-.11-.26-.53-.13-.41.13Z"/><path class="cls-2" d="M1858.44,2116.43c-4.2,12.8-9.25,25.29-13.62,38-4,11.57-6.2,24-3.33,36.11.06.27.48.14.41-.14-3-12.56-.36-25.45,3.88-37.4,4.32-12.19,9.06-24.22,13.08-36.51.09-.27-.34-.36-.42-.09Z"/><path class="cls-2" d="M1864.65,2277.53c-28.5-1.64-56.09-13.55-80.46-27.77q-10-5.85-19.56-12.53c-.23-.17-.43.22-.2.38,23.36,16.39,49.63,30.12,77.49,36.88a127.65,127.65,0,0,0,22.75,3.48c.28,0,.26-.42,0-.44Z"/></g><path class="cls-6" d="M1219.25,1872.79c-4.81,20.79-68.26,62.22-73.77,80.87a6.61,6.61,0,0,0,0,4.53q1.83,4.2,3.13,8.19c.1.25.17.5.24.73.75,2.3,1.37,4.52,1.87,6.72.48,2,.86,4.05,1.16,6,0,.25.1.51.12.74.86,18.39-3.34,33.48-9.83,45.67-9.69,18.21-24.49,30-35.12,36.56a86.78,86.78,0,0,1-13,6.82c-3.59,10.2,9.1,175.9,30.28,238.81H854.91c-8.09-196.81-18.12-257.17-18.12-257.17-52-42.89-51.07-117.89-43.06-162.23a.31.31,0,0,1,0-.1,27.26,27.26,0,0,1,1.64-5.69s0,0,0,0c8.37-20.11,38.8-13.73,80.88-68.79q5.31-6.95,10.64-14.56,5.73-8.16,11.37-17.14c1.38-2.17,2.74-4.4,4.1-6.66.23-.36.45-.71.65-1.07,1.81-3,3.58-6,5.34-9.12,2-3.51,4-7.1,6-10.77.21-.41.43-.83.65-1.23,17.62-33.25,33.37-73,44.28-119.88q2.93-12.42,5.33-25.49c2.56-13.9,21.1-4.77,47.1,16.91,14.78,12.33,32,28.69,50,47.19,9.82,10.05,19.89,20.73,30,31.72,14.64,16,29.28,32.65,43.16,49,18.25,21.52,35.18,42.53,49,60.85.69.91,1.36,1.82,2,2.7l.36.49C1207.37,1845.59,1220.61,1866.85,1219.25,1872.79Z"/><g class="cls-4"><path class="cls-7" d="M1259.66,1749.79c-43.67-7.47-140.61,5.45-140.61,5.45l0,0c-9.16-14.06-18.57-31.29-28.11-52.55l24.06-15.72Z"/></g><path class="cls-8" d="M1142.19,2026.26a16.8,16.8,0,0,1-3-6c-11.52-35.19-123.8-28.82-123.8-28.82l130.06-37.8a6.61,6.61,0,0,0,0,4.53q1.83,4.2,3.13,8.19c.1.25.17.5.24.73.75,2.3,1.37,4.52,1.87,6.72.48,2,.86,4.05,1.16,6,0,.25.1.51.12.74C1152.88,1999,1148.68,2014.07,1142.19,2026.26Z"/><path class="cls-7" d="M1181,1815.25a129.58,129.58,0,0,0,61.61,10.37,1,1,0,0,0-.18-2.09,127.1,127.1,0,0,1-60.53-10.17c-1.24-.54-2.14,1.35-.9,1.89Z"/><path class="cls-9" d="M978.27,1988.69l388.29-33.47a50.5,50.5,0,0,0,46-54.65l-63.45-736.17a50.5,50.5,0,0,0-54.65-46L906.14,1151.9a50.5,50.5,0,0,0-46,54.65l63.45,736.16A50.51,50.51,0,0,0,978.27,1988.69Z"/><path class="cls-10" d="M1419.35,1900l-18.06-209.54h0l-18.72-217.14-.47-5.5h0l-11.39-132.15-8.38-97.19-6.43-74.63a57.41,57.41,0,0,0-62.05-52.22l-388.29,33.47a57.24,57.24,0,0,0-38.12,19.27c-.11.13-.22.26-.32.4a57.11,57.11,0,0,0-13.78,42.39l38.85,450.71,10.19,118.25,14.41,167.21a57.42,57.42,0,0,0,62.06,52.22l13.27-1.14,1.17-.1L1152,1980.6l90.48-7.82,1.32-.11L1367.15,1962a57.12,57.12,0,0,0,38.94-20.25l.21-.25A57.11,57.11,0,0,0,1419.35,1900ZM906.73,1158.73l388.3-33.47a43.69,43.69,0,0,1,47.22,39.73L1367,1452.36l.55,6.43,5,58.39h0l13.72,159.19h0l19.37,224.77a43.68,43.68,0,0,1-39.73,47.23L1242.88,1959l-1.44.13-92.57,8L994.6,1980.4l-16.92,1.46a43.69,43.69,0,0,1-47.24-39.73l-16.11-187-8.91-103.33L867,1206a43.71,43.71,0,0,1,39.74-47.23Z"/><path class="cls-10" d="M1420,1899.19l-18-208.16h0l-19-219.91v0l-.21-2.49-11.2-130v0L1363,1236.94l-6.37-73.93a57.42,57.42,0,0,0-62.06-52.21l-388.29,33.47a57.23,57.23,0,0,0-38.79,20.07c-.11.13-.22.26-.32.4a57.1,57.1,0,0,0-13.1,41.59l38.88,451.16L903,1775l14.44,167.49a57.41,57.41,0,0,0,62.06,52.21l12.75-1.1,1.11-.1,158.5-13.65,90.53-7.8,1.34-.12,124-10.69a57.12,57.12,0,0,0,38.27-19.45l.21-.25A57.17,57.17,0,0,0,1420,1899.19Zm-53.37,48.4-123.84,10.67-1.43.13-92.76,8-154,13.27-16.27,1.41a43.69,43.69,0,0,1-47.22-39.73L915,1753.89l-8.82-102.42-38.48-446.32a43.71,43.71,0,0,1,39.73-47.23l388.3-33.47a43.68,43.68,0,0,1,47.22,39.74l24.92,289.06.34,3.9h0l5,57.38,14,162.82,19.23,223a43.71,43.71,0,0,1-39.73,47.24Z"/><path class="cls-6" d="M793.75,1889c4.53-10.69,38.17-191.71,65.59-211.61,47-34.12,116.29-49.92,154.55-52.06,21-1.17,44.77-6.58,55.5-10.41,6.21-2.22,11.11-1.32,14.53,4.32,5.71,9.4,3.81,23.79-7.42,38.73-26.39,35.09-87.27,42.69-87.27,42.69-14.88,10.78-23.45,27.92-51.6,40.22-5.37,2.35,105,243.1,32.37,300.87C846.14,2140.22,792.26,1892.46,793.75,1889Z"/><path class="cls-11" d="M1027.77,1623.78s-.49,14,11.71,14,42.26-12.86,42.27-21.47C1081.75,1605.72,1044.13,1619.9,1027.77,1623.78Z"/><path class="cls-7" d="M804,2008.92c17.44,39.06,58.69,65.16,101.45,64.29a1.05,1.05,0,0,0,0-2.1c-42.09.86-82.48-24.83-99.64-63.25-.55-1.23-2.36-.17-1.81,1.06Z"/><path class="cls-7" d="M994.11,2006.51a80.3,80.3,0,0,1-13.71,37.39c-.77,1.12,1.05,2.17,1.81,1.06a82.59,82.59,0,0,0,14-38.45c.14-1.34-2-1.33-2.1,0Z"/><path class="cls-7" d="M1058,2082.08c22-5.8,44.06-11.26,61.18-27.35,1-.93-.5-2.41-1.48-1.48-16.85,15.83-38.61,21.11-60.26,26.81a1,1,0,0,0,.56,2Z"/><path class="cls-7" d="M922.69,1745.44c30.42-5.31,55.57-27.84,71.94-53.06.74-1.14-1.07-2.19-1.81-1.06-16.09,24.79-40.79,46.88-70.69,52.1-1.32.23-.76,2.25.56,2Z"/><path class="cls-7" d="M935.05,1740.74a66.33,66.33,0,0,1-6.87,11.66c-.8,1.09,1,2.14,1.81,1.06a67,67,0,0,0,6.88-11.66c.56-1.22-1.25-2.29-1.82-1.06Z"/><path class="cls-12" d="M1124.35,2308.45H1017.59c41.21-39.88,6.93-45.68,3.37-81.38-4.42-44.13,7.73-73.11,23.55-104.58,20.82-41.42,33.13-46.63,34.62-47.08l27.94-12.59a86.78,86.78,0,0,1-13,6.82C1090.48,2079.84,1103.17,2245.54,1124.35,2308.45Z"/><path class="cls-7" d="M980.06,2089a218.09,218.09,0,0,0-2.67,61.21c.13,1.33,2.23,1.34,2.09,0a216.07,216.07,0,0,1,2.61-60.66c.24-1.32-1.78-1.88-2-.55Z"/><path class="cls-13" d="M869.88,1002.43s-38.43,15.16-26.6,52.14l13.9-1.74s-6.15-23.5,19.58-36.92Z"/><path class="cls-14" d="M1027.73,1080.66s-.09,27.75-21.82,28.75l-20.21-6.91s24.41,6.28,22.52-19.94Z"/><path class="cls-15" d="M959.72,1083.87s6.75,34.92,50.39,24.91c0,0-24.64-6.66-25.61-31.28Z"/><path class="cls-13" d="M1277,1445.09s0,0,0,0,0,0,0,0a79.48,79.48,0,0,1-3.45,14.46c-5.69,17.22-17.37,38.07-33.68,66.69v0a110.18,110.18,0,0,0-14.55,59.09,74.19,74.19,0,0,0,1.58,13.21v0s-10.85,72.46-134.54-2.15c-40.84-24.63-86.24-17.39-88.51-22.27-5.8-12.55,26.91-49.74,47.32-66.42l0,0v0c6.61-5.38,11.86-10.39,14-14.63a11.49,11.49,0,0,0,1.53-6.08c-.23-3.07-1-9.2-2-17.16-.16-1.15-.3-2.35-.46-3.58l0-.26c-.42-3.29-.89-6.83-1.38-10.53v0c-4.94-37.11-12.76-91.57-12.76-91.57-17.22-151.18-6.92-160,5.84-158.56,20.27,2.27,22.6-1.84,20.92-5.74,10.47,12.63,35.9,43.17,48.77,57.42,37.8,41.9,103.12,34.82,88.24,4-17.36-36-30.57-70.64-30.57-70.64l27.73,24.95s52.77,73.76,82.48,119.82C1323.84,1382.19,1280.71,1396.39,1277,1445.09Z"/><path class="cls-16" d="M724.69,881.5s21.83,20,27,22.77,35.77-1.12,35.77-1.12l-6.6-8.56s-18.13.53-24.78-1.62S725.83,875,724.69,881.5Z"/><path class="cls-16" d="M867.24,979.08s-18.88-37.55-24.08-59.86-26.76-30.61-39.77-27.63-35.52,12.14-49.88,5c-17.31-8.59-24,33.49-3.82,36.59s45.24-.66,53.54,6.14,35.17,71.2,35.17,71.2Z"/><path class="cls-16" d="M812.72,922.49a11.47,11.47,0,0,0,9.38-18.88c-6-6.93-12.92-12.89-18.71-12-13.11,2-34.94-20.73-48.4-20.31s23.58,26.87,25.15,40.3C781,919,797.82,921.62,812.72,922.49Z"/><path class="cls-16" d="M707.11,910.52s32.07,22.24,39.35,24.91,46.5-7.86,46.5-7.86l-10.15-10s-23.57,3.92-32.63,2.31S707.43,901.79,707.11,910.52Z"/><path class="cls-16" d="M713.64,886.59s26.21,28.91,32.7,33.17,47.07,2.86,47.07,2.86l-7.63-12s-23.85-1.51-32.3-5.13S715.93,878.16,713.64,886.59Z"/><path class="cls-16" d="M705.34,899.77s32.26,22,39.56,24.57,46.44-8.26,46.44-8.26l-10.24-9.91s-23.54,4.13-32.61,2.6S705.59,891,705.34,899.77Z"/><path class="cls-17" d="M1273.51,1459.6c-5.69,17.22-17.37,38.07-33.68,66.69v0a110.18,110.18,0,0,0-14.55,59.09,74.19,74.19,0,0,0,1.58,13.21v0s-10.85,72.46-134.54-2.15c-40.84-24.63-86.24-17.39-88.51-22.27-5.8-12.55,26.91-49.74,47.32-66.42l0,0v0c6.61-5.38,11.86-10.39,14-14.63a11.49,11.49,0,0,0,1.53-6.08c-.23-3.07-1-9.2-2-17.16,3.61,12.56,13.87,30,42.64,38C1155.06,1521.12,1242.41,1502.52,1273.51,1459.6Z"/><path class="cls-16" d="M1308.22,749.78s-7.77,28.58-10.7,33.69-30.85,18.15-30.85,18.15l1-10.77s15.61-9.23,20.08-14.59S1303.76,744.87,1308.22,749.78Z"/><path class="cls-16" d="M1250.34,878.74a82.6,82.6,0,0,1-22.16-33.81c-7.51-21.63,6.29-40.17,18.88-44.6s36.52-8.7,44.85-22.39c10-16.5,38.19,15.51,22.78,28.9s-34.09,17.21-37.48,27.39-6.88,44.51-6.88,44.51Z"/><path class="cls-16" d="M1255.68,831.44a11.47,11.47,0,0,1-18-11c1.35-9,4-17.8,9.4-20.16,12.14-5.34,18.47-36.18,30.09-43s-5.6,35.3.24,47.5C1280.62,811.55,1267.8,822.75,1255.68,831.44Z"/><path class="cls-16" d="M1338.58,764.93s-15.24,35.93-20,42.08-43.52,18.18-43.52,18.18l3.25-13.87s22-9.27,28.82-15.47S1333.64,757.72,1338.58,764.93Z"/><path class="cls-16" d="M1320.28,748.18s-6.72,38.45-9.94,45.51-38.27,27.55-38.27,27.55l0-14.24s19.36-14,24.58-21.59S1313.84,742.28,1320.28,748.18Z"/><path class="cls-16" d="M1334.33,754.9s-15.54,35.79-20.33,41.9-43.67,17.8-43.67,17.8l3.37-13.84s22.1-9.07,29-15.22S1329.46,747.65,1334.33,754.9Z"/><polygon class="cls-18" points="1166.5 1227.9 1034.03 1236.48 1024.69 1104.06 1157.93 1095.43 1166.5 1227.9"/><path class="cls-13" d="M1153.4,1176.76s107.28-128.82,107.68-142.68c1-34.82-31.93-185.15-35.48-196.29-2.14-6.72,21,4.62,30.08-6.35,6.66-8,20.34-6.83,23.5-.78,55.15,105.52,81.1,205.92,80.71,214.1s-18.54,66.7-49.49,139c-30.67,71.65-86.32,97.77-86.67,164.7C1223.56,1384.7,1153.4,1176.76,1153.4,1176.76Z"/><path class="cls-18" d="M1260.18,1102.24a70.31,70.31,0,0,1-4.57,18.37c-6.93-9.27-19.43-24.12-33.41-31.95.94.81,24.07,20.74,26,45.72-6.18,8.62-15.45,33.55-41.49,35.62-25.41,2-43.77,24-43.77,24L1038.86,970.84s37.36-22,79-11.77c66.7,16.44,79.51,29.65,78,67.25C1194.71,1056,1232.48,1059.7,1260.18,1102.24Z"/><path class="cls-16" d="M1069,1202.91s107.8,160.31,148.19,76.12c12.28-25.6-58.21-48.41-51.76-97.2.17-1.25,9.6-38,9.82-39.2,4.84-26.06-84.56,8.22-87.61,25.73A62.84,62.84,0,0,1,1069,1202.91Z"/><path class="cls-13" d="M1076.87,1199.62c-2.72-3.26-4.42-5.33-4.65-5.62C1072.56,1194.27,1075.69,1196.9,1076.87,1199.62Z"/><path class="cls-19" d="M1105.47,1153.76c2,3.1,3.41,3.43,5.14,7.23,24.64,14.25,55.25,15.82,56,15.77,4-17.45,6.47-20.23,5.52-28.35C1151.32,1147.93,1114.54,1148,1105.47,1153.76Z"/><path class="cls-16" d="M1110.71,1159.17c50,6.8,82.9-14.41,89.69-21.63s2.73-14.75,3.54-40.9c.55-18-4.64-31.7-11.19-40.45a34.09,34.09,0,0,0-9.27-8.78,28.53,28.53,0,0,1-2.54-1.72c-6.87-5.17-4.76-9.28-11-21.51-1.46-2.86-4.46-5.88-8.28-8.89-1.69-1.33-3.55-2.67-5.51-4-14.5-9.68-34.45-18.09-34.45-18.09-79.64-6.87-95.94,63.91-87.43,88S1060.69,1152.37,1110.71,1159.17Z"/><path class="cls-20" d="M1081.1,1064.52s-2.23-18.54,29.79-26.72c19-4.87,20.82,4.32,10.66,8.38S1103.5,1042.74,1081.1,1064.52Z"/><path class="cls-20" d="M1155.51,1027.81c3.29-2.84,4.2-9.17,6.11-12.52-1.22-2.2-2.95-4.2-5.51-4a12.75,12.75,0,0,0-3.51,3.32C1144.55,1025.35,1150,1032.57,1155.51,1027.81Z"/><path class="cls-21" d="M1133.06,1061.08s-8.87-9.61-16.1-10.16-23.78,9-25,14.12,1.15,11.45,1.15,11.45S1106.21,1052,1133.06,1061.08Z"/><path class="cls-20" d="M1094.08,1078.07c2.31,2.65,6.71-2.07,9.29-4.46.62-.57,1.23-1.18,1.82-1.79a68.09,68.09,0,0,1,5.64-5.63,22.38,22.38,0,0,1,5.89-3.5,24.18,24.18,0,0,1,19.91.73c-.36-.25-13.14-10.77-28.34-4C1097.24,1064.41,1092.41,1076.15,1094.08,1078.07Z"/><path class="cls-21" d="M1155.92,1049.28s-4.48-9.17-3.44-13.92,10.42-11.56,14-10.38,7.16,5,7.16,5S1155.26,1029,1155.92,1049.28Z"/><path class="cls-20" d="M1180.67,1026.69c1.16,2.51-3.65,4.16-6.19,5.25-.61.26-1.25.51-1.88.73a52.52,52.52,0,0,0-5.86,2.26,17.5,17.5,0,0,0-4.41,3.11,19.07,19.07,0,0,0-5.88,14.56c-.06-.34-3.52-12.92,6.27-21.67C1169.83,1024.58,1179.83,1024.87,1180.67,1026.69Z"/><g class="cls-22"><path class="cls-15" d="M1091.48,1100.58a23.39,23.39,0,0,1,15.23-12.14l11-2.77c7.17-1.82,14.85-3.64,20.92-1.29a7.41,7.41,0,0,1,4,3.29c2,3.78-1,7.42-4.11,10.38a66,66,0,0,1-30.52,16.26,45.1,45.1,0,0,1-5.39.86c-9.3.89-14.89-6.48-11.09-14.59Z"/></g><g class="cls-22"><path class="cls-15" d="M1175.61,1062.7a4.73,4.73,0,0,0,5.29,2.24,15.67,15.67,0,0,0,11.23-7.6,11.35,11.35,0,0,0,.62-1.15,34.09,34.09,0,0,0-9.27-8.78,28.53,28.53,0,0,1-2.54-1.72,5.48,5.48,0,0,0-.6.75l-2.61,4c-1.72,2.58-3.49,5.4-3.16,9.14A7.57,7.57,0,0,0,1175.61,1062.7Z"/></g><path class="cls-21" d="M1150.81,1034.18c-3.45,5.13-2.7,11.67.34,16.83,3.38,5.74,9.47,9.22,15.4,11.81,4,1.76,12.36,3.27,12.88,8.82.22,2.44-1.45,4.68-2.79,6.55a42.87,42.87,0,0,1-6.52,7.14c-.72.63-1.79-.41-1.07-1a40.35,40.35,0,0,0,7.19-8.13c1.68-2.56,2.52-5.17-.26-7.44a17.73,17.73,0,0,0-4.94-2.47c-5.47-2.14-11-4.4-15.55-8.12-7.1-5.74-11.55-16.39-6-24.68.53-.79,1.84-.06,1.3.74Z"/><g class="cls-22"><path class="cls-15" d="M1194.32,1119.17a23,23,0,0,0-13.2,7.36c-1.29,1.43-3.42-.66-2.14-2.08a25.69,25.69,0,0,1,14.57-8.16c1.88-.35,2.67,2.53.77,2.88Z"/></g><g class="cls-22"><path class="cls-15" d="M1175.13,1074.52a37.45,37.45,0,0,0-8.37,9.42c-1,1.63-3.61.16-2.6-1.47a39.81,39.81,0,0,1,8.84-10c1.47-1.2,3.62.88,2.13,2.09Z"/></g><path class="cls-18" d="M1105.47,977.74c-2.52,3,9.4,94.39-48.93,122.2-52.1,24.85-32.74,20.39-23.18,56.5s25.71,87.57-24.51,69.48-5.58-40.25-28.11-30.71l3.73-86.5,48.85-118L1074.73,974l47.64,2.28Z"/><path class="cls-18" d="M1092.8,1005.45s23.88-16.51,49.52-2.28c0,0-26.33-29.87-41.83-23.21S1092.8,1005.45,1092.8,1005.45Z"/><path class="cls-18" d="M1085,971.51l-67.69,138s40.13,22-.18,80.54c-27.35,39.72,5.92,47.76-37.4,57.15-14.28-20.68-13.85-59.38-13.85-59.38-16.2,21.79-5.8,48.35,1.47,62.64C927,1261,891.64,1266.26,867.17,1234c-26.42-34.85-.12-64.65-.12-64.65-19.3,15.43-25.53,54.5-25.53,54.5-16.33-45.36,1.36-95,57.4-115.06s19.74-69.42,68.63-128.42c60.18-72.61,144.82-29.79,144.82-29.79,61.81-1.25,77.8,44.78,77.8,44.78Z"/><path class="cls-18" d="M1091.23,950.08c-48.81-4.29-102.82,4.91-135.15,45.23a95.58,95.58,0,0,0-16.3,30.21c-4,12.45-5.29,25.4-8.26,38.09-6.43,27.47-34.26,37.09-55.74,50.79-9.95,6.34-19.4,13.83-25.87,23.85-7.64,11.85-10.3,25.9-11,39.78-.06,1.08,1.63,1.4,1.68.31.64-12.93,2.94-26,9.59-37.31,6-10.14,15.13-17.76,24.86-24.13,17.21-11.27,41-19.55,52.28-37.76,5.83-9.4,6.92-20.76,8.87-31.4,2.33-12.75,5.47-25.4,11.63-36.89,11.21-20.93,30.39-37,51.84-46.76,28.48-13,60.46-15,91.24-12.33,1.09.1,1.41-1.59.31-1.68Z"/><path class="cls-18" d="M1010.3,1200.62c-4,8.52-2.82,20.07-.69,29a62.83,62.83,0,0,0,14.92,27.85c.67.74,1.79-.33,1.12-1.06a61.16,61.16,0,0,1-14.05-25.23c-2.38-8.77-4-21.18,0-29.73.42-.89-.89-1.71-1.31-.81Z"/><path class="cls-18" d="M1046.06,1105.87a51.27,51.27,0,0,0,59.83,31.19c1.07-.25.56-1.88-.51-1.63a49.52,49.52,0,0,1-57.69-30.07c-.4-1-2-.52-1.63.51Z"/><path class="cls-23" d="M1097.35,966c7.22,26.53-12.5,49.23-33.78,61.91-20.82,12.4-44.84,18.87-64.46,33.36-14.8,10.94-27.22,27.63-27,46.76.24,19.42,12.58,35.8,21.62,52.08,6.9,12.43,11.93,25.28,11.1,39.75s-6,28.45-9.55,42.47c-.27,1.07,1.42,1.38,1.69.31,5.72-22.52,14.33-44.65,5.75-67.64-7.64-20.45-24.26-37.38-28.15-59.25-4.49-25.23,13.28-46.11,33.52-58.43,21.24-12.94,46-19.4,66-34.37,17.79-13.27,31-34.83,24.82-57.54-.29-1.07-1.89-.47-1.61.59Z"/><path class="cls-23" d="M1086.16,962.22c-6.83,25.6-31.9,41.79-52.93,55.26s-46.5,23.47-61.93,44.1a54.18,54.18,0,0,0-10.9,28.82c-1,13.58-1,25.52-6.91,38.14-10.08,21.56-26.2,39.29-32.65,62.66-6.36,23-2.77,49.16,15.75,65.62.82.74,1.92-.58,1.1-1.31-20.41-18.14-21.53-47.25-12.77-71.48,7.79-21.53,24-38.51,32.24-59.71,4.32-11.08,4-22,4.93-33.61,1-13,6.51-24.26,15.35-33.78,17.54-18.89,43.28-28.78,64.36-43,19.06-12.9,39.81-28,46-51.36.29-1.07-1.4-1.37-1.68-.31Z"/><path class="cls-23" d="M1066.65,962c1.85-1.42.8-4.65-1.27-5.71s-4.54-.66-6.85-.4-4.92.27-6.63-1.3c-1.07-1-1.6-2.42-2.57-3.51-2.4-2.69-6.62-2.46-10.17-1.82a102.49,102.49,0,0,0-70.51,50.58l9.11-2.48.75,5.28,18.66-6.93a3.46,3.46,0,0,1,2.51-.26c2.11.92.52,4,.51,6.35,0,2.64,2.74,4.62,5.38,4.75s5.13-1.08,7.48-2.29c20.87-10.78,40.53-24.2,56.92-41Z"/><path class="cls-24" d="M1090.93,1524.3c-10.61-3.16-23.38-25.29-22.69-14.17s-1.51,43.62-6.53,30.43c-5-13-11.13-31.58-10.59-32.75l0,0h0c6.61-5.39,11.86-10.4,14-14.64a11.51,11.51,0,0,0,1.53-6.08c-.26-3.52-1.17-11-2.41-20.74,1.58,10,6.9,34.12,22.27,45.72C1106.23,1526.89,1101.54,1527.47,1090.93,1524.3Z"/><path class="cls-13" d="M1096,1207.32s-6.93,265.12-20.52,231.53a196.71,196.71,0,0,0-11.74-24.09c-19.23-33.59-47.15-60.64-77.62-88.91-7.23-6.72-14.62-13.51-22.07-20.47-11-10.29-22.16-21-33.18-32.36-.15-.17-.27-.26-.33-.33l0,0a467,467,0,0,1-48-57.8c-.76-1.1-1.55-2.22-2.33-3.33-11.87-16.78-26.1-35.11-35.23-49.74h0c-4.56-7.29-7.83-13.66-9-18.45-1.82-8-21.5-82.27-33.77-199.08-1.36-12.88,16.93-1.78,28.34-3,9.58-1,20.06-19.87,23.45-11.91,53.24,124.77,34.86,122.19,59.89,165.67,3.08,5.34,6.81,11.37,11.41,18.42,12.54,19.22,34.61,42.09,62.72,68.23,26.13,24.3,65.9,29.77,90.33,28.5C1086,1209.78,1092.25,1208.69,1096,1207.32Z"/><path class="cls-25" d="M1154.67,1106.92c3.24,3.11,15,12.85,29.66,6.51,14.4-6.22,6.74-21.13,4.59-25.35-.44-.84-.74-1.33-.74-1.33h0c-.36-.13-5.88-1.94-9.55-.23a5.33,5.33,0,0,0-3.06,4v0s-6.7-.71-8.77,4.19c-1.85,4.34-6.44,9.68-11.12,11l-.05,0c-.23,0-.47.12-.72.16a1.59,1.59,0,0,0-.08.35A5.28,5.28,0,0,0,1154.67,1106.92Z"/><path class="cls-26" d="M1174.74,1109.25l.36-.3a24.49,24.49,0,0,0,6.71-1.86,7.69,7.69,0,0,1,2.43-1,1.86,1.86,0,0,1,2.1,1.18,2.37,2.37,0,0,1-1.07,2.17,14,14,0,0,1-7.6,2.93,3.44,3.44,0,0,1-2.9-.63A1.88,1.88,0,0,1,1174.74,1109.25Z"/><path class="cls-27" d="M1154.88,1105.86l.72-.12.05,0c15.78-3.11,32.51-19,32.51-19s3.36,9.76-4.73,17c-7,6.29-24.28,3.36-28.63,2.51a1.59,1.59,0,0,1,.08-.35Z"/><path class="cls-28" d="M1155.5,1105a12,12,0,0,0-.64,4.24.35.35,0,0,1-.7,0,12.71,12.71,0,0,1,.65-4.42c.15-.43.84-.27.69.16Z"/><path class="cls-28" d="M1187.69,1085.12a2.5,2.5,0,0,0,2.21,2.1c.45.06.29.74-.16.69a3.21,3.21,0,0,1-2.75-2.78c-.07-.44.64-.46.7,0Z"/><path class="cls-24" d="M1107.73,1578.57s37.74,15.41,56.9,31,42.37-7.18,46.47-15.79-20.85,6.85-41.91-1S1103.11,1576.61,1107.73,1578.57Z"/><path class="cls-24" d="M1133.39,1541.67s28.59,29.42,35.82,37.81,20.94,4.27,22.41,1.83-14.43-4.2-26.55-18S1131.9,1536.55,1133.39,1541.67Z"/><path class="cls-18" d="M1192.17,1015.82c1.51,18.25,13,30.67,27.14,41.14,7.08,5.25,14.69,10,21.09,16.07,7.72,7.35,17.08,19.12,16.88,30.25a.88.88,0,0,0,1.75.08c.3-16.64-16.07-31.47-28.42-40.43-16.87-12.24-34.81-24.36-36.69-47-.09-1.11-1.85-1.19-1.75-.07Z"/><path class="cls-18" d="M1075.79,1241.15a142.43,142.43,0,0,1-19.14.4c8-6.35,29-26,27.8-57,0,0-8.78,39.38-43.72,55.34-17.85-3-36.78-10.65-41.43-29.47-8.82-35.68-43-59.65-43-59.65l71.44-26.53,60.14,23.94S1111.94,1213,1075.79,1241.15Z"/><path class="cls-18" d="M1054.21,1107.68a52.32,52.32,0,0,0,33.66,34.69c27.8,9.54,37.48,63.62,27.33,86.59,0,0-4.65,4-9.73,3.78,0,0,5.46-62.68-21-74.45s-45.59-45.84-45.59-45.84Z"/><path class="cls-16" d="M1077.56,1097s-24.63-12.35-31.53,3.78,15.33,25.55,23.75,29.21c9,3.93,12,2.28,19.52-5.09S1077.56,1097,1077.56,1097Z"/><path class="cls-21" d="M1088.93,1122.88c.06,6.74-7,10.39-13,9.7-3.77-.44-7.27-2.11-10.58-3.87a75.55,75.55,0,0,1-11.51-7.17c-5.93-4.67-11.88-12.32-8.67-20.24s12-10.21,19.59-7.93c1,.3.58,1.84-.41,1.55-7-2.12-15.59.15-18,7.81s4.39,14.69,10.1,18.78c4.92,3.52,10.78,7.11,16.61,8.83,5.62,1.66,14.32-.07,14.25-7.46a.8.8,0,0,1,1.6,0Z"/><path class="cls-21" d="M1056.54,1099.94a11.88,11.88,0,0,1,7.55.9c2.7,1.49,3.24,3.56,3.93,6.31,1.3,5.19,6.33,3.45,10.21,5a5.34,5.34,0,0,1,3.71,5,.8.8,0,0,1-1.6,0c0-5.62-9.66-3.2-12.66-6.63-1.25-1.43-1-3-1.49-4.74-1.14-4.08-5.65-4.79-9.24-4.27-1,.14-1.43-1.4-.41-1.55Z"/><path class="cls-24" d="M1136.35,1395s28.35,9.37,62.34,0c0,0-7.35,13.88-33.83,15.33S1125.32,1392.48,1136.35,1395Z"/><path class="cls-24" d="M1251.75,1273.26s-15.79-10.11-9.91-31.57,8.76,8.77,18.34,8.29,17.33-10.75,17.33-10.75Z"/><path class="cls-29" d="M1259.47,1039.93c10.57-11.62,26.72-11.55,41.08-9.09.77.13,1.1-1,.33-1.19-14.81-2.53-31.4-2.55-42.28,9.41-.53.58.34,1.45.87.87Z"/><path class="cls-29" d="M1271,1024.79c-5.86,3.3-9.17,8.78-12.52,14.39a.61.61,0,0,0,1.06.62c3.24-5.42,6.41-10.76,12.08-14,.69-.38.07-1.44-.62-1.06Z"/><path class="cls-29" d="M1048.3,1391.14A64,64,0,0,1,1060,1408.7c.32.71,1.38.09,1.06-.62a65.41,65.41,0,0,0-11.86-17.81c-.54-.58-1.4.29-.87.87Z"/><path class="cls-29" d="M1047.38,1390.65l13.76,6.31c.72.33,1.34-.73.62-1.06l-13.76-6.3c-.71-.33-1.33.73-.62,1.05Z"/><path class="cls-29" d="M1082,1253.56a267.15,267.15,0,0,1-1.11,41.18c-.09.78,1.14.78,1.22,0a264.66,264.66,0,0,0,1.11-41.18c0-.79-1.26-.79-1.22,0Z"/><path class="cls-29" d="M1076.12,1264.59a71.07,71.07,0,0,1-7.46,18.05.61.61,0,0,0,1,.62,71.69,71.69,0,0,0,7.59-18.35.61.61,0,0,0-1.18-.32Z"/><path class="cls-15" d="M1295.78,1817.59l-238.3,20.54a55.68,55.68,0,0,1-60.25-50.69h0a55.68,55.68,0,0,1,50.69-60.26l238.3-20.54a55.69,55.69,0,0,1,60.26,50.69h0A55.69,55.69,0,0,1,1295.78,1817.59Z"/><path class="cls-6" d="M1849,2308.45H1455.11c-8.71-6.76-18-14.36-28.11-22.93l0,0a44.18,44.18,0,0,1-3.75-3.61c-31.72-33.94-6.5-109.92,16.48-113,.3,0,.59-.07.89-.09a8.38,8.38,0,0,1,.87,0h.08l.39,0s-.81-1.42-2.32-4.13c-.56-1-1.24-2.24-2-3.63h0l-2.52-4.58-1-1.92a.25.25,0,0,1,0-.07c-3.12-5.71-7-13-11.58-21.59-13.68-26-33-64.29-52.62-108.08C1350,1980.48,1336,1944.19,1320.2,1910c-15.11-32.83-29.42-63.32-44.54-93.4-36.91-73.42,9.86-95.24,36.22-61.18,42.51,55,107.13,181.09,131.6,211.18,2.62,3.23,4.78,5.35,6.4,6.16h0a2.88,2.88,0,0,0,1.48.36,1.56,1.56,0,0,0,1.26-.87c4.54-7.77-4.8-53.58,47.8-51.94,20.76.64,33.64,23.7,41.3,32,1.9,2,3.47,3.2,4.76,2.88a2.54,2.54,0,0,0,1.52-1.24c6.37-9.93-2.4-36.68,40.57-41.07,17.93-1.82,30.05,8.89,36.68,13a13.18,13.18,0,0,0,2.8,1.4h0a2.46,2.46,0,0,0,1.55.07,1.62,1.62,0,0,0,.75-.54c14.27-17.9,30.43-17.14,44.16-9.13,25.44,14.83,27.63,43.85,79.31,129.29,9.65,16,16.69,57.47,25.43,100.53,8,39.5,17.46,80.31,31.65,103.9C1817.08,2261.57,1831,2282.34,1849,2308.45Z"/><path class="cls-11" d="M1266.82,1758s6.41,29.58,17.9,34.7,30.48-6.7,30.69-12.47-17-33.39-20.52-34.83S1270.78,1751,1266.82,1758Z"/><path class="cls-7" d="M1437.21,2162.25a358.47,358.47,0,0,1,31.26,56.29c.48,1.09,2.08.15,1.6-.93a358,358,0,0,0-31.26-56.29c-.66-1-2.27-.06-1.6.93Z"/><path class="cls-6" d="M1588.58,2308.45H1452.69c-8.65-7.19-17.28-14.94-25.69-22.93l0,0c-1.26-1.19-2.52-2.39-3.76-3.6a685.26,685.26,0,0,1-60.49-66.64c-35.21-45-42.15-57.92-49.09-87.65-2.45-10.5-9.29-22.65-17.13-33.94a332.57,332.57,0,0,0-32-38.63l0,0c-9.92-10.74,11.1-29.6,42.71-22s64.09,57.63,64.09,57.63c12.28,9.32,37.66,41.74,44.32,54,1.85,3.41,8.82,7.12,19.26,11.75h0a1.63,1.63,0,0,1,.19.09c27.19,12,77.71,30.27,122.91,65.37C1589.72,2246.47,1597.24,2281.32,1588.58,2308.45Z"/><path class="cls-7" d="M1422.51,2133.28a681,681,0,0,1,38.62,89.42c.34,1,1.93.57,1.58-.44a682.33,682.33,0,0,0-38.78-89.81c-.49-.94-1.91-.11-1.42.83Z"/><path class="cls-7" d="M1369.76,2089.53a38.45,38.45,0,0,0-14,3.17c-1,.41-.13,1.83.83,1.42a36,36,0,0,1,13.22-2.94c1,0,1.06-1.69,0-1.65Z"/><path class="cls-7" d="M1367.87,2090.71a33.19,33.19,0,0,0-5.27,5.26c-.66.82.5,2,1.16,1.16a33.12,33.12,0,0,1,5.27-5.25c.83-.66-.34-1.82-1.16-1.17Z"/><path class="cls-7" d="M1422.59,2150.64a19.78,19.78,0,0,0-9.63-3.47c-1-.1-1,1.55,0,1.64a18.17,18.17,0,0,1,8.8,3.25c.87.61,1.69-.81.83-1.42Z"/><path class="cls-7" d="M1443.65,1967.4l16.76,17.45c.73.77,1.9-.4,1.16-1.16q-8.37-8.73-16.76-17.45c-.73-.77-1.89.4-1.16,1.16Z"/><path class="cls-7" d="M1540.29,1953.19a28.7,28.7,0,0,0,13.4,5.8c1,.16,1.48-1.43.44-1.59a27.16,27.16,0,0,1-12.68-5.37c-.83-.64-2,.51-1.16,1.16Z"/><path class="cls-7" d="M1623.68,1924.21a31.13,31.13,0,0,0,15.93,9.4c1,.25,1.47-1.34.44-1.58a29.6,29.6,0,0,1-15.2-9c-.72-.78-1.88.38-1.17,1.16Z"/><path class="cls-11" d="M1304.42,2081.21c.25,5.43-4.21,9.79-7.92,12.46-21.48-19.53-32.74-36.94-32-38.63l0,0s5.72-10.64,13.18-5.38S1304,2072,1304.42,2081.21Z"/><path class="cls-7" d="M1345.76,1904.27a54.44,54.44,0,0,1,24.64-10.7c1-.17.6-1.75-.43-1.58a55.21,55.21,0,0,0-25,10.86c-.83.63,0,2.06.83,1.42Z"/><path class="cls-7" d="M1357.28,1907.51l7.84-2.76c1-.35.57-1.94-.43-1.59l-7.85,2.76c-1,.35-.57,1.94.44,1.59Z"/><polygon class="cls-15" points="1347.16 787.32 1319.67 793.5 1225.28 814.74 857.55 897.51 777.27 915.58 708.3 931.11 685.58 830.17 665.2 739.64 652.77 684.38 1291.63 540.59 1300.83 581.45 1320.72 669.84 1347.16 787.32"/><rect class="cls-30" x="647.31" y="612.2" width="654.84" height="23.1" transform="translate(-113.17 229.25) rotate(-12.68)"/><polygon class="cls-15" points="1301.1 552.75 1242.23 566 1148.83 587.02 860.2 651.99 764.07 673.62 646.36 700.12 639.7 670.48 628.9 622.54 711.72 603.9 1021.34 534.22 1110.27 514.2 1238.42 485.36 1283.64 475.18 1298.1 539.43 1301.1 552.75"/><path class="cls-13" d="M958.72,546.46c-14.59,1.74-31.49,2.52-45.57-2.41-12.49-4.37-20-18.14-15.57-31,6.13-17.6,27-3.5,36.19,3.64a92.25,92.25,0,0,1,25.34,30.71c1.46,2.83,6.45.84,5.23-2.2-4.68-11.75-9.46-24.21-9.33-37,.12-11.17,6.07-27.81,19.7-27.59,17.67.29,9.25,22.31,5.15,31.46a132.69,132.69,0,0,1-20.37,32l4.49,3.46a117.07,117.07,0,0,1,24.22-26.57c4.54-3.63,9.53-7.52,15-9.67,5.68-2.24,13.94-2.22,14,5.87.06,12.23-18.5,15.64-27.44,18-10.9,2.93-21.94,5.79-31.14,12.65-2.91,2.17-.06,7.14,2.89,4.94,12.8-9.55,28.93-10.75,43.49-16.24,9.95-3.75,23-13.7,16.39-26s-22.55-4.28-30.73,1.47A122.78,122.78,0,0,0,959,544.61c-1.78,2.67,2.37,5.94,4.49,3.46a138.26,138.26,0,0,0,24.77-41.6c2.47-6.63,4.65-14.32,2-21.26-2.19-5.8-7.5-9.38-13.52-10.15-14.17-1.81-24.09,11.85-26.6,24.28-3.27,16.17,2.71,32.59,8.62,47.41l5.22-2.2a97,97,0,0,0-24.14-30.2c-8.76-7.26-21-16.33-33-15.58-11.78.75-17,13.5-16.18,23.91a30.16,30.16,0,0,0,18,25.72c15,6.49,34.2,5.67,50.06,3.78,3.61-.44,3.66-6.16,0-5.72Z"/><path class="cls-13" d="M953.49,548.34c-13.11,4.72-27.13,9.86-35.94,21.29a33.82,33.82,0,0,0-7.34,18.26c-.53,8.21,4.3,14.69,5.29,22.55,1.08,8.6-5.13,15.48-11,20.88-5.34,4.93-10.79,9.51-14.82,15.64a51.75,51.75,0,0,0-7,39.48c.79,3.59,6.3,2.07,5.51-1.52a45.68,45.68,0,0,1,9.19-38.78c8.14-9.73,21.15-16.4,23.65-29.92,1.2-6.53-1.33-12.13-3.42-18.16a24.45,24.45,0,0,1,1.84-21c7.4-13,22.25-18.39,35.57-23.19,3.44-1.24,2-6.76-1.52-5.51Z"/><path class="cls-13" d="M958.17,553.77c9.88-6.28,19.65,2.9,26.08,9.77,5.9,6.3,12.24,13.11,21.1,14.82,8.69,1.67,17.12-1.68,25.48-3.52,10.41-2.29,20.35-.08,27.85,7.77,2.54,2.67,6.58-1.38,4-4a33,33,0,0,0-24.54-10.47c-10.9.26-22,7.29-32.88,4.39-10.65-2.83-16.55-14-24.77-20.42-7.2-5.66-17-8.46-25.25-3.24-3.1,2-.23,6.92,2.89,4.94Z"/><path class="cls-31" d="M713.64,618.38a55.34,55.34,0,0,1-73.94,52.1l-10.8-47.94,82.82-18.64A54.93,54.93,0,0,1,713.64,618.38Z"/><path class="cls-31" d="M860.2,652l-96.13,21.63A49.38,49.38,0,1,1,860.2,652Z"/><path class="cls-32" d="M860.78,879.93a49.08,49.08,0,0,1-3.23,17.58l-80.28,18.07a49.37,49.37,0,1,1,83.51-35.65Z"/><circle class="cls-32" cx="1104.37" cy="723.43" r="49.37" transform="translate(146.56 1632.05) rotate(-76.72)"/><path class="cls-32" d="M1319.67,793.5l-94.39,21.24a49.36,49.36,0,1,1,94.39-21.24Z"/><path class="cls-32" d="M1320.72,669.84a49.36,49.36,0,1,1-19.89-88.39Z"/><path class="cls-32" d="M741.25,781.2a49.37,49.37,0,0,1-49.38,49.36,52.2,52.2,0,0,1-6.29-.39L665.2,739.64a49.38,49.38,0,0,1,76,41.56Z"/><circle class="cls-32" cx="890.38" cy="771.88" r="49.37" transform="translate(-285.01 855.67) rotate(-45)"/><path class="cls-31" d="M1119.34,542.72a49.37,49.37,0,1,1-98.74,0,48.71,48.71,0,0,1,.74-8.51l88.93-20A49.15,49.15,0,0,1,1119.34,542.72Z"/><path class="cls-31" d="M1242.25,564.72c0,.42,0,.86,0,1.28l-93.4,21a49.37,49.37,0,1,1,93.42-22.3Z"/><path class="cls-31" d="M1298.1,539.43a49.43,49.43,0,0,1-59.68-54.07l45.22-10.18Z"/><rect class="cls-13" x="985.9" y="544.63" width="13.73" height="318.47" transform="translate(-130.33 235.17) rotate(-12.68)"/><rect class="cls-13" x="669.75" y="718.29" width="654.84" height="10.3" transform="translate(-134.52 236.61) rotate(-12.68)"/><path class="cls-33" d="M701.22,1255s60.53-19.81,45.72-77.8l-21.56,1.41s7.32,36.71-33.5,55Z"/><path class="cls-33" d="M450.84,953.43s-37.38-51.56-88-19.71l7.94,20.09s32.71-18.2,62.63,15.06Z"/><path class="cls-14" d="M610.75,1145.13s-8.88,41.84-42,36.5l-28.31-16.79s34.84,17.18,40.26-23Z"/><path class="cls-15" d="M507.12,1128.54s-.82,54.83,68.17,53.48c0,0-35.07-17.83-28.78-55.29Z"/><path class="cls-13" d="M781.18,1390c4.63.9,7.17,7.77,3.55,11.28-1.9,1.84-5.3,2-7.69,3a11.44,11.44,0,0,0-5.3,4.23c-5,7.86,2,16.39,1.72,24.48-.23,6-7.5,4.52-11.71,5.11-4.51.62-8.29,3-9,7.83-.88,6,4.45,10.86,3.22,16.92-1.3,6.42-7.89,11.94-14.55,10.87-4.07-.65-5.83,5.58-1.72,6.24a20.16,20.16,0,0,0,22.35-14.79c1.57-5.85-.81-9.72-2.32-15.17-1.28-4.61.84-5.41,4.8-5.66a39.26,39.26,0,0,0,7.18-.7c9.34-2.41,8.72-11.67,6.7-19.16-.91-3.36-3.2-8.55-1.54-12,2-4.13,9.84-3.64,13-7.34,6-7,2.09-19.63-7-21.4-4.07-.78-5.81,5.45-1.72,6.24Z"/><path class="cls-13" d="M347.2,1344.24c9.65-7.62,12.84-21.31,9.14-32.82a26.82,26.82,0,0,0-9.48-13.64c-4.22-3.06-10.62-4.13-13,1.7-4.67,11.39,7.64,22.37,17.46,24.88,12.5,3.18,24.26-3.41,30.25-14.44,5.59-10.32,8.1-28.16-.54-37.66-3.64-4-9.88-5.6-14.71-2.68-5.41,3.27-4.72,9.59-2.46,14.63,5.62,12.51,19.4,21.42,33.24,20.17,13.26-1.2,25.48-11.63,27.63-25,1-6.18-.61-14.4-7.42-16.51-5.27-1.63-11.78,1.24-11.89,7.32-.14,7.45,8.44,13.8,14.33,16.83a37.08,37.08,0,0,0,23.08,3.48c3.39-.54,2-5.7-1.42-5.16a31.06,31.06,0,0,1-26.57-8.4c-1.84-1.81-5.65-5.77-3.12-8.2,2.15-2.06,5.25-.77,6.69,1.51,2.67,4.24,1.05,10.58-1.06,14.71-9.38,18.28-34.25,17.8-45.73,2-2.38-3.27-7.29-11.39-1.28-13.34,5.54-1.8,8.81,4.6,9.86,8.86a35.56,35.56,0,0,1-3.57,25.28c-4.1,7.22-11.36,12.62-19.94,12-7.37-.5-15.5-5-17.69-12.44-.57-2-1.45-6.66,1.75-6.85,2-.11,4.73,2.9,5.94,4.27a23.85,23.85,0,0,1,5.38,11.5c1.64,9-1.37,18.41-8.64,24.15-2.7,2.13,1.11,5.89,3.78,3.78Z"/><path class="cls-15" d="M584.76,1048.35c4.11-4.49,11.66-11.72,18.13-7.42,3.75,2.49,5.7,7.29,8.47,10.71,5.81,7.19,13.39,6,19-.7,2.56-3.08,5.42-8.63,8.3-3,2.15,4.21,4.13,7.64,8.89,9.24s9.91.89,14.78.24c4.55-.62,13-1.62,15,3.94,1.41,3.89,7.66,2.21,6.24-1.72-4.55-12.6-18.83-8-28.82-8-3.61,0-6.92-.56-9-3.79-1.4-2.2-1.91-4.84-3.8-6.76-3.13-3.16-7.49-3.2-11-.63-3.31,2.47-5.69,9-10,9.75s-7.88-7.49-10.07-10.29c-9.25-11.84-22.27-5.55-30.8,3.77-2.8,3.07,1.76,7.65,4.58,4.57Z"/><path class="cls-15" d="M240.38,1020.94s17-10.4,33.87-4.67l2,18.9s-21.3-2.43-29.39,4.69Z"/><path class="cls-15" d="M544.73,1333.46s3.24,19.64-8.42,33.13l-18.25-5.29s10.27-18.81,6.71-29Z"/><path class="cls-13" d="M643.13,1331s19.46-14.15,40.37-8.88l4.19,22.6s-25.91-.89-35,8.47Z"/><path class="cls-13" d="M351.17,1112.91s20.84-43.81,50-51.53l14.33,20.3s-24.61,19.64-36.94,45.5Z"/><path class="cls-33" d="M1668.82,1153.09s40.07-34.19,10.51-73.89l-16,7.86s17.14,25.78-8.33,52.62Z"/><path class="cls-13" d="M1807.34,1259.69s50.11,16.22,68.43-29.76l-15.1-9.55s-13,28.11-49.18,20.47Z"/><path class="cls-14" d="M1530.41,1337.88s24.3,25.72,5.1,45.74L1510.77,1395s28.07-15.64,3.28-38.2Z"/><path class="cls-15" d="M1470.41,1400.61s36.92,26.33,68.43-21.26c0,0-28.61,15.49-51.15-6.39Z"/><path class="cls-13" d="M1803.3,1582.74c-1.87,4.35-8.94,5.55-11.78,1.31-1.58-2.37-.8-5.89-1.39-8.59a11.32,11.32,0,0,0-3.49-6.24c-7.07-6.21-16.62-.38-24.42-3.24-5.45-2-1.71-9.58-1.72-13.78,0-4.86-2.91-8.72-7.8-9.51-6-1-11.32,2.72-17-.92a13.54,13.54,0,0,1-5.54-16.24c1.53-3.87-4.72-5.55-6.23-1.72-3.55,9,1.2,19.63,9.53,24.15,4.69,2.55,9.12,2.21,14.19,1.41,4.17-.65,6.72.17,6.19,4.73-.31,2.57-1.06,5.1-1,7.71.17,9.8,9.2,11.41,17.12,11,3.47-.17,9.07-1.31,12.08,1,3.81,2.88,1.52,10.6,4.69,14.6,5.56,7,18.51,6.06,22.15-2.39,1.63-3.79-3.94-7.08-5.58-3.27Z"/><path class="cls-13" d="M1792.7,1370.5c11.44,4.1,24.57-.18,32.46-9.22a27.11,27.11,0,0,0,6.89-15.54c.38-5.18-1.92-11.11-8.13-10.24-11.3,1.6-14.7,16.33-12.71,25.57,2.71,12.59,13.69,20.29,26.31,20.5,12.29.21,29-6.8,33.75-19,2.15-5.49.66-12.19-4.79-15.16-5.93-3.25-11.16,1.17-14.3,6-7.45,11.5-7.36,27.93,1.22,38.82,7.93,10.07,22.63,14.79,34.74,10,6-2.33,12.57-8,10.82-15.15-1.43-5.86-8.06-9.73-13.31-5.82-5.45,4-6.37,13.31-6,19.51a37.12,37.12,0,0,0,9.24,22.37c2.26,2.6,6-1.2,3.78-3.79a31.16,31.16,0,0,1-7.06-26.84c.49-2.24,1.13-5.25,3.16-6.61,4.71-3.16,5.59,4,3.92,6.64-2.58,4.16-8.48,5.86-13.09,6.15-19.81,1.21-32-18.93-25.71-36.7,1.33-3.76,5.81-13.35,10.9-9.37s.33,10.91-3.12,14.13a35.39,35.39,0,0,1-24.85,9.42c-8.44-.34-16.1-4.73-19.3-12.72-2.49-6.19-2.41-14.23,2.21-19.44a9.13,9.13,0,0,1,1.59-1.51,2.33,2.33,0,0,1,3.29-.51c1.78-.33,2.51.33,2.19,2,.49,1.81-.55,4.63-1.19,6.38a24.11,24.11,0,0,1-6.81,9.74c-6.76,6-16.11,8.3-24.67,5.23-3.25-1.17-4.65,4-1.42,5.16Z"/><path class="cls-13" d="M1475.11,1541.38c8.46,8.61,21.77,10.57,32.83,6.11a27.64,27.64,0,0,0,13.1-10.56c3-4.64,3.74-11.9-2.94-13.59-11.65-2.94-20.9,9.81-22.48,19.71-2,12.57,5.32,23.53,16.69,28.56,11,4.87,29.12,5.51,38-4,3.73-4,4.68-10.3,1.41-14.89-3.83-5.38-10.44-3.87-15.33-.89-11.63,7.06-18.56,21.31-16.11,34.79,2.4,13.15,14.23,24.08,27.61,25,6.06.41,13.79-1.82,15.68-8.35,1.58-5.47-1.9-12.19-8.11-11.86-7.25.39-12.59,9.24-15,15.14a36.8,36.8,0,0,0-1.45,24c.91,3.31,6.07,1.91,5.16-1.42a31.12,31.12,0,0,1,5.41-27.65c1.56-2,5.11-6.43,8.09-4,1.74,1.41,1,4.68-.24,6.1-3.28,3.72-9.84,3.07-14.06,1.82-20.1-6-23.22-31.33-9.22-45,2.84-2.78,10.33-9.13,13.58-4s-3.12,9.77-7.19,11.28a35.57,35.57,0,0,1-25.84-.72c-7.61-3.3-13.73-9.91-14.08-18.49-.29-7.2,3.05-15.53,9.92-18.72,2-.95,7.55-2.86,7.3,1.78-.11,2-2.56,4.53-3.9,5.9a23.8,23.8,0,0,1-10.74,6.17c-8.56,2.38-18,.55-24.31-5.87-2.42-2.46-6.2,1.32-3.78,3.78Z"/><path class="cls-15" d="M1593.6,1455.46s18.6,7.07,24.41,23.93l-13.75,13.12s-11.1-18.33-21.69-20.38Z"/><path class="cls-15" d="M1929.69,1115.73s19.32-4.8,33.71,5.74l-3.81,18.62s-19.58-8.73-29.45-4.37Z"/><path class="cls-15" d="M1997.93,1513.75s13.9,14.24,12.08,32l-18,6.12s-2.36-21.31-11.1-27.62Z"/><path class="cls-15" d="M1656.92,1277.54s16-11.84,33.33-7.63l3.62,18.66s-21.43-.55-28.86,7.26Z"/><path class="cls-15" d="M1560.49,1012s16-11.85,33.33-7.63l3.62,18.66s-21.43-.55-28.86,7.25Z"/><path class="cls-13" d="M1476.78,1250.64s20.71-43.86,49.86-51.67l14.38,20.26s-24.55,19.71-36.8,45.61Z"/><path class="cls-13" d="M2008.82,1316.81s44.63,19,53.56,47.82l-19.68,15.16s-20.65-23.78-47-35Z"/><path class="cls-33" d="M1672.35,1384s46.26,14.6,57.92,42.43l-18.12,17s-22.85-21.67-50.16-30.32Z"/><path class="cls-15" d="M829.75,2308.45s-16.44-65.44,20.82-87.33c0,0,44.13,30.08,123.56,15.37s133.11-9.11,133.11-9.11,38.5,25.54,36.54,81.07Z"/><path class="cls-12" d="M1849,2308.45H1690c120.62,0,88.91-161.29,88.91-161.29l.37.29c8,39.5,17.46,80.31,31.65,103.9C1817.08,2261.57,1831,2282.34,1849,2308.45Z"/><path class="cls-33" d="M1758.87,523.67s40.07-34.18,10.51-73.89l-16.05,7.86s17.14,25.78-8.33,52.62Z"/><path class="cls-13" d="M1897.39,630.27s50.11,16.23,68.44-29.76l-15.1-9.55s-13,28.11-49.19,20.48Z"/><path class="cls-14" d="M1620.46,708.47s24.3,25.71,5.1,45.73l-24.73,11.38s28.06-15.64,3.28-38.21Z"/><path class="cls-15" d="M1560.46,771.19s36.92,26.34,68.43-21.25c0,0-28.61,15.48-51.14-6.4Z"/><path class="cls-13" d="M1893.35,953.33c-1.87,4.34-8.93,5.55-11.77,1.3-1.58-2.37-.8-5.88-1.4-8.59a11.32,11.32,0,0,0-3.49-6.24c-7.07-6.2-16.62-.38-24.42-3.24-5.44-2-1.71-9.58-1.72-13.78,0-4.86-2.91-8.71-7.8-9.51-6-1-11.31,2.72-17-.92a13.54,13.54,0,0,1-5.54-16.23c1.53-3.88-4.72-5.56-6.23-1.72-3.55,9,1.21,19.62,9.54,24.14,4.69,2.55,9.11,2.21,14.19,1.41,4.17-.65,6.72.17,6.18,4.74-.3,2.56-1.06,5.09-1,7.7.17,9.8,9.2,11.41,17.13,11,3.46-.17,9.06-1.31,12.07,1,3.81,2.88,1.52,10.59,4.7,14.59,5.55,7,18.51,6.06,22.14-2.39,1.63-3.78-3.94-7.08-5.58-3.26Z"/><path class="cls-13" d="M1882.75,741.08c11.45,4.1,24.57-.18,32.46-9.22a27.11,27.11,0,0,0,6.89-15.53c.39-5.18-1.92-11.12-8.13-10.24-11.3,1.59-14.7,16.33-12.71,25.56,2.72,12.59,13.7,20.29,26.32,20.5,12.28.21,28.94-6.79,33.74-19,2.16-5.5.66-12.19-4.79-15.17-5.93-3.24-11.15,1.17-14.3,6-7.45,11.51-7.36,27.94,1.22,38.82,7.94,10.07,22.63,14.79,34.75,10,6-2.33,12.56-8,10.81-15.14-1.43-5.87-8-9.73-13.31-5.83-5.45,4-6.37,13.31-6,19.51a37.16,37.16,0,0,0,9.24,22.37c2.27,2.6,6-1.2,3.79-3.78a31.15,31.15,0,0,1-7.07-26.85c.49-2.24,1.14-5.25,3.17-6.61,4.7-3.16,5.59,4,3.92,6.65-2.59,4.16-8.49,5.86-13.1,6.14-19.8,1.21-32-18.93-25.71-36.69,1.33-3.76,5.82-13.36,10.9-9.38s.34,10.91-3.12,14.13a35.38,35.38,0,0,1-24.85,9.42c-8.44-.34-16.09-4.73-19.3-12.71-2.48-6.2-2.4-14.24,2.22-19.45a9.08,9.08,0,0,1,1.58-1.51,2.34,2.34,0,0,1,3.29-.51q2.67-.48,2.19,2c.49,1.82-.55,4.64-1.18,6.39a24.27,24.27,0,0,1-6.82,9.73c-6.76,6-16.11,8.3-24.67,5.23-3.25-1.16-4.64,4-1.42,5.16Z"/><path class="cls-13" d="M1565.16,912c8.46,8.61,21.78,10.57,32.83,6.11a27.59,27.59,0,0,0,13.1-10.56c3-4.64,3.74-11.9-2.94-13.59-11.65-2.94-20.89,9.81-22.47,19.72-2,12.57,5.31,23.52,16.68,28.55,11,4.87,29.13,5.51,38.05-4,3.73-4,4.68-10.31,1.41-14.89-3.83-5.39-10.44-3.87-15.33-.9-11.62,7.06-18.56,21.32-16.11,34.79,2.4,13.15,14.23,24.08,27.62,25,6,.41,13.78-1.82,15.67-8.35,1.59-5.47-1.9-12.19-8.11-11.85-7.25.39-12.59,9.24-15,15.14a36.83,36.83,0,0,0-1.45,24c.91,3.32,6.08,1.91,5.16-1.42a31.1,31.1,0,0,1,5.41-27.64c1.56-2,5.11-6.44,8.09-4,1.74,1.41,1,4.68-.24,6.11-3.28,3.72-9.84,3.07-14.06,1.81-20.1-6-23.22-31.33-9.22-45,2.84-2.79,10.33-9.14,13.58-4s-3.11,9.77-7.19,11.29a35.63,35.63,0,0,1-25.84-.73c-7.6-3.3-13.73-9.91-14.08-18.49-.29-7.2,3-15.53,9.92-18.72,2-1,7.55-2.86,7.3,1.79-.11,2-2.56,4.52-3.89,5.9a23.88,23.88,0,0,1-10.74,6.16c-8.57,2.38-18,.56-24.32-5.87-2.42-2.46-6.2,1.32-3.78,3.78Z"/><path class="cls-15" d="M1683.65,826s18.61,7.07,24.41,23.94l-13.75,13.12s-11.1-18.34-21.69-20.38Z"/><path class="cls-15" d="M2019.74,486.31s19.32-4.8,33.71,5.74l-3.81,18.62s-19.58-8.73-29.44-4.37Z"/><path class="cls-15" d="M2088,884.34s13.91,14.24,12.08,32l-18,6.12s-2.37-21.31-11.11-27.61Z"/><path class="cls-15" d="M1747,648.12s16-11.84,33.32-7.63l3.63,18.66s-21.44-.55-28.87,7.26Z"/><path class="cls-15" d="M1650.55,382.53s16-11.84,33.32-7.63l3.63,18.66s-21.43-.55-28.87,7.26Z"/><path class="cls-13" d="M1566.83,621.23s20.71-43.87,49.86-51.67l14.39,20.25s-24.56,19.71-36.81,45.61Z"/><path class="cls-13" d="M2098.87,687.39s44.64,19,53.56,47.82l-19.68,15.16s-20.64-23.77-47-35Z"/><path class="cls-33" d="M1762.4,754.58s46.26,14.6,57.93,42.44l-18.13,17s-22.84-21.67-50.16-30.31Z"/><path class="cls-33" d="M487.74,400s40.07-34.18,10.51-73.89l-16.05,7.86s17.14,25.78-8.33,52.62Z"/><path class="cls-13" d="M626.26,506.56s50.11,16.23,68.43-29.76l-15.1-9.55s-13,28.11-49.18,20.48Z"/><path class="cls-14" d="M349.33,584.76s24.3,25.71,5.1,45.73l-24.74,11.38s28.07-15.64,3.28-38.21Z"/><path class="cls-15" d="M289.33,647.48s36.92,26.34,68.43-21.25c0,0-28.61,15.48-51.15-6.4Z"/><path class="cls-13" d="M622.22,829.62c-1.87,4.34-8.94,5.55-11.78,1.3-1.58-2.37-.8-5.88-1.39-8.59a11.32,11.32,0,0,0-3.49-6.24c-7.07-6.2-16.62-.38-24.42-3.24-5.45-2-1.71-9.58-1.72-13.77,0-4.87-2.91-8.72-7.8-9.52-6-1-11.32,2.72-17-.92a13.53,13.53,0,0,1-5.54-16.23c1.53-3.88-4.72-5.56-6.23-1.72-3.55,9,1.2,19.62,9.53,24.14,4.69,2.55,9.12,2.21,14.19,1.41,4.17-.65,6.72.17,6.19,4.74-.31,2.56-1.06,5.09-1,7.7.17,9.8,9.2,11.41,17.12,11,3.47-.17,9.07-1.31,12.08,1,3.81,2.88,1.52,10.59,4.69,14.59,5.56,7,18.51,6.06,22.15-2.39,1.63-3.78-3.94-7.08-5.58-3.26Z"/><path class="cls-13" d="M611.62,617.37c11.44,4.11,24.57-.18,32.46-9.22A27.11,27.11,0,0,0,651,592.62c.38-5.18-1.92-11.12-8.13-10.24-11.3,1.59-14.7,16.33-12.71,25.56,2.71,12.59,13.69,20.29,26.31,20.5,12.29.21,28.95-6.79,33.75-19,2.15-5.5.66-12.19-4.79-15.17-5.93-3.24-11.16,1.17-14.3,6-7.45,11.51-7.36,27.94,1.22,38.82,7.93,10.07,22.63,14.79,34.74,10,6-2.33,12.57-8,10.82-15.14-1.43-5.87-8.06-9.73-13.31-5.83-5.45,4-6.37,13.31-6,19.51a37.1,37.1,0,0,0,9.24,22.37c2.26,2.6,6-1.19,3.78-3.78a31.18,31.18,0,0,1-7.06-26.85c.49-2.24,1.13-5.25,3.16-6.61,4.71-3.16,5.59,4,3.92,6.65-2.58,4.16-8.48,5.86-13.09,6.14-19.81,1.21-32-18.93-25.71-36.69,1.33-3.76,5.81-13.36,10.9-9.38s.33,10.91-3.12,14.13a35.39,35.39,0,0,1-24.85,9.42c-8.44-.34-16.1-4.73-19.3-12.71-2.49-6.2-2.41-14.24,2.21-19.45a9.52,9.52,0,0,1,1.59-1.51,2.34,2.34,0,0,1,3.29-.51q2.67-.48,2.19,2c.49,1.82-.55,4.64-1.19,6.39a24.14,24.14,0,0,1-6.81,9.73c-6.76,6-16.11,8.3-24.67,5.23-3.25-1.16-4.65,4-1.42,5.16Z"/><path class="cls-13" d="M294,788.25c8.46,8.61,21.77,10.57,32.83,6.11A27.59,27.59,0,0,0,340,783.8c3-4.64,3.74-11.9-2.94-13.59-11.65-2.94-20.9,9.81-22.48,19.72-2,12.57,5.32,23.52,16.69,28.55,11,4.87,29.12,5.51,38-4,3.73-4,4.68-10.31,1.41-14.89-3.83-5.39-10.44-3.87-15.33-.9-11.63,7.06-18.56,21.32-16.11,34.79,2.4,13.15,14.23,24.08,27.61,25,6.06.41,13.79-1.82,15.68-8.35,1.58-5.47-1.9-12.19-8.11-11.85-7.25.39-12.59,9.24-15.05,15.14a36.76,36.76,0,0,0-1.45,24c.91,3.32,6.07,1.91,5.16-1.42a31.1,31.1,0,0,1,5.41-27.64c1.56-2,5.11-6.44,8.09-4,1.74,1.41,1,4.68-.24,6.11-3.28,3.72-9.84,3.07-14.06,1.81-20.1-6-23.22-31.33-9.22-45,2.84-2.79,10.33-9.14,13.58-4.05s-3.12,9.77-7.19,11.29a35.63,35.63,0,0,1-25.84-.73c-7.61-3.3-13.73-9.91-14.08-18.49-.29-7.2,3-15.53,9.92-18.72,2-1,7.55-2.86,7.3,1.79-.11,2-2.56,4.52-3.9,5.9a23.78,23.78,0,0,1-10.74,6.16c-8.56,2.38-18,.56-24.31-5.87-2.42-2.46-6.2,1.32-3.78,3.78Z"/><path class="cls-15" d="M412.52,702.33s18.6,7.07,24.41,23.94l-13.75,13.12s-11.1-18.34-21.69-20.38Z"/><path class="cls-15" d="M748.61,362.61s19.32-4.81,33.71,5.73L778.51,387s-19.58-8.73-29.45-4.37Z"/><path class="cls-15" d="M816.85,760.63s13.9,14.24,12.08,32l-18,6.12s-2.36-21.31-11.1-27.61Z"/><path class="cls-15" d="M475.84,524.41s16-11.84,33.33-7.63l3.62,18.66s-21.43-.55-28.86,7.26Z"/><path class="cls-15" d="M379.41,258.82s16-11.84,33.33-7.63l3.62,18.66s-21.43-.55-28.86,7.26Z"/><path class="cls-13" d="M295.7,497.52s20.71-43.87,49.86-51.67l14.38,20.25s-24.55,19.71-36.8,45.61Z"/><path class="cls-13" d="M827.74,563.68s44.63,19,53.56,47.82l-19.68,15.16s-20.65-23.77-47-35Z"/><path class="cls-33" d="M491.27,630.87s46.26,14.6,57.92,42.44l-18.12,17S508.22,668.62,480.91,660Z"/><path class="cls-33" d="M1309,149.67s40.08-34.18,10.51-73.88l-16,7.86s17.15,25.78-8.33,52.62Z"/><path class="cls-13" d="M1447.49,256.28s50.11,16.22,68.44-29.76l-15.1-9.55s-13,28.11-49.18,20.47Z"/><path class="cls-14" d="M1170.56,334.47s24.3,25.72,5.11,45.74l-24.74,11.37s28.07-15.64,3.28-38.2Z"/><path class="cls-15" d="M1110.56,397.2s36.93,26.33,68.44-21.26c0,0-28.62,15.49-51.15-6.4Z"/><path class="cls-13" d="M1443.45,579.33c-1.87,4.35-8.93,5.55-11.77,1.3-1.58-2.36-.8-5.88-1.4-8.58a11.3,11.3,0,0,0-3.48-6.24c-7.07-6.21-16.62-.39-24.43-3.24-5.44-2-1.71-9.58-1.71-13.78,0-4.87-2.92-8.72-7.81-9.51-6-1-11.31,2.72-17-.92a13.55,13.55,0,0,1-5.53-16.24c1.52-3.87-4.73-5.55-6.24-1.72-3.54,9,1.21,19.63,9.54,24.15,4.69,2.55,9.11,2.2,14.19,1.41,4.17-.65,6.72.17,6.18,4.73-.3,2.57-1.06,5.1-1,7.71.16,9.79,9.19,11.41,17.12,11,3.46-.17,9.07-1.31,12.08,1,3.8,2.88,1.51,10.6,4.69,14.6,5.56,7,18.51,6,22.15-2.4,1.63-3.78-3.94-7.08-5.59-3.26Z"/><path class="cls-13" d="M1432.85,367.08c11.45,4.11,24.58-.17,32.46-9.21a27.11,27.11,0,0,0,6.89-15.54c.39-5.18-1.91-11.12-8.13-10.24-11.29,1.6-14.7,16.33-12.7,25.57,2.71,12.59,13.69,20.29,26.31,20.5,12.29.2,29-6.8,33.74-19,2.16-5.49.66-12.19-4.78-15.17-5.94-3.24-11.16,1.18-14.3,6-7.45,11.5-7.36,27.93,1.21,38.82,7.94,10.07,22.63,14.78,34.75,10,6-2.33,12.56-8,10.82-15.15-1.43-5.86-8.06-9.73-13.32-5.82-5.44,4-6.36,13.31-6,19.51a37.08,37.08,0,0,0,9.25,22.36c2.26,2.61,6-1.19,3.78-3.78a31.13,31.13,0,0,1-7.07-26.84c.49-2.24,1.14-5.25,3.17-6.62,4.71-3.15,5.59,4,3.92,6.65-2.59,4.16-8.49,5.86-13.1,6.15-19.8,1.21-32-18.94-25.7-36.7,1.33-3.76,5.81-13.35,10.9-9.37s.33,10.91-3.13,14.13A35.4,35.4,0,0,1,1477,372.8c-8.44-.34-16.09-4.73-19.3-12.72-2.48-6.19-2.4-14.23,2.22-19.44a9.13,9.13,0,0,1,1.58-1.52,2.34,2.34,0,0,1,3.29-.51q2.67-.48,2.2,2c.49,1.81-.55,4.63-1.19,6.38a24.21,24.21,0,0,1-6.81,9.74c-6.76,6-16.12,8.3-24.68,5.23-3.24-1.17-4.64,4-1.42,5.15Z"/><path class="cls-13" d="M1115.26,538c8.47,8.61,21.78,10.57,32.83,6.11a27.72,27.72,0,0,0,13.11-10.56c3-4.65,3.74-11.9-3-13.59-11.64-2.94-20.89,9.81-22.47,19.71-2,12.57,5.32,23.53,16.68,28.55,11,4.88,29.13,5.51,38.06-4,3.72-4,4.67-10.3,1.41-14.89-3.84-5.38-10.44-3.87-15.34-.9-11.62,7.07-18.56,21.32-16.1,34.8,2.4,13.15,14.22,24.07,27.61,25,6.06.41,13.79-1.82,15.68-8.35,1.58-5.47-1.9-12.19-8.11-11.86-7.25.39-12.6,9.24-15.05,15.14a36.8,36.8,0,0,0-1.45,24c.91,3.31,6.07,1.9,5.16-1.43a31.1,31.1,0,0,1,5.4-27.64c1.56-1.95,5.11-6.43,8.09-4,1.74,1.41,1,4.68-.24,6.1-3.27,3.72-9.83,3.07-14,1.82-20.1-6-23.22-31.34-9.23-45,2.85-2.78,10.33-9.14,13.58-4s-3.11,9.76-7.19,11.28a35.55,35.55,0,0,1-25.83-.72c-7.61-3.3-13.74-9.92-14.08-18.49-.29-7.2,3-15.54,9.91-18.73,2-.94,7.56-2.85,7.3,1.79-.11,2-2.56,4.53-3.89,5.9a23.78,23.78,0,0,1-10.74,6.16c-8.57,2.39-18,.56-24.32-5.87-2.41-2.46-6.19,1.33-3.78,3.79Z"/><path class="cls-15" d="M1233.75,452.05s18.61,7.07,24.42,23.93l-13.75,13.12s-11.11-18.33-21.7-20.38Z"/><path class="cls-15" d="M1569.85,112.32s19.31-4.81,33.7,5.73l-3.81,18.62s-19.58-8.72-29.44-4.36Z"/><path class="cls-15" d="M1638.08,510.34s13.91,14.24,12.08,32l-18,6.12s-2.36-21.31-11.11-27.62Z"/><path class="cls-15" d="M1297.08,274.13s16-11.85,33.33-7.63l3.62,18.66s-21.43-.55-28.87,7.25Z"/><path class="cls-15" d="M1200.65,8.54s16-11.85,33.33-7.63l3.62,18.65s-21.43-.55-28.87,7.26Z"/><path class="cls-13" d="M1116.93,247.23s20.71-43.86,49.86-51.67l14.39,20.26s-24.56,19.71-36.81,45.61Z"/><path class="cls-13" d="M1649,313.39s44.63,19,53.56,47.83l-19.68,15.16s-20.65-23.78-47-35Z"/><path class="cls-33" d="M1312.51,380.59s46.25,14.6,57.92,42.43l-18.13,17s-22.84-21.67-50.16-30.32Z"/><path class="cls-33" d="M460.84,1336.8s60.53-19.81,45.72-77.8L485,1260.41s7.32,36.71-33.5,55Z"/><path class="cls-33" d="M180.59,747.13s-33.66-52.52-75.26-23l7.51,20.2s26.95-16.72,53.57,17.39Z"/><path class="cls-14" d="M370.37,1226.92s-8.88,41.84-42,36.5l-28.31-16.79s34.84,17.18,40.26-23Z"/><path class="cls-15" d="M266.74,1210.33s-.83,54.83,68.17,53.48c0,0-35.07-17.83-28.78-55.29Z"/><path class="cls-13" d="M540.8,1471.8c4.62.9,7.17,7.77,3.55,11.28-1.9,1.84-5.3,2-7.69,3a11.44,11.44,0,0,0-5.3,4.23c-5.05,7.86,2,16.39,1.72,24.48-.23,6-7.5,4.52-11.71,5.11-4.51.62-8.29,3-9,7.83-.88,6,4.45,10.86,3.22,16.92-1.3,6.42-7.89,11.94-14.55,10.87-4.07-.65-5.83,5.58-1.72,6.24A20.16,20.16,0,0,0,521.69,1547c1.57-5.85-.81-9.72-2.32-15.17-1.28-4.61.84-5.41,4.8-5.66a39.26,39.26,0,0,0,7.18-.7c9.34-2.41,8.72-11.67,6.7-19.16-.91-3.36-3.2-8.55-1.54-12,2-4.13,9.84-3.64,13-7.34,6-7,2.09-19.63-7-21.4-4.07-.78-5.81,5.45-1.72,6.24Z"/><path class="cls-13" d="M106.82,1426c9.65-7.62,12.83-21.31,9.14-32.82a26.82,26.82,0,0,0-9.48-13.64c-4.22-3.06-10.62-4.13-13,1.7-4.67,11.39,7.64,22.37,17.46,24.88,12.49,3.18,24.26-3.41,30.24-14.44,5.6-10.32,8.11-28.16-.53-37.66-3.64-4-9.88-5.6-14.71-2.68-5.41,3.27-4.72,9.59-2.46,14.63,5.62,12.51,19.4,21.42,33.24,20.17,13.25-1.2,25.48-11.63,27.63-25,1-6.18-.61-14.4-7.42-16.51-5.27-1.63-11.78,1.24-11.89,7.32-.14,7.45,8.44,13.81,14.33,16.83a37.08,37.08,0,0,0,23.08,3.48c3.39-.54,1.95-5.7-1.42-5.16a31.09,31.09,0,0,1-26.58-8.4c-1.83-1.81-5.64-5.77-3.11-8.2,2.15-2.06,5.25-.77,6.69,1.51,2.67,4.24,1,10.58-1.06,14.71-9.38,18.28-34.25,17.8-45.73,2-2.38-3.27-7.29-11.39-1.28-13.34,5.53-1.8,8.81,4.6,9.86,8.86a35.56,35.56,0,0,1-3.57,25.28c-4.1,7.22-11.36,12.62-19.94,12-7.37-.5-15.5-5-17.69-12.44-.57-2-1.46-6.66,1.75-6.85,2-.11,4.73,2.9,5.94,4.27a23.85,23.85,0,0,1,5.38,11.5c1.64,9.05-1.37,18.41-8.64,24.15-2.7,2.13,1.11,5.89,3.78,3.78Z"/><path class="cls-15" d="M344.37,1130.15c4.12-4.5,11.67-11.73,18.14-7.43,3.75,2.49,5.7,7.29,8.47,10.71,5.81,7.19,13.39,6,19-.7,2.56-3.08,5.42-8.63,8.3-3,2.15,4.21,4.13,7.64,8.89,9.24s9.91.89,14.78.24c4.55-.62,13-1.62,15,3.94,1.41,3.89,7.66,2.21,6.24-1.72-4.55-12.6-18.83-8-28.83-8-3.6,0-6.91-.56-9-3.79-1.4-2.2-1.91-4.84-3.8-6.76-3.13-3.16-7.49-3.2-10.95-.63-3.31,2.47-5.69,9-10,9.75s-7.88-7.49-10.07-10.29c-9.26-11.84-22.27-5.55-30.8,3.77-2.8,3.07,1.76,7.65,4.57,4.58Z"/><path class="cls-15" d="M0,1102.73s17-10.4,33.87-4.67l2,18.9s-21.3-2.43-29.4,4.69Z"/><path class="cls-15" d="M304.35,1415.25s3.24,19.64-8.42,33.13l-18.25-5.29s10.27-18.81,6.71-29Z"/><path class="cls-13" d="M402.75,1412.78s19.46-14.15,40.37-8.88l4.19,22.6s-25.91-.89-35,8.47Z"/><path class="cls-13" d="M73.17,1033.17s20.83-43.8,50-51.52l14.33,20.29s-24.61,19.64-36.94,45.51Z"/><path class="cls-13" d="M1707.49,613.84h0c65.43-213.6,561.51-45.49,498.42,160.49h0c-25.2,82.26-124.15,123.65-221,92.46l-30.7-9.89c-128-33.31-140.28,36.57-140.28,36.57C1648.27,767.51,1707.49,613.84,1707.49,613.84Z"/><path class="cls-13" d="M1817.15,900.81l-5.94-4.5c-86.84-66-111.59-139.74-117.06-189.94-5.82-53.44,8-91.26,9.06-94,33.94-110.54,179-119.15,299.41-80.37,127.67,41.11,240,138,207.6,243.74-25.77,84.14-127.36,126.63-226.45,94.73l-30.55-9.84c-46.57-12.1-82.6-11.77-107.09,1-23.81,12.4-27.78,32.69-27.82,32.89ZM2000.38,539.3c-116.31-37.46-256.23-29.67-288.58,75.93l-.07.22c-.15.37-14.5,38.54-8.67,91.34,5.24,47.51,28.39,116.81,108.23,179.72,3-7.87,10.76-21.83,29.51-31.67,26.56-13.93,65-14.5,114.22-1.68l.3.08,30.69,9.89c94.34,30.37,191-10.08,215.59-90.19C2232.5,672,2123.76,579,2000.38,539.3Z"/><path class="cls-27" d="M1786.52,705.55q-8.37-15.6-1-37.5l1.78-5.24,37.5,10.93-1.71,5q-3.69,11.69-2,17.73t10.71,8.68q9,2.63,13.92-1.6t8.83-15.83q4.13-12.18,1.37-19.45t-15.11-11.09a54.15,54.15,0,0,0-6.51-2.11L1841.5,634l5.85,1.7q12.9,3.76,19.54-.06t10.7-15.8q3.3-9.73,1.35-15.44T1868,596q-8.77-2.55-13.64,1.58t-8.48,14l-2.28,6.74-37.5-10.94,2.79-8.23q6.7-19.85,24.26-26.66t42.64.5q25.32,7.39,35.66,21.92t3.68,34.18Q1910.75,642,1900.76,649a32.36,32.36,0,0,1-21.7,6q22.44,14.36,12.75,43-7.41,21.91-24.29,30.66t-44.39.74Q1794.88,721.16,1786.52,705.55Z"/><path class="cls-27" d="M1917.37,743.8q-9.49-15.82-2.71-35.85l23-68q7-20.78,24.2-28.83t43.72-.32q26.3,7.67,35.42,23.39t2.1,36.5l-23,68q-6.71,19.84-24.4,27.84t-43,.63Q1926.87,759.63,1917.37,743.8ZM1982.05,727l22.61-66.83q2.85-8.43,1.95-14.86t-9.67-9q-9.26-2.7-13.8,2.05t-7.46,13.35l-22.6,66.83q-6.4,18.91,8.21,23.17Q1975.66,745.89,1982.05,727Z"/><path class="cls-27" d="M1761.19,723.49l24.44,7.13-2.1,6.21-12.72-3.71-4,12,10.79,3.15-2.14,6.32-10.79-3.15-6.77,20L1746.13,768Z"/><path class="cls-27" d="M1792.28,732.56l15,4.37q9.36,2.73,13.19,6.75t1.63,10.49a15,15,0,0,1-3.94,6.55,10.82,10.82,0,0,1-6.94,2.42l.66,24-12.08-3.52.25-22.09-4.29-1.25L1789,780.49l-11.73-3.42Zm8.81,23.4c2.77.8,4.89.85,6.36.13a7.12,7.12,0,0,0,3.34-4.43c.75-2.2.79-4,.14-5.27s-2.29-2.36-4.92-3.13l-4.07-1.18-4.35,12.86Z"/><path class="cls-27" d="M1834.67,744.92l25.23,7.35-2.12,6.27-13.51-3.94-4,11.81,10.43,3.05-2.13,6.32-10.44-3-4.72,14,13.65,4-2.08,6.16-25.38-7.4Z"/><path class="cls-27" d="M1866.77,754.27l25.23,7.36-2.12,6.26L1876.37,764l-4,11.81,10.44,3-2.14,6.32-10.43-3-4.73,14,13.66,4-2.09,6.16-25.37-7.4Z"/><path class="cls-27" d="M1920.61,777.34l-8.93-2.61,2.26-6.7,29.6,8.63-2.27,6.7-8.79-2.56-12.79,37.81-11.87-3.46Z"/><path class="cls-27" d="M1949.47,778.39l15,4.37q9.38,2.73,13.19,6.74t1.63,10.5a15,15,0,0,1-3.94,6.55,10.82,10.82,0,0,1-6.94,2.41l.66,24L1957,829.48l.25-22.08-4.29-1.25-6.82,20.17-11.73-3.42Zm8.81,23.39c2.77.81,4.89.85,6.36.14a7.12,7.12,0,0,0,3.34-4.43c.75-2.2.79-4,.14-5.28s-2.29-2.36-4.91-3.12l-4.08-1.19-4.35,12.86Z"/><path class="cls-27" d="M1992,790.78l11.73,3.42-15.06,44.52-11.73-3.42Z"/><path class="cls-27" d="M2021.6,799.41l13.08,3.82L2030.77,851l-10.86-3.17,1.16-10.4-9.15-2.67-5.53,9.13-11.07-3.23Zm.22,32.07,2.56-18.94-9.49,16.92Z"/><path class="cls-27" d="M2052.41,808.39l11.72,3.42-13,38.36,13.66,4-2.09,6.16-25.37-7.4Z"/><path class="cls-27" d="M2016,780.21l3.92-9.92a17.49,17.49,0,0,1,4.88-7.4,10.79,10.79,0,0,1,6.93-2.29,31.62,31.62,0,0,1,10,2l19.22,6.55a32.66,32.66,0,0,1,9.26,4.52,9.64,9.64,0,0,1,3.87,5.92q.66,3.46-1.32,8.47l-4,10.12Zm49.23,5.41a5.07,5.07,0,0,0,.38-3.48,4.12,4.12,0,0,0-2.06-2.18,34.14,34.14,0,0,0-4.78-1.94l-21.82-7.43a24,24,0,0,0-4.65-1.22,4.1,4.1,0,0,0-2.81.55,6,6,0,0,0-2,2.9l-.69,1.75,37.72,12.85Z"/><path class="cls-27" d="M2035.78,730.08l3.62-9.17,55.86,10.17-3,7.61-12.19-2.44-2.54,6.41,11,5.5-3.07,7.76Zm37.32,4.7L2050.89,730l20.28,9.64Z"/><path class="cls-27" d="M2083.69,700.32l-35-2.94,3.07-7.77,20.29,2-17-10.33,3-7.56,28.76,18.67,20.91,7.12-3.15,8Z"/><path class="cls-27" d="M2116,669.26q-5.11,1.44-13.62-1.17l1.25-7.64a23.4,23.4,0,0,0,7.82,1.44c1.84-.11,3-.82,3.53-2.12a2.24,2.24,0,0,0-.37-2.51,6.48,6.48,0,0,0-2.84-1.71,12.77,12.77,0,0,0-5.73-.73,25,25,0,0,0-6.12,1.75l-6.42,2.58a23.38,23.38,0,0,1-7.38,1.84,20.54,20.54,0,0,1-8-1.23q-6.45-2.21-8.77-6.31t-.29-9.28q2.17-5.5,7.17-6.25a27.21,27.21,0,0,1,11.49,1.13l-1.47,7.63a25.82,25.82,0,0,0-6.44-1.38,2.81,2.81,0,0,0-3,1.81,2.36,2.36,0,0,0,.51,2.55,6.27,6.27,0,0,0,2.86,1.83,10.64,10.64,0,0,0,4.74.62,20.23,20.23,0,0,0,5-1.43l6.32-2.51a31.56,31.56,0,0,1,8.8-2.17,22.24,22.24,0,0,1,9.29,1.29,16.81,16.81,0,0,1,6.22,3.6,10.86,10.86,0,0,1,3.21,5.26,9.68,9.68,0,0,1-.48,6.07Q2121.08,667.83,2116,669.26Z"/></svg>