<svg xmlns="http://www.w3.org/2000/svg" xmlns:xlink="http://www.w3.org/1999/xlink" viewBox="0 0 500 500"><defs><style>.cls-1,.cls-12,.cls-94,.cls-96{fill:none;}.cls-2{isolation:isolate;}.cls-3{fill:#fff;}.cls-4{fill:url(#linear-gradient);}.cls-100,.cls-101,.cls-102,.cls-103,.cls-105,.cls-108,.cls-117,.cls-118,.cls-119,.cls-12,.cls-120,.cls-121,.cls-5,.cls-6,.cls-84,.cls-90,.cls-91,.cls-96,.cls-97,.cls-98,.cls-99{mix-blend-mode:overlay;}.cls-5{fill:url(#linear-gradient-2);}.cls-12,.cls-6{opacity:0.25;}.cls-7{clip-path:url(#clip-path);}.cls-8{fill:url(#linear-gradient-3);}.cls-9{fill:url(#linear-gradient-4);}.cls-10{fill:url(#linear-gradient-5);}.cls-11{fill:url(#linear-gradient-6);}.cls-12,.cls-96{stroke:#fff;}.cls-12,.cls-94,.cls-96{stroke-miterlimit:10;stroke-width:0.57px;}.cls-13{fill:url(#linear-gradient-7);}.cls-14{clip-path:url(#clip-path-2);}.cls-15{fill:url(#linear-gradient-8);}.cls-16{fill:url(#linear-gradient-9);}.cls-17{fill:url(#linear-gradient-10);}.cls-18{fill:url(#linear-gradient-11);}.cls-19{fill:url(#linear-gradient-12);}.cls-20{clip-path:url(#clip-path-3);}.cls-21{fill:url(#linear-gradient-13);}.cls-22{fill:url(#linear-gradient-14);}.cls-23{clip-path:url(#clip-path-4);}.cls-24{fill:url(#linear-gradient-15);}.cls-25{fill:url(#linear-gradient-16);}.cls-26{fill:url(#linear-gradient-17);}.cls-27{fill:url(#linear-gradient-18);}.cls-28{fill:url(#linear-gradient-19);}.cls-29{fill:url(#linear-gradient-20);}.cls-30{fill:url(#linear-gradient-21);}.cls-31{fill:url(#linear-gradient-22);}.cls-32{fill:url(#linear-gradient-23);}.cls-33{fill:url(#linear-gradient-24);}.cls-34{fill:url(#linear-gradient-25);}.cls-35{fill:url(#linear-gradient-26);}.cls-36{fill:url(#linear-gradient-27);}.cls-37{fill:url(#linear-gradient-28);}.cls-38{fill:url(#linear-gradient-29);}.cls-39{fill:url(#linear-gradient-30);}.cls-40{fill:url(#linear-gradient-31);}.cls-41{fill:url(#linear-gradient-32);}.cls-42{fill:url(#linear-gradient-33);}.cls-43{fill:url(#linear-gradient-34);}.cls-44{fill:url(#linear-gradient-35);}.cls-45{fill:url(#linear-gradient-36);}.cls-46{fill:url(#linear-gradient-37);}.cls-47{fill:url(#linear-gradient-38);}.cls-48{fill:url(#linear-gradient-39);}.cls-49{fill:url(#linear-gradient-40);}.cls-50{fill:url(#linear-gradient-41);}.cls-51{fill:url(#linear-gradient-42);}.cls-52{fill:url(#linear-gradient-43);}.cls-53{fill:url(#linear-gradient-44);}.cls-54{fill:url(#linear-gradient-45);}.cls-55{fill:url(#linear-gradient-46);}.cls-56{fill:url(#linear-gradient-47);}.cls-57{fill:url(#linear-gradient-48);}.cls-58{fill:url(#linear-gradient-49);}.cls-59{fill:url(#linear-gradient-50);}.cls-60{fill:url(#linear-gradient-51);}.cls-61{fill:url(#linear-gradient-52);}.cls-62{fill:url(#linear-gradient-53);}.cls-63{fill:url(#linear-gradient-54);}.cls-64{fill:url(#linear-gradient-55);}.cls-65{fill:url(#linear-gradient-56);}.cls-66{fill:url(#linear-gradient-57);}.cls-67{fill:url(#linear-gradient-58);}.cls-68{fill:url(#linear-gradient-59);}.cls-69{fill:url(#linear-gradient-60);}.cls-70{fill:url(#linear-gradient-61);}.cls-71{fill:url(#linear-gradient-62);}.cls-72{fill:url(#linear-gradient-63);}.cls-73{fill:url(#linear-gradient-64);}.cls-74{fill:url(#linear-gradient-65);}.cls-75{fill:url(#linear-gradient-66);}.cls-76{fill:url(#linear-gradient-67);}.cls-77{fill:url(#linear-gradient-68);}.cls-78{fill:url(#linear-gradient-69);}.cls-79{fill:url(#linear-gradient-70);}.cls-80{fill:url(#linear-gradient-71);}.cls-81{fill:url(#linear-gradient-72);}.cls-82{fill:url(#linear-gradient-73);}.cls-83{fill:url(#linear-gradient-74);}.cls-101,.cls-102,.cls-103,.cls-117,.cls-118,.cls-119,.cls-120,.cls-121,.cls-84,.cls-90,.cls-91,.cls-97,.cls-98,.cls-99{opacity:0.45;}.cls-84{fill:url(#linear-gradient-75);}.cls-85{fill:url(#linear-gradient-76);}.cls-86{fill:#ce4d34;}.cls-87{fill:url(#linear-gradient-77);}.cls-88{fill:url(#linear-gradient-78);}.cls-89{fill:url(#linear-gradient-79);}.cls-90{fill:url(#linear-gradient-80);}.cls-91{fill:url(#linear-gradient-81);}.cls-92{fill:url(#linear-gradient-82);}.cls-93{fill:url(#linear-gradient-83);}.cls-94{stroke:#f98267;}.cls-95{clip-path:url(#clip-path-5);}.cls-108,.cls-96{opacity:0.33;}.cls-97{fill:url(#linear-gradient-84);}.cls-98{fill:url(#linear-gradient-85);}.cls-99{fill:url(#linear-gradient-86);}.cls-100,.cls-105{opacity:0.92;}.cls-100{fill:url(#linear-gradient-87);}.cls-101{fill:url(#linear-gradient-88);}.cls-102{fill:url(#linear-gradient-89);}.cls-103{fill:url(#linear-gradient-90);}.cls-104{fill:url(#linear-gradient-91);}.cls-105{fill:url(#linear-gradient-92);}.cls-106{clip-path:url(#clip-path-6);}.cls-107{clip-path:url(#clip-path-7);}.cls-109{fill:url(#linear-gradient-93);}.cls-110{fill:url(#linear-gradient-94);}.cls-111{fill:url(#linear-gradient-95);}.cls-112{fill:url(#linear-gradient-96);}.cls-113{fill:url(#linear-gradient-97);}.cls-114{fill:url(#linear-gradient-98);}.cls-115{fill:url(#linear-gradient-99);}.cls-116{clip-path:url(#clip-path-8);}.cls-117{fill:url(#linear-gradient-100);}.cls-118{fill:url(#linear-gradient-101);}.cls-119{fill:url(#linear-gradient-102);}.cls-120{fill:url(#linear-gradient-103);}.cls-121{fill:url(#linear-gradient-104);}</style><linearGradient id="linear-gradient" x1="212.29" y1="76.87" x2="311.68" y2="365.38" gradientUnits="userSpaceOnUse"><stop offset="0" stop-color="#214b5b"/><stop offset="1" stop-color="#123344"/></linearGradient><linearGradient id="linear-gradient-2" x1="177.09" y1="-896.77" x2="296.71" y2="626.66" gradientUnits="userSpaceOnUse"><stop offset="0" stop-color="#fff"/><stop offset="1" stop-color="#fff" stop-opacity="0"/></linearGradient><clipPath id="clip-path"><path class="cls-1" d="M78.09,317.77a134.76,134.76,0,0,1-9.67-23.12c-11-35.21-7-72.49,5.87-103.75l49.33-5.34L173,197.68C184.46,268.46,111.5,304.94,78.09,317.77Z"/></clipPath><linearGradient id="linear-gradient-3" x1="-106.04" y1="261.28" x2="-174.64" y2="114.38" gradientTransform="matrix(-0.91, -0.42, -0.42, 0.91, 49.9, 55.02)" gradientUnits="userSpaceOnUse"><stop offset="0" stop-color="#7fb3ff"/><stop offset="1" stop-color="#fff"/></linearGradient><linearGradient id="linear-gradient-4" x1="-103.75" y1="260.21" x2="-172.36" y2="113.32" xlink:href="#linear-gradient-3"/><linearGradient id="linear-gradient-5" x1="-105.56" y1="261.05" x2="-174.17" y2="114.17" xlink:href="#linear-gradient-3"/><linearGradient id="linear-gradient-6" x1="18.3" y1="168.59" x2="-26.85" y2="107.31" gradientTransform="translate(169.88 188.31) rotate(49.63)" gradientUnits="userSpaceOnUse"><stop offset="0" stop-color="#2f516b"/><stop offset="1" stop-color="#4b77bd"/></linearGradient><linearGradient id="linear-gradient-7" x1="79.69" y1="279.42" x2="74.41" y2="116.99" gradientTransform="translate(61.38 62.38) rotate(15.1)" gradientUnits="userSpaceOnUse"><stop offset="0" stop-color="#b7d389"/><stop offset="1" stop-color="#79f9bf"/></linearGradient><clipPath id="clip-path-2"><path class="cls-1" d="M459.24,263.9a150.28,150.28,0,0,1-15.31,29c-8.24,12.11-17.94,22.28-28.3,29.58a50.76,50.76,0,0,1-15,7.64c-10.73-13.3-49.85-61.88-50.36-64.26-.59-2.75,34.59-82.25,34.59-82.25l41,20.57,4.44-44,23.55-8.41,2,1.16C475.05,188.81,472.77,229.88,459.24,263.9Z"/></clipPath><linearGradient id="linear-gradient-8" x1="463.02" y1="342.05" x2="394.42" y2="195.16" gradientTransform="matrix(1, 0, 0, 1, 0, 0)" xlink:href="#linear-gradient-3"/><linearGradient id="linear-gradient-9" x1="465.31" y1="340.99" x2="396.7" y2="194.1" gradientTransform="matrix(1, 0, 0, 1, 0, 0)" xlink:href="#linear-gradient-3"/><linearGradient id="linear-gradient-10" x1="463.5" y1="341.83" x2="394.89" y2="194.94" gradientTransform="matrix(1, 0, 0, 1, 0, 0)" xlink:href="#linear-gradient-3"/><linearGradient id="linear-gradient-11" x1="446.38" y1="347.64" x2="401.23" y2="286.36" gradientTransform="matrix(1, 0, 0, 1, 0, 0)" xlink:href="#linear-gradient-6"/><linearGradient id="linear-gradient-12" x1="452.75" y1="326.63" x2="447.47" y2="164.2" gradientTransform="matrix(1, 0, 0, 1, 0, 0)" xlink:href="#linear-gradient-7"/><clipPath id="clip-path-3"><path class="cls-1" d="M378.84,269.05c-3.67,9.93-2.13,41.41-.27,65.88-1.35.33-2.76.68-4.25,1.07-8,2-18.13,5-31.67,9.77A395.56,395.56,0,0,0,301,362.92c-2-28.53-6.27-64.23-11.2-69.8-11.08-12.5-25.91-42.61-37.61-62.43s-29.89-34.14-26.37-54.07,29.91-3.52,51.35,1.17c13.52,3,16.85,12.91,17,18.84,5-6.58,21-16.94,39.77-11.95,23.71,6.3-19.6-40.9-20.89-64.95s29.43-10.55,52.12,7,1.35,24.63,17.77,50.43S387.63,245.22,378.84,269.05Z"/></clipPath><linearGradient id="linear-gradient-13" x1="259.4" y1="180.35" x2="272.2" y2="216.77" gradientUnits="userSpaceOnUse"><stop offset="0" stop-color="#ffe0c2"/><stop offset="1" stop-color="#f98267"/></linearGradient><linearGradient id="linear-gradient-14" x1="373.19" y1="435.71" x2="314.55" y2="227.54" gradientTransform="matrix(1, 0, 0, 1, 0, 0)" xlink:href="#linear-gradient-6"/><clipPath id="clip-path-4"><path class="cls-1" d="M356,359.69c-8.59,3.13-18.69,4.9-27.82,2.85,1-25.38-4.38-69.21-5.37-83.11-.6-8.42,0-14.11.84-17.72a16.88,16.88,0,0,1,1.85-5.29c.53-.16,1.07-.33,1.61-.52a78,78,0,0,0,15.36-7.36,15.16,15.16,0,0,1,1.76,2.37c2,3.14,5,9.57,5.73,20.2C350.94,285.78,357.75,336.74,356,359.69Z"/></clipPath><linearGradient id="linear-gradient-15" x1="336.03" y1="275.44" x2="335.28" y2="273.16" gradientUnits="userSpaceOnUse"><stop offset="0" stop-color="#2a1944"/><stop offset="1"/></linearGradient><linearGradient id="linear-gradient-16" x1="343.43" y1="275.44" x2="342.68" y2="273.16" xlink:href="#linear-gradient-15"/><linearGradient id="linear-gradient-17" x1="350.84" y1="275.44" x2="350.09" y2="273.16" xlink:href="#linear-gradient-15"/><linearGradient id="linear-gradient-18" x1="358.24" y1="275.44" x2="357.49" y2="273.16" xlink:href="#linear-gradient-15"/><linearGradient id="linear-gradient-19" x1="365.65" y1="275.44" x2="364.9" y2="273.16" xlink:href="#linear-gradient-15"/><linearGradient id="linear-gradient-20" x1="336.03" y1="281.61" x2="335.28" y2="279.33" xlink:href="#linear-gradient-15"/><linearGradient id="linear-gradient-21" x1="343.43" y1="281.61" x2="342.68" y2="279.33" xlink:href="#linear-gradient-15"/><linearGradient id="linear-gradient-22" x1="350.84" y1="281.61" x2="350.09" y2="279.33" xlink:href="#linear-gradient-15"/><linearGradient id="linear-gradient-23" x1="358.24" y1="281.61" x2="357.49" y2="279.33" xlink:href="#linear-gradient-15"/><linearGradient id="linear-gradient-24" x1="365.65" y1="281.61" x2="364.9" y2="279.33" xlink:href="#linear-gradient-15"/><linearGradient id="linear-gradient-25" x1="336.03" y1="287.78" x2="335.28" y2="285.5" xlink:href="#linear-gradient-15"/><linearGradient id="linear-gradient-26" x1="343.43" y1="287.78" x2="342.68" y2="285.5" xlink:href="#linear-gradient-15"/><linearGradient id="linear-gradient-27" x1="350.84" y1="287.78" x2="350.09" y2="285.5" xlink:href="#linear-gradient-15"/><linearGradient id="linear-gradient-28" x1="358.24" y1="287.78" x2="357.49" y2="285.5" xlink:href="#linear-gradient-15"/><linearGradient id="linear-gradient-29" x1="365.65" y1="287.78" x2="364.9" y2="285.5" xlink:href="#linear-gradient-15"/><linearGradient id="linear-gradient-30" x1="336.03" y1="293.95" x2="335.28" y2="291.67" xlink:href="#linear-gradient-15"/><linearGradient id="linear-gradient-31" x1="343.43" y1="293.95" x2="342.68" y2="291.67" xlink:href="#linear-gradient-15"/><linearGradient id="linear-gradient-32" x1="350.84" y1="293.95" x2="350.09" y2="291.67" xlink:href="#linear-gradient-15"/><linearGradient id="linear-gradient-33" x1="358.24" y1="293.95" x2="357.49" y2="291.67" xlink:href="#linear-gradient-15"/><linearGradient id="linear-gradient-34" x1="365.65" y1="293.95" x2="364.9" y2="291.67" xlink:href="#linear-gradient-15"/><linearGradient id="linear-gradient-35" x1="336.03" y1="300.12" x2="335.28" y2="297.84" xlink:href="#linear-gradient-15"/><linearGradient id="linear-gradient-36" x1="343.43" y1="300.12" x2="342.68" y2="297.84" xlink:href="#linear-gradient-15"/><linearGradient id="linear-gradient-37" x1="350.84" y1="300.12" x2="350.09" y2="297.84" xlink:href="#linear-gradient-15"/><linearGradient id="linear-gradient-38" x1="358.24" y1="300.12" x2="357.49" y2="297.84" xlink:href="#linear-gradient-15"/><linearGradient id="linear-gradient-39" x1="365.65" y1="300.12" x2="364.9" y2="297.84" xlink:href="#linear-gradient-15"/><linearGradient id="linear-gradient-40" x1="336.03" y1="306.3" x2="335.28" y2="304.01" xlink:href="#linear-gradient-15"/><linearGradient id="linear-gradient-41" x1="343.43" y1="306.3" x2="342.68" y2="304.01" xlink:href="#linear-gradient-15"/><linearGradient id="linear-gradient-42" x1="350.84" y1="306.3" x2="350.09" y2="304.01" xlink:href="#linear-gradient-15"/><linearGradient id="linear-gradient-43" x1="358.24" y1="306.3" x2="357.49" y2="304.01" xlink:href="#linear-gradient-15"/><linearGradient id="linear-gradient-44" x1="365.65" y1="306.3" x2="364.9" y2="304.01" xlink:href="#linear-gradient-15"/><linearGradient id="linear-gradient-45" x1="313.52" y1="319.75" x2="312.77" y2="317.47" xlink:href="#linear-gradient-15"/><linearGradient id="linear-gradient-46" x1="320.92" y1="319.75" x2="320.17" y2="317.47" xlink:href="#linear-gradient-15"/><linearGradient id="linear-gradient-47" x1="328.33" y1="319.75" x2="327.58" y2="317.47" xlink:href="#linear-gradient-15"/><linearGradient id="linear-gradient-48" x1="335.73" y1="319.75" x2="334.98" y2="317.47" xlink:href="#linear-gradient-15"/><linearGradient id="linear-gradient-49" x1="343.14" y1="319.75" x2="342.39" y2="317.47" xlink:href="#linear-gradient-15"/><linearGradient id="linear-gradient-50" x1="313.52" y1="325.92" x2="312.77" y2="323.64" xlink:href="#linear-gradient-15"/><linearGradient id="linear-gradient-51" x1="320.92" y1="325.92" x2="320.17" y2="323.64" xlink:href="#linear-gradient-15"/><linearGradient id="linear-gradient-52" x1="328.33" y1="325.92" x2="327.58" y2="323.64" xlink:href="#linear-gradient-15"/><linearGradient id="linear-gradient-53" x1="335.73" y1="325.92" x2="334.98" y2="323.64" xlink:href="#linear-gradient-15"/><linearGradient id="linear-gradient-54" x1="343.14" y1="325.92" x2="342.39" y2="323.64" xlink:href="#linear-gradient-15"/><linearGradient id="linear-gradient-55" x1="313.52" y1="332.09" x2="312.77" y2="329.81" xlink:href="#linear-gradient-15"/><linearGradient id="linear-gradient-56" x1="320.92" y1="332.09" x2="320.17" y2="329.81" xlink:href="#linear-gradient-15"/><linearGradient id="linear-gradient-57" x1="328.33" y1="332.09" x2="327.58" y2="329.81" xlink:href="#linear-gradient-15"/><linearGradient id="linear-gradient-58" x1="335.73" y1="332.09" x2="334.98" y2="329.81" xlink:href="#linear-gradient-15"/><linearGradient id="linear-gradient-59" x1="343.14" y1="332.09" x2="342.39" y2="329.81" xlink:href="#linear-gradient-15"/><linearGradient id="linear-gradient-60" x1="313.52" y1="338.26" x2="312.77" y2="335.98" xlink:href="#linear-gradient-15"/><linearGradient id="linear-gradient-61" x1="320.92" y1="338.26" x2="320.17" y2="335.98" xlink:href="#linear-gradient-15"/><linearGradient id="linear-gradient-62" x1="328.33" y1="338.26" x2="327.58" y2="335.98" xlink:href="#linear-gradient-15"/><linearGradient id="linear-gradient-63" x1="335.73" y1="338.26" x2="334.98" y2="335.98" xlink:href="#linear-gradient-15"/><linearGradient id="linear-gradient-64" x1="343.14" y1="338.26" x2="342.39" y2="335.98" xlink:href="#linear-gradient-15"/><linearGradient id="linear-gradient-65" x1="313.52" y1="344.43" x2="312.77" y2="342.15" xlink:href="#linear-gradient-15"/><linearGradient id="linear-gradient-66" x1="320.92" y1="344.43" x2="320.17" y2="342.15" xlink:href="#linear-gradient-15"/><linearGradient id="linear-gradient-67" x1="328.33" y1="344.43" x2="327.58" y2="342.15" xlink:href="#linear-gradient-15"/><linearGradient id="linear-gradient-68" x1="335.73" y1="344.43" x2="334.98" y2="342.15" xlink:href="#linear-gradient-15"/><linearGradient id="linear-gradient-69" x1="343.14" y1="344.43" x2="342.39" y2="342.15" xlink:href="#linear-gradient-15"/><linearGradient id="linear-gradient-70" x1="313.52" y1="350.61" x2="312.77" y2="348.32" xlink:href="#linear-gradient-15"/><linearGradient id="linear-gradient-71" x1="320.92" y1="350.61" x2="320.17" y2="348.32" xlink:href="#linear-gradient-15"/><linearGradient id="linear-gradient-72" x1="328.33" y1="350.61" x2="327.58" y2="348.32" xlink:href="#linear-gradient-15"/><linearGradient id="linear-gradient-73" x1="335.73" y1="350.61" x2="334.98" y2="348.32" xlink:href="#linear-gradient-15"/><linearGradient id="linear-gradient-74" x1="343.14" y1="350.61" x2="342.39" y2="348.32" xlink:href="#linear-gradient-15"/><linearGradient id="linear-gradient-75" x1="321.2" y1="215.88" x2="353.94" y2="319.84" gradientUnits="userSpaceOnUse"><stop offset="0"/><stop offset="1" stop-opacity="0"/></linearGradient><linearGradient id="linear-gradient-76" x1="313.29" y1="244.65" x2="351.35" y2="220.71" xlink:href="#linear-gradient-13"/><linearGradient id="linear-gradient-77" x1="328.05" y1="277.02" x2="337.46" y2="233.23" xlink:href="#linear-gradient-13"/><linearGradient id="linear-gradient-78" x1="420.96" y1="477.72" x2="273.19" y2="227.92" gradientTransform="matrix(1, 0, 0, 1, 0, 0)" xlink:href="#linear-gradient-3"/><linearGradient id="linear-gradient-79" x1="472.28" y1="447.36" x2="324.51" y2="197.56" gradientTransform="matrix(1, 0, 0, 1, 0, 0)" xlink:href="#linear-gradient-3"/><linearGradient id="linear-gradient-80" x1="316.25" y1="240.35" x2="332.76" y2="313.34" xlink:href="#linear-gradient-75"/><linearGradient id="linear-gradient-81" x1="344.12" y1="234.04" x2="360.63" y2="307.04" xlink:href="#linear-gradient-75"/><linearGradient id="linear-gradient-82" x1="274.14" y1="183.45" x2="274.14" y2="202.17" xlink:href="#linear-gradient-13"/><linearGradient id="linear-gradient-83" x1="343.28" y1="132.43" x2="357.4" y2="165.99" xlink:href="#linear-gradient-13"/><clipPath id="clip-path-5"><path class="cls-1" d="M343.19,235a4.6,4.6,0,0,0-2.65.22s-2.14-9.1-2.65-9.41-14,2.87-21.39-1.12c-9-3.18-13.3-15.46-6-24.05s18.73,7.88,25.69,10,14.22-.71,16.37,9C354.15,227,347.23,230.64,343.19,235Z"/></clipPath><linearGradient id="linear-gradient-84" x1="273.27" y1="172.44" x2="273.13" y2="233.3" xlink:href="#linear-gradient-75"/><linearGradient id="linear-gradient-85" x1="332.42" y1="133.68" x2="371.85" y2="184.84" xlink:href="#linear-gradient-75"/><linearGradient id="linear-gradient-86" x1="472.46" y1="317.39" x2="279.67" y2="312.48" xlink:href="#linear-gradient-75"/><linearGradient id="linear-gradient-87" x1="463.3" y1="275.97" x2="329.59" y2="289.34" xlink:href="#linear-gradient-75"/><linearGradient id="linear-gradient-88" x1="337.81" y1="225.99" x2="330.03" y2="271.83" xlink:href="#linear-gradient-75"/><linearGradient id="linear-gradient-89" x1="348.93" y1="229.98" x2="330.62" y2="255.46" xlink:href="#linear-gradient-75"/><linearGradient id="linear-gradient-90" x1="333.85" y1="198.07" x2="323.41" y2="257.22" xlink:href="#linear-gradient-75"/><linearGradient id="linear-gradient-91" x1="273.06" y1="245.75" x2="271.94" y2="252.09" xlink:href="#linear-gradient-75"/><linearGradient id="linear-gradient-92" x1="318.09" y1="245.48" x2="289.06" y2="380.93" xlink:href="#linear-gradient-75"/><clipPath id="clip-path-6"><path class="cls-1" d="M286.33,258.56l-1.75,51.72-70.95,50.13c-1.68.89-4.59,21.36-13.91,35.67a168,168,0,0,1-98.15-46l-20,15.76L49.87,382.39,20.56,358.64S65,326.79,72,303.49c6.93-23,24.09-31.13,25.74-32.41,0,0,22.48-40.27,22.48-40.27l32.64-18.37,68.81,35.11Z"/></clipPath><clipPath id="clip-path-7"><path class="cls-1" d="M170.13,225.29c-9.28-4.51-21.15-1-25.38,4.23s-3.95,18-8.32,25.65S116.65,274,122.51,284.5s56.49,10,59.9-1-3-15-2.32-24.83,3.68-19.92-1.23-27.83S170.13,225.29,170.13,225.29Z"/></clipPath><linearGradient id="linear-gradient-93" x1="184.36" y1="273.83" x2="136.67" y2="231.87" xlink:href="#linear-gradient-13"/><linearGradient id="linear-gradient-94" x1="155.79" y1="420.08" x2="150.51" y2="279.64" gradientTransform="matrix(1, 0, 0, 1, 0, 0)" xlink:href="#linear-gradient-3"/><linearGradient id="linear-gradient-95" x1="261.21" y1="266.01" x2="230.64" y2="294.66" xlink:href="#linear-gradient-13"/><linearGradient id="linear-gradient-96" x1="34.68" y1="361.34" x2="80.25" y2="341.96" xlink:href="#linear-gradient-13"/><linearGradient id="linear-gradient-97" x1="168.55" y1="286.96" x2="144.13" y2="257.35" xlink:href="#linear-gradient-13"/><linearGradient id="linear-gradient-98" x1="91.83" y1="401.27" x2="112.36" y2="255.85" gradientTransform="matrix(1, 0, 0, 1, 0, 0)" xlink:href="#linear-gradient-6"/><linearGradient id="linear-gradient-99" x1="189.79" y1="415.09" x2="210.31" y2="269.67" gradientTransform="matrix(1, 0, 0, 1, 0, 0)" xlink:href="#linear-gradient-6"/><clipPath id="clip-path-8"><path class="cls-1" d="M146.39,273l0,0a94.69,94.69,0,0,0-7.48,27.12c-1.77,15.23-6.65,68.8-2,87.4a1.46,1.46,0,0,1,.05.2c-.27,3.13-25.78-7.24-26.6-15.83s7-27.29,7.78-34a125.41,125.41,0,0,0,.68-14.73s-22,26-52.46,33.56a18.21,18.21,0,0,0-1-2.76c-2.29-4.84-6.28-7.3-7.89-9.18a2.5,2.5,0,0,1-.71-1.36c-.2-2.46,25.38-12.49,37.66-26S108.12,281.36,146.39,273Zm101,15.36a15.56,15.56,0,0,0-7.08-7.38,5,5,0,0,0-2.24-.69c-2,.14-13.09,17.54-31.51,16.11s-19.05-16.28-38.07-20.78a1.45,1.45,0,0,1,.09.25,22.73,22.73,0,0,1,.27,5.7c-.65,21.58-10.37,92.5-5.84,107.93a7.85,7.85,0,0,0,.37,1c2.45,3.27,13.4-8.19,14-14.74s-8.23-34.32-5.78-42.43,11.67-10.16,7.58-26.12c16.78,16,51.16,15.26,69-15.09A9.13,9.13,0,0,0,247.39,288.4Z"/></clipPath><linearGradient id="linear-gradient-100" x1="230.35" y1="373.25" x2="208.66" y2="277.06" xlink:href="#linear-gradient-75"/><linearGradient id="linear-gradient-101" x1="43.94" y1="353.05" x2="158.82" y2="346.5" xlink:href="#linear-gradient-75"/><linearGradient id="linear-gradient-102" x1="142.48" y1="244.02" x2="154.31" y2="281.36" xlink:href="#linear-gradient-75"/><linearGradient id="linear-gradient-103" x1="158.92" y1="235.98" x2="167.13" y2="266.84" xlink:href="#linear-gradient-75"/><linearGradient id="linear-gradient-104" x1="157.79" y1="255.48" x2="156.33" y2="286.56" xlink:href="#linear-gradient-75"/></defs><g class="cls-2"><g id="BACKGROUND"><rect class="cls-3" width="500" height="500"/></g><g id="OBJECTS"><path class="cls-4" d="M459.24,263.9a150.28,150.28,0,0,1-15.31,29c-8.24,12.11-17.94,22.28-28.3,29.58a50.76,50.76,0,0,1-15,7.64c-5.32,1.66-11.29,2.69-20.29,4.86-1.34.33-2.76.68-4.24,1.07-8,2-18.14,5-31.68,9.77a395.27,395.27,0,0,0-41.67,17.15q-3,1.49-5.84,2.91c-28.12,14.38-38.17,24.88-61.13,29.17a121.21,121.21,0,0,1-34.28,1.08,168,168,0,0,1-98.15-46,138.08,138.08,0,0,1-35.57-57.54A144.75,144.75,0,0,1,62,236.61q.36-4,.91-8a165.07,165.07,0,0,1,10.76-39.81c14.06-34.3,38.66-61.33,65.37-70.41,39-13.25,61.1,19.13,120.07,5.28,45.78-10.76,49.24-34.23,86.2-36.51,40.92-2.51,85.58,23.27,108.18,61.58q1.23,2.09,2.35,4.18a117.47,117.47,0,0,1,12.54,37.74C472.22,215.79,468.19,241.38,459.24,263.9Z"/><path class="cls-5" d="M459.24,263.9a150.28,150.28,0,0,1-15.31,29c-8.24,12.11-17.94,22.28-28.3,29.58a50.76,50.76,0,0,1-15,7.64c-5.32,1.66-11.29,2.69-20.29,4.86-1.34.33-2.76.68-4.24,1.07-8,2-18.14,5-31.68,9.77a395.27,395.27,0,0,0-41.67,17.15q-3,1.49-5.84,2.91c-28.12,14.38-38.17,24.88-61.13,29.17a121.21,121.21,0,0,1-34.28,1.08,168,168,0,0,1-98.15-46,138.08,138.08,0,0,1-35.57-57.54A144.75,144.75,0,0,1,62,236.61c13.65-12.8,41.52-33.2,79.68-32.19,55.42,1.47,73.22,68.9,73.22,68.9s-.9-41.34,41.37-51,57.23,51,57.23,51,8.61-61.57,51.36-73,51.55,68.9,51.55,68.9,4.5-65.71,52-78.58C472.22,215.79,468.19,241.38,459.24,263.9Z"/><g class="cls-6"><circle class="cls-3" cx="134.4" cy="108.8" r="2.05"/><circle class="cls-3" cx="151.58" cy="108.8" r="2.05"/><circle class="cls-3" cx="168.76" cy="108.8" r="2.05"/><circle class="cls-3" cx="185.95" cy="108.8" r="2.05"/><circle class="cls-3" cx="203.13" cy="108.8" r="2.05"/><circle class="cls-3" cx="134.4" cy="119.9" r="2.05"/><circle class="cls-3" cx="151.58" cy="119.9" r="2.05"/><circle class="cls-3" cx="168.76" cy="119.9" r="2.05"/><circle class="cls-3" cx="185.95" cy="119.9" r="2.05"/><circle class="cls-3" cx="203.13" cy="119.9" r="2.05"/><circle class="cls-3" cx="134.4" cy="131" r="2.05"/><circle class="cls-3" cx="151.58" cy="131" r="2.05"/><circle class="cls-3" cx="168.76" cy="131" r="2.05"/><circle class="cls-3" cx="185.95" cy="131" r="2.05"/><circle class="cls-3" cx="203.13" cy="131" r="2.05"/><circle class="cls-3" cx="134.4" cy="142.1" r="2.05"/><circle class="cls-3" cx="151.58" cy="142.1" r="2.05"/><circle class="cls-3" cx="168.76" cy="142.1" r="2.05"/><circle class="cls-3" cx="185.95" cy="142.1" r="2.05"/><circle class="cls-3" cx="203.13" cy="142.1" r="2.05"/><circle class="cls-3" cx="134.4" cy="153.2" r="2.05"/><circle class="cls-3" cx="151.58" cy="153.2" r="2.05"/><circle class="cls-3" cx="168.76" cy="153.2" r="2.05"/><circle class="cls-3" cx="185.95" cy="153.2" r="2.05"/><circle class="cls-3" cx="203.13" cy="153.2" r="2.05"/><circle class="cls-3" cx="134.4" cy="164.3" r="2.05"/><circle class="cls-3" cx="151.58" cy="164.3" r="2.05"/><circle class="cls-3" cx="168.76" cy="164.3" r="2.05"/><circle class="cls-3" cx="185.95" cy="164.3" r="2.05"/><circle class="cls-3" cx="203.13" cy="164.3" r="2.05"/><circle class="cls-3" cx="134.4" cy="175.4" r="2.05"/><circle class="cls-3" cx="151.58" cy="175.4" r="2.05"/><circle class="cls-3" cx="168.76" cy="175.4" r="2.05"/><circle class="cls-3" cx="185.95" cy="175.4" r="2.05"/><circle class="cls-3" cx="203.13" cy="175.4" r="2.05"/></g><g class="cls-6"><circle class="cls-3" cx="362.77" cy="84.55" r="2.05"/><circle class="cls-3" cx="379.95" cy="84.55" r="2.05"/><circle class="cls-3" cx="397.13" cy="84.55" r="2.05"/><circle class="cls-3" cx="414.31" cy="84.55" r="2.05"/><circle class="cls-3" cx="431.5" cy="84.55" r="2.05"/><circle class="cls-3" cx="362.77" cy="95.65" r="2.05"/><circle class="cls-3" cx="379.95" cy="95.65" r="2.05"/><circle class="cls-3" cx="397.13" cy="95.65" r="2.05"/><circle class="cls-3" cx="414.31" cy="95.65" r="2.05"/><circle class="cls-3" cx="431.5" cy="95.65" r="2.05"/><circle class="cls-3" cx="362.77" cy="106.75" r="2.05"/><circle class="cls-3" cx="379.95" cy="106.75" r="2.05"/><circle class="cls-3" cx="397.13" cy="106.75" r="2.05"/><circle class="cls-3" cx="414.31" cy="106.75" r="2.05"/><circle class="cls-3" cx="431.5" cy="106.75" r="2.05"/><path class="cls-3" d="M364.82,117.85a2.06,2.06,0,1,1-2.05-2.06A2.05,2.05,0,0,1,364.82,117.85Z"/><path class="cls-3" d="M382,117.85a2.05,2.05,0,1,1-2.05-2.06A2.05,2.05,0,0,1,382,117.85Z"/><path class="cls-3" d="M399.18,117.85a2.05,2.05,0,1,1-2.05-2.06A2.05,2.05,0,0,1,399.18,117.85Z"/><path class="cls-3" d="M416.37,117.85a2.06,2.06,0,1,1-2.06-2.06A2.05,2.05,0,0,1,416.37,117.85Z"/><path class="cls-3" d="M433.55,117.85a2.06,2.06,0,1,1-2.05-2.06A2.05,2.05,0,0,1,433.55,117.85Z"/><circle class="cls-3" cx="362.77" cy="128.95" r="2.05"/><circle class="cls-3" cx="379.95" cy="128.95" r="2.05"/><circle class="cls-3" cx="397.13" cy="128.95" r="2.05"/><circle class="cls-3" cx="414.31" cy="128.95" r="2.05"/><circle class="cls-3" cx="431.5" cy="128.95" r="2.05"/><circle class="cls-3" cx="362.77" cy="140.05" r="2.05"/><circle class="cls-3" cx="379.95" cy="140.05" r="2.05"/><circle class="cls-3" cx="397.13" cy="140.05" r="2.05"/><circle class="cls-3" cx="414.31" cy="140.05" r="2.05"/><circle class="cls-3" cx="431.5" cy="140.05" r="2.05"/><circle class="cls-3" cx="362.77" cy="151.15" r="2.05"/><circle class="cls-3" cx="379.95" cy="151.15" r="2.05"/><circle class="cls-3" cx="397.13" cy="151.15" r="2.05"/><circle class="cls-3" cx="414.31" cy="151.15" r="2.05"/><circle class="cls-3" cx="431.5" cy="151.15" r="2.05"/></g><g class="cls-6"><circle class="cls-3" cx="275.89" cy="327.11" r="2.05"/><circle class="cls-3" cx="293.08" cy="327.11" r="2.05"/><circle class="cls-3" cx="310.26" cy="327.11" r="2.05"/><path class="cls-3" d="M329.49,327.11a2.05,2.05,0,1,1-2.05-2.05A2.05,2.05,0,0,1,329.49,327.11Z"/><circle class="cls-3" cx="344.62" cy="327.11" r="2.05"/><circle class="cls-3" cx="275.89" cy="338.21" r="2.05"/><circle class="cls-3" cx="293.08" cy="338.21" r="2.05"/><circle class="cls-3" cx="310.26" cy="338.21" r="2.05"/><path class="cls-3" d="M329.49,338.21a2.05,2.05,0,1,1-2.05-2A2,2,0,0,1,329.49,338.21Z"/><circle class="cls-3" cx="344.62" cy="338.21" r="2.05"/><circle class="cls-3" cx="275.89" cy="349.31" r="2.05"/><circle class="cls-3" cx="293.08" cy="349.31" r="2.05"/><circle class="cls-3" cx="310.26" cy="349.31" r="2.05"/><path class="cls-3" d="M329.49,349.31a2.05,2.05,0,1,1-2.05-2.05A2,2,0,0,1,329.49,349.31Z"/><circle class="cls-3" cx="344.62" cy="349.31" r="2.05"/><circle class="cls-3" cx="275.89" cy="360.41" r="2.05"/><circle class="cls-3" cx="293.08" cy="360.41" r="2.05"/><circle class="cls-3" cx="310.26" cy="360.41" r="2.05"/><path class="cls-3" d="M329.49,360.41a2.05,2.05,0,1,1-2.05-2.05A2,2,0,0,1,329.49,360.41Z"/><circle class="cls-3" cx="344.62" cy="360.41" r="2.05"/><circle class="cls-3" cx="275.89" cy="371.51" r="2.05"/><circle class="cls-3" cx="293.08" cy="371.51" r="2.05"/><circle class="cls-3" cx="310.26" cy="371.51" r="2.05"/><path class="cls-3" d="M329.49,371.51a2.05,2.05,0,1,1-2.05-2.05A2,2,0,0,1,329.49,371.51Z"/><circle class="cls-3" cx="344.62" cy="371.51" r="2.05"/><circle class="cls-3" cx="275.89" cy="382.61" r="2.05"/><circle class="cls-3" cx="293.08" cy="382.61" r="2.05"/><circle class="cls-3" cx="310.26" cy="382.61" r="2.05"/><path class="cls-3" d="M329.49,382.61a2.05,2.05,0,1,1-2.05-2.05A2,2,0,0,1,329.49,382.61Z"/><circle class="cls-3" cx="344.62" cy="382.61" r="2.05"/><circle class="cls-3" cx="275.89" cy="393.71" r="2.05"/><circle class="cls-3" cx="293.08" cy="393.71" r="2.05"/><circle class="cls-3" cx="310.26" cy="393.71" r="2.05"/><path class="cls-3" d="M329.49,393.71a2.05,2.05,0,1,1-2.05-2A2,2,0,0,1,329.49,393.71Z"/><circle class="cls-3" cx="344.62" cy="393.71" r="2.05"/></g><g class="cls-7"><path class="cls-8" d="M105.85,283.83c-4.44,3.36-6-6.69-6-6.69S111.44,279.6,105.85,283.83Z"/><path class="cls-9" d="M119.72,260.51c-.9-6.95,9-.38,9-.38S120.43,266,119.72,260.51Z"/><path class="cls-10" d="M70.61,318.87a135.11,135.11,0,0,0,17.83-14.39l-.58.26c-5.16,2.08-4.08-8-4.08-8s7.12,3.64,6.09,6.4c1.28-1.25,2.58-2.55,3.89-3.93,1.15-1.2,2.32-2.49,3.51-3.84l-.15.1c-4.68,3-5.52-7.12-5.52-7.12s8,2.34,7.14,5.33a113.14,113.14,0,0,0,14.42-21.26c-3.3,3.55-7.35-5.13-7.35-5.13s8.65-.6,8.55,2.71a85.53,85.53,0,0,0,3.77-9.17c-3.28,3.33-7.26-5.21-7.26-5.21s7-.49,8.34,1.84a74.16,74.16,0,0,0,1.88-8c-3.81-.5-1.36-8.71-1.36-8.71s9.41,7.27,2.54,8.65l-.34.05a80,80,0,0,1-6.33,19.8c2.36-1.22,8.07,2.57,8.07,2.57s-8.29,5.9-9,.38a6.92,6.92,0,0,1,0-.87,100.59,100.59,0,0,1-6,10.42c2.6-.55,7.07,4.68,7.07,4.68s-9.59,3.41-8.77-2.1a.09.09,0,0,0,0-.05c-2.32,3.38-4.74,6.5-7.14,9.35,2.62-.77,6.94,5.15,6.94,5.15S97,301.42,98.19,296a5.47,5.47,0,0,1,.21-.71q-2.07,2.37-4.05,4.44t-3.71,3.76c2.76-.69,6.09,6.32,6.09,6.32s-10.15.78-7.91-4.32c.07-.16.14-.31.22-.46a134.88,134.88,0,0,1-18,14.53Z"/><path class="cls-11" d="M68.31,286.69c5.19-10,2.84-31.24,12.18-48.54,7.05-13.05-6.78-20.24-16.93-7.46S63.09,269.9,59.7,280,64.11,294.8,68.31,286.69Z"/><path class="cls-12" d="M78.64,224.82A23.22,23.22,0,0,0,68,237.26c-3.27,8.93-.71,43.06-7.45,52.32"/><path class="cls-12" d="M63,231.39l4.1,9.32S79,236.55,81,237.09"/><path class="cls-12" d="M58.87,245.42s5.26,6.08,7.15,8.41c0,0,6.69-3,9.31-2"/><path class="cls-12" d="M59.38,259.64a42.67,42.67,0,0,1,6,5.68s4.41-3.38,7.66-1.84"/><path class="cls-12" d="M60.35,270.47s3.43,2.38,4.22,4.68c0,0,4.94-4.29,7.33-3.06"/><path class="cls-13" d="M88.15,294a150.07,150.07,0,0,1-22.33,24c-.71-20.41,2.91-24.21,4.17-33.73,1.3-9.82,2.46-5,7-5.45s-1.6-4.6-1.12-10.89,5.85-14.93,6.2-23,4.2-6.59,5.15-5.61,3.35.7,3.33-2.94-4.74-2.7-4.36-6.34,8.8-21.52,7.12-32.3c9.47,2,9.33,27.22,9.58,39s-9.65,11.77-9.71,15,7-1.3,7.73-.12-6.29,27-11.33,33-9.15,5.42-8.92,8.32,6.72-2.41,6.73-.18A2,2,0,0,0,88.15,294Z"/><path class="cls-12" d="M93.32,197.79s7,3.31,3.9,27-11.15,37.48-13.14,48.69-11.22,31-9.93,36.8"/></g><g class="cls-14"><path class="cls-15" d="M422,264.75c2.61,4.92,8.3-3.52,8.3-3.52S418.67,258.56,422,264.75Z"/><path class="cls-16" d="M419.19,237.76c3.75-5.93-8-4.14-8-4.14S416.22,242.47,419.19,237.76Z"/><path class="cls-17" d="M439.17,311.38a135.48,135.48,0,0,1-10.12-20.57c.13.15.26.31.42.48,3.8,4.06,7.09-5.57,7.09-5.57s-8,.3-8.23,3.24c-.63-1.67-1.26-3.41-1.87-5.2-.53-1.58-1.06-3.24-1.57-5a.86.86,0,0,0,.1.16c3,4.71,8-4.14,8-4.14s-8.24-1.25-8.72,1.83a113.35,113.35,0,0,1-4.13-25.35c1.5,4.61,8.83-1.56,8.83-1.56s-7.59-4.19-8.9-1.14a87,87,0,0,1,.44-9.9c1.58,4.39,8.79-1.68,8.79-1.68s-6.17-3.4-8.34-1.84a73.83,73.83,0,0,1,1.65-8c3.67,1.15,4.9-7.33,4.9-7.33s-11.59,2.63-5.94,6.78l.29.19a80.22,80.22,0,0,0-2.61,20.63c-1.62-2.1-8.39-1.07-8.39-1.07s5,8.84,8,4.13a5.82,5.82,0,0,0,.41-.77,102.72,102.72,0,0,0,1,12c-2.13-1.6-8.38,1.26-8.38,1.26s7.26,7.13,8.83,1.79a.11.11,0,0,0,0-.05c.69,4,1.57,7.9,2.54,11.49-2-1.8-8.46,1.74-8.46,1.74s7.79,6.56,8.95,1.11a7.21,7.21,0,0,0,.11-.73c.58,2,1.19,3.93,1.8,5.74s1.18,3.37,1.78,5c-2.21-1.79-8.18,3.16-8.18,3.16s8.87,5,9-.58c0-.18,0-.35,0-.51a136.66,136.66,0,0,0,10.2,20.76Z"/><path class="cls-18" d="M437.24,320.15c-4.27-10.44-22-22.4-29.08-40.71-5.38-13.83-19.82-7.95-16.66,8.06s29.58,25.76,35.05,34.86S440.7,328.61,437.24,320.15Z"/><path class="cls-12" d="M396.8,272.21a23.23,23.23,0,0,0,2.56,16.19c4.69,8.28,32.35,28.44,35,39.57"/><path class="cls-12" d="M391.7,288.36l9.75,2.91s4.51-11.72,6.24-12.93"/><path class="cls-12" d="M399.69,300.62s8-.07,11,0c0,0,2.06-7,4.48-8.42"/><path class="cls-12" d="M410.86,309.44a43,43,0,0,1,8.23-.93s.28-5.54,3.57-7"/><path class="cls-12" d="M419.73,315.71s4-1.07,6.3-.18c0,0-.06-6.55,2.42-7.57"/><path class="cls-19" d="M459.24,263.9a150.28,150.28,0,0,1-15.31,29c-6-19.51-3.5-24.12-4.76-33.65-1.31-9.82,1.06-5.52,5.35-7.09s-2.75-4-3.92-10.22,1.76-15.94,0-23.77,2.34-7.45,3.52-6.76,3.42-.2,2.44-3.71-5.28-1.37-5.86-5,2.9-23.07-1.53-33c9.64-.59,16.09,23.85,19.41,35.18s-6.25,13.88-5.47,17,6.45-3.09,7.43-2.13,1,27.73-2.35,34.77-7.43,7.62-6.45,10.36,5.87-4.08,6.45-1.93C458.3,263.29,458.7,263.58,459.24,263.9Z"/><path class="cls-12" d="M439.17,169.63s7.63,1.37,10.78,25-1,39.09,0,50.43-2.76,32.85,0,38.12"/></g><g class="cls-20"><path class="cls-21" d="M279.47,203.16c-4.31-1.65-9.82-.69-12.61.43-1.9-4.19-6.4-6.73-10.3-8-4.16-1.36-5.87-3.33-5.87-5.93s7.1,1.64,11.67,2.46c2.12.38,5.56,0,8.84.9a10.18,10.18,0,0,1,5.94,4.14h0A15.94,15.94,0,0,1,279.47,203.16Z"/><path class="cls-22" d="M356,359.69c-8.59,3.13-18.69,4.9-27.82,2.85.21-5.12.15-11-.07-17.22-.9-24.63-4.51-54.8-5.3-65.89-.6-8.42,0-14.11.84-17.72a16.88,16.88,0,0,1,1.85-5.29c.53-.16,1.07-.33,1.61-.52a78,78,0,0,0,15.36-7.36,15.16,15.16,0,0,1,1.76,2.37,31,31,0,0,1,2.71,5.51,44.63,44.63,0,0,1,2.25,8.32,55.88,55.88,0,0,1,.77,6.37C350.94,285.78,357.75,336.74,356,359.69Z"/><g class="cls-23"><g class="cls-6"><path class="cls-24" d="M336.72,273.94a1.19,1.19,0,1,1-1.19-1.19A1.18,1.18,0,0,1,336.72,273.94Z"/><circle class="cls-25" cx="342.94" cy="273.94" r="1.18"/><circle class="cls-26" cx="350.35" cy="273.94" r="1.18"/><circle class="cls-27" cx="357.75" cy="273.94" r="1.18"/><circle class="cls-28" cx="365.16" cy="273.94" r="1.18"/><path class="cls-29" d="M336.72,280.11a1.19,1.19,0,1,1-1.19-1.18A1.19,1.19,0,0,1,336.72,280.11Z"/><circle class="cls-30" cx="342.94" cy="280.11" r="1.18"/><circle class="cls-31" cx="350.35" cy="280.11" r="1.18"/><circle class="cls-32" cx="357.75" cy="280.11" r="1.18"/><circle class="cls-33" cx="365.16" cy="280.11" r="1.18"/><path class="cls-34" d="M336.72,286.28a1.19,1.19,0,1,1-1.19-1.18A1.19,1.19,0,0,1,336.72,286.28Z"/><circle class="cls-35" cx="342.94" cy="286.28" r="1.18"/><circle class="cls-36" cx="350.35" cy="286.28" r="1.18"/><circle class="cls-37" cx="357.75" cy="286.28" r="1.18"/><circle class="cls-38" cx="365.16" cy="286.28" r="1.18"/><path class="cls-39" d="M336.72,292.45a1.19,1.19,0,1,1-1.19-1.18A1.19,1.19,0,0,1,336.72,292.45Z"/><circle class="cls-40" cx="342.94" cy="292.45" r="1.18"/><circle class="cls-41" cx="350.35" cy="292.45" r="1.18"/><circle class="cls-42" cx="357.75" cy="292.45" r="1.18"/><circle class="cls-43" cx="365.16" cy="292.45" r="1.18"/><path class="cls-44" d="M336.72,298.62a1.19,1.19,0,1,1-1.19-1.18A1.19,1.19,0,0,1,336.72,298.62Z"/><circle class="cls-45" cx="342.94" cy="298.63" r="1.18"/><circle class="cls-46" cx="350.35" cy="298.63" r="1.18"/><circle class="cls-47" cx="357.75" cy="298.63" r="1.18"/><circle class="cls-48" cx="365.16" cy="298.63" r="1.18"/><path class="cls-49" d="M336.72,304.8a1.19,1.19,0,1,1-1.19-1.19A1.18,1.18,0,0,1,336.72,304.8Z"/><path class="cls-50" d="M344.12,304.8a1.19,1.19,0,1,1-1.18-1.19A1.18,1.18,0,0,1,344.12,304.8Z"/><path class="cls-51" d="M351.53,304.8a1.19,1.19,0,1,1-1.18-1.19A1.18,1.18,0,0,1,351.53,304.8Z"/><path class="cls-52" d="M358.94,304.8a1.19,1.19,0,1,1-1.19-1.19A1.18,1.18,0,0,1,358.94,304.8Z"/><path class="cls-53" d="M366.34,304.8a1.19,1.19,0,1,1-1.18-1.19A1.18,1.18,0,0,1,366.34,304.8Z"/></g><g class="cls-6"><circle class="cls-54" cx="313.02" cy="318.25" r="1.18"/><circle class="cls-55" cx="320.43" cy="318.25" r="1.18"/><circle class="cls-56" cx="327.84" cy="318.25" r="1.18"/><circle class="cls-57" cx="335.24" cy="318.25" r="1.18"/><circle class="cls-58" cx="342.65" cy="318.25" r="1.18"/><circle class="cls-59" cx="313.02" cy="324.42" r="1.18"/><circle class="cls-60" cx="320.43" cy="324.42" r="1.18"/><circle class="cls-61" cx="327.84" cy="324.42" r="1.18"/><circle class="cls-62" cx="335.24" cy="324.42" r="1.18"/><circle class="cls-63" cx="342.65" cy="324.42" r="1.18"/><circle class="cls-64" cx="313.02" cy="330.59" r="1.18"/><circle class="cls-65" cx="320.43" cy="330.59" r="1.18"/><circle class="cls-66" cx="327.84" cy="330.59" r="1.18"/><circle class="cls-67" cx="335.24" cy="330.59" r="1.18"/><circle class="cls-68" cx="342.65" cy="330.59" r="1.18"/><circle class="cls-69" cx="313.02" cy="336.76" r="1.18"/><circle class="cls-70" cx="320.43" cy="336.76" r="1.18"/><circle class="cls-71" cx="327.84" cy="336.76" r="1.18"/><circle class="cls-72" cx="335.24" cy="336.76" r="1.18"/><circle class="cls-73" cx="342.65" cy="336.76" r="1.18"/><circle class="cls-74" cx="313.02" cy="342.94" r="1.18"/><circle class="cls-75" cx="320.43" cy="342.94" r="1.18"/><circle class="cls-76" cx="327.84" cy="342.94" r="1.18"/><circle class="cls-77" cx="335.24" cy="342.94" r="1.18"/><circle class="cls-78" cx="342.65" cy="342.94" r="1.18"/><circle class="cls-79" cx="313.02" cy="349.11" r="1.18"/><circle class="cls-80" cx="320.43" cy="349.11" r="1.18"/><circle class="cls-81" cx="327.84" cy="349.11" r="1.18"/><circle class="cls-82" cx="335.24" cy="349.11" r="1.18"/><circle class="cls-83" cx="342.65" cy="349.11" r="1.18"/></g></g><path class="cls-84" d="M335.39,267.05c-6.48-.09-9.93-2.62-11.75-5.34a16.88,16.88,0,0,1,1.85-5.29c.53-.16,1.07-.33,1.61-.52a78,78,0,0,0,15.36-7.36,15.16,15.16,0,0,1,1.76,2.37C344.47,258.75,343,267.16,335.39,267.05Z"/><path class="cls-85" d="M339.42,243.33q-.39.66-.81,1.26c-3.67,5.35-8.54,7.57-13.12,7.64a14.83,14.83,0,0,1-5.92-1.12c-9.88-4.13-6.14-18.05-4.07-23.84.56-1.59,1-2.56,1-2.56,7.37,4,20.88.81,21.39,1.12s2.38,8.23,2.63,9.29l0,.12a4.66,4.66,0,0,1,2.64-.22,3.31,3.31,0,0,1,2.06,1.55C346.89,239.23,344.85,246.19,339.42,243.33Z"/><path class="cls-86" d="M343.19,235a4.6,4.6,0,0,0-2.65.22s-2.14-9.1-2.65-9.41-14,2.87-21.39-1.12c-9-3.18-13.3-15.46-6-24.05s18.73,7.88,25.69,10,14.22-.71,16.37,9C354.15,227,347.23,230.64,343.19,235Z"/><path class="cls-87" d="M339.93,256.29a12.28,12.28,0,0,1-3.52,4.31c-3.37,2.46-10.54.41-10.44-3.37a18.17,18.17,0,0,0-.13-2.6c-.09-.8-.21-1.62-.35-2.4,4.58-.07,9.45-2.29,13.12-7.64.63,3.68,2.3,6.43,2.51,7.32A8.52,8.52,0,0,1,339.93,256.29Z"/><path class="cls-88" d="M328.17,362.54a29.09,29.09,0,0,1-11.06-5,30.39,30.39,0,0,1-8.43-9.79c5.53-24.36,16-43.39.21-62.22-6.41-7.65-13-11.82-19.12-16.53-8.95-6.87-16.86-14.91-21.61-36.68-2.68-12.27-3.53-19-3.65-22.71-.11-3.15.3-4.26.58-4.92a3.55,3.55,0,0,1,1.77-1.14c2.79-1.12,8.3-2.08,12.61-.43a10.05,10.05,0,0,1,2.2,1.16,42,42,0,0,0,.21,4.58c1.81,18.82,14.87,53.94,41.3,48.12q1.14-.24,2.31-.6s-2.38,3.54-2.85,13.25a82.49,82.49,0,0,0,.16,9.76C323.79,293.33,329.21,337.16,328.17,362.54Z"/><path class="cls-89" d="M376,344.92c1.33,2-3.31,6.55-10.84,10.64a66.82,66.82,0,0,1-9.18,4.13c1.76-22.95-5.05-73.91-6-88.58A55.79,55.79,0,0,0,348.37,261c-2.26-8.74-5.91-12.43-5.91-12.43.67-.42,1.32-.84,2-1.28C362.53,235,368.5,217.53,365,203.5c-3.46-13.69-14.06-28.59-18.49-35.57-1.34-2.11-2.12-3.5-2-3.92a14.15,14.15,0,0,1,1.69-3c1.82-2.59,4.92-5.92,8.64-6.87A8.18,8.18,0,0,1,358,154c1.27.19,3,1.42,5.07,3.45,9.43,9.45,24.81,36.28,24.81,56.31,0,24.36-16.37,46.87-17.6,57.11S365.78,327.52,376,344.92Z"/><path class="cls-90" d="M325.49,256.42s-2.38,3.54-2.85,13.25l-5.84-2.11c1.91-5.32,6.37-10.53,6.37-10.53h0Q324.32,256.78,325.49,256.42Z"/><path class="cls-91" d="M354.52,258.22a11.72,11.72,0,0,0-6.15,2.75c-2.26-8.74-5.91-12.43-5.91-12.43.67-.42,1.32-.84,2-1.28A21.87,21.87,0,0,1,354.52,258.22Z"/><path class="cls-92" d="M277.14,197.15h0A10.18,10.18,0,0,0,271.2,193c-.17-2.53-.08-5.65,1.46-5.61C275.25,187.47,277.14,197.15,277.14,197.15Z"/><path class="cls-93" d="M355.34,140.57c-.2,4-2,6-1.63,9.93a9.84,9.84,0,0,0,1.12,3.66c-3.72,1-6.82,4.28-8.64,6.87-4.64-3.67-5.61-5.92-6.19-10.22-.62-4.51-1.85-8.5-.62-9.73s3.89,4,5.83,5.33,4.51-4.3,5.32-7.89-1.64-9.61,1.74-9.3S355.55,136.58,355.34,140.57Z"/><path class="cls-94" d="M322.62,235.24c-.15,1.28-2.56,1.49-2.92,3s2.26,2.15,2.26,2.15"/><g class="cls-95"><path class="cls-96" d="M304.93,208.07s-.82,4.74,4.77,8.65,25.25.72,31.46,5.93.74,15.15.74,15.15,7.18-1.07,6.59-9.53-10.82-10.1-24-14.74S311.21,195,311.21,195s3.18,9.41,11.41,13.23,30.77,3.63,28.83,23.17"/></g><path class="cls-97" d="M281.88,208.9a27.86,27.86,0,0,0-17.37.75c-.11-3.15.3-4.26.58-4.92a3.55,3.55,0,0,1,1.77-1.14c2.79-1.12,8.3-2.08,12.61-.43a10.05,10.05,0,0,1,2.2,1.16A42,42,0,0,0,281.88,208.9Z"/><path class="cls-98" d="M363.07,157.42c-7.85-.95-14.54,7.56-16.6,10.51-1.34-2.11-2.12-3.5-2-3.92a14.15,14.15,0,0,1,1.69-3c1.82-2.59,4.92-5.92,8.64-6.87A8.18,8.18,0,0,1,358,154C359.27,154.16,361,155.39,363.07,157.42Z"/><path class="cls-99" d="M356,359.69c-8.59,3.13-18.69,4.9-27.82,2.85.21-5.12.15-11-.07-17.22,6.64-5.84,14.56-10.19,13.36-20.9-2-17.63.29-19.62,5.47-44.19a97.12,97.12,0,0,0,2.25-15.49,55.88,55.88,0,0,1,.77,6.37C350.94,285.78,357.75,336.74,356,359.69Z"/><path class="cls-100" d="M376,344.92c1.33,2-3.31,6.55-10.84,10.64,5.4-19-3.21-42.7-2.1-63.17s1.34-28.65,12.81-45.13a68.65,68.65,0,0,0,12-33.53c0,24.36-16.37,46.87-17.6,57.11S365.78,327.52,376,344.92Z"/><path class="cls-101" d="M339.93,256.29a9.85,9.85,0,0,0-3.31-1.88c-3.68-1.09-5.12.72-9.21.41a15,15,0,0,1-1.57-.19c-.09-.8-.21-1.62-.35-2.4,4.58-.07,9.45-2.29,13.12-7.64.63,3.68,2.3,6.43,2.51,7.32A8.52,8.52,0,0,1,339.93,256.29Z"/><path class="cls-102" d="M342.29,238.12c-1.64.24-1.78,2.39-.49,2.77S344.22,237.85,342.29,238.12Z"/><path class="cls-103" d="M340.52,235.12c-.23,1-.58,1.65-1.1,1.54-1.86-.41-3.11-3.42-6.59-4.51s-6.41,0-8.05-1.56-3.14-1.16-7.23-2.39a7.21,7.21,0,0,1-2.05-.93c.56-1.59,1-2.56,1-2.56,7.37,4,20.88.81,21.39,1.12S340.27,234.06,340.52,235.12Z"/><path class="cls-104" d="M272.46,248.54l0,1.14A5,5,0,0,1,272.46,248.54Z"/><path class="cls-105" d="M319.67,337.55c2.47,7.91-2.71,13.24-2.56,20a30.39,30.39,0,0,1-8.43-9.79c5.53-24.36,16-43.39.21-62.22-6.41-7.65-13-11.82-19.12-16.53,18.5,10.6,27,15.71,29.9,28.4S316.54,327.52,319.67,337.55Z"/></g><g class="cls-106"><path class="cls-86" d="M170.13,225.29c-9.28-4.51-21.15-1-25.38,4.23s-3.95,18-8.32,25.65S116.65,274,122.51,284.5s56.49,10,59.9-1-3-15-2.32-24.83,3.68-19.92-1.23-27.83S170.13,225.29,170.13,225.29Z"/><g class="cls-107"><g class="cls-108"><path class="cls-3" d="M172.23,229.49c0-2.9-2.82-3.65-5.27-3.66-3.53,0-7.55.25-10.49,2.4-2.62,1.92-4.08,5-5.13,7.94a136,136,0,0,0-3.64,13.62c-2.18,9.07-4.68,18.88-11.44,25.73-6.49,6.58-15.89,8.57-24.61,10.34-.37.08-.21.63.15.56,7-1.44,14.34-2.95,20.45-6.91s9.77-10,12.26-16.61c3-7.88,4.21-16.27,6.66-24.32,1.16-3.82,2.66-8.09,6.25-10.3,2.57-1.58,14.15-4.11,14.24,1.21a.29.29,0,0,0,.57,0Z"/><path class="cls-3" d="M170.17,229.64c-13.6,3.42-14.15,21.78-16.41,32.83-1.48,7.26-3.44,15.31-9.21,20.43-6.24,5.55-14.88,6.69-22.84,7.68-.36.05-.36.62,0,.58,6.82-.86,13.9-1.76,19.88-5.38,5.63-3.41,8.8-8.94,10.71-15.08,2.33-7.46,3.13-15.26,4.88-22.85,1.7-7.41,5-15.61,13.15-17.66.35-.09.2-.64-.16-.55Z"/><path class="cls-3" d="M171.29,230c4.3-1.83,8,1.57,9.72,5.26a39,39,0,0,1,2.54,9.57c1.07,6.37,1.51,12.93,3.9,19,3.39,8.64,12.74,16.69,22.25,11.41.33-.18,0-.67-.29-.49-6.5,3.6-13.91.42-18.11-5.11-4-5.26-5.25-11.88-6.2-18.25-.84-5.67-1.26-12-3.95-17.15-1.94-3.74-5.91-6.54-10.15-4.73-.34.14,0,.64.29.49Z"/><path class="cls-3" d="M170.54,229.83c-13.6-2-19.57,12.79-24.72,22.45-3.38,6.34-7.84,11.72-14.55,14.65s-17,3.67-20.58-4.32c-.15-.34-.64-.05-.49.29,5.59,12.53,23.72,5.43,30.5-2,4.67-5.12,7.07-11.72,10.42-17.68,3.95-7,10.39-14.12,19.26-12.85.36.05.52-.5.16-.55Z"/><path class="cls-3" d="M156,226.52c-6.57,1.77-9.5,8.18-12.36,13.73-1.93,3.74-4.14,7.4-7.87,9.59a16.34,16.34,0,0,1-12,1.77c-.36-.08-.52.47-.16.56a16.8,16.8,0,0,0,17.15-6c5-6.37,6.56-16.68,15.41-19.07a.29.29,0,0,0-.15-.55Z"/></g></g><path class="cls-109" d="M172.48,270.14a17.31,17.31,0,0,1-7.57,1.76c-6.16.06-12.25-2.95-14.12-8.62a8.76,8.76,0,0,1-.93.21,5.55,5.55,0,0,1-6.49-5.68,4.93,4.93,0,0,1,3.38-4.25c1.12-.41,1.54,3.79,2.71,4.15.78.23.7-1.84.75-3.4a3,3,0,0,1,.28-1.62c.61-.51,9.82-4.4,11.4-7.47,1.49,3,2.1,3.12,3.22,2.77s6.91-4.71,7.63-7.17a13.52,13.52,0,0,0,2.92,7,9.6,9.6,0,0,0,.71.8S180.26,266.25,172.48,270.14Z"/><path class="cls-110" d="M163,389.54c-4.1,2.07-17.19,3.24-26.09-2-4.68-18.6.2-72.17,2-87.4a94.69,94.69,0,0,1,7.48-27.12l0,0c5.73-1.5,21.14,2.38,22.1,2.62,0,.07.72.7.75.79.13.68-.44,2.18-.39,5.16C168.2,303.19,158.48,374.11,163,389.54Z"/><path class="cls-111" d="M263.86,273c-.71,3.24-2.25,7.74-8,9.89a24.4,24.4,0,0,0-8.49,5.47,15.56,15.56,0,0,0-7.08-7.38c1.86-3.15,3.75-12.43,5.13-13.54,1.54-1.23,2.77,4.09,2.67,6.55s10.45-5.63,11.31-8.7,2.6-1.74,2.8,0S264.58,269.79,263.86,273Z"/><path class="cls-112" d="M65.35,354.05c-4.39,4.33-14.07,12.38-18.53,12.38-5.21,0-8.59-3.07-9.61-5.22s-4.1-2.76-4.1-4,11.77-2.86,15.56-5.32c-2.05-.21-4.81-4.09-4.3-5.22s2.56.1,7.16,0,5.93-1.81,5.93-1.81C59.07,346.75,63.06,349.21,65.35,354.05Z"/><path class="cls-113" d="M164.91,271.9c-.07.43-.12.88-.15,1.33-.17,2.35,0,4.84-1.38,5.88-5.52,3.91-12.72-2.26-14.08-5.15a1.36,1.36,0,0,1-.18-1c.59-1.4.72-7.07.74-9.42a8.76,8.76,0,0,0,.93-.21C152.66,269,158.75,272,164.91,271.9Z"/><path class="cls-114" d="M94.41,317.52c-12.28,13.5-37.86,23.53-37.66,26a2.5,2.5,0,0,0,.71,1.36c1.61,1.88,5.6,4.34,7.89,9.18a18.21,18.21,0,0,1,1,2.76c30.49-7.57,52.46-33.56,52.46-33.56a125.41,125.41,0,0,1-.68,14.73c-.82,6.69-8.6,25.38-7.78,34,.5,5.28,10.33,11.23,17.9,14.31,4.74,1.92,8.6,2.72,8.7,1.52a1.46,1.46,0,0,0-.05-.2c-4.68-18.6.2-72.17,2-87.4a94.69,94.69,0,0,1,7.48-27.12l0,0C108.12,281.36,106.69,304,94.41,317.52Z"/><path class="cls-115" d="M247.39,288.4a1.89,1.89,0,0,0-.09-.21,15.56,15.56,0,0,0-7-7.17,5,5,0,0,0-2.24-.69c-2,.14-13.09,17.54-31.51,16.11s-19.05-16.28-38.07-20.78a1.45,1.45,0,0,1,.09.25,22.73,22.73,0,0,1,.27,5.7c-.65,21.58-10.37,92.5-5.84,107.93a7.85,7.85,0,0,0,.37,1c2.45,3.27,13.4-8.19,14-14.74s-8.23-34.32-5.78-42.43,11.67-10.16,7.58-26.12h0c16.79,15.95,51.16,15.24,69-15.1A9.13,9.13,0,0,0,247.39,288.4Z"/><g class="cls-116"><g class="cls-6"><circle class="cls-3" cx="107.01" cy="288.43" r="1.18"/><circle class="cls-3" cx="114.42" cy="288.43" r="1.18"/><circle class="cls-3" cx="121.83" cy="288.43" r="1.18"/><circle class="cls-3" cx="129.23" cy="288.43" r="1.18"/><circle class="cls-3" cx="136.64" cy="288.43" r="1.18"/><circle class="cls-3" cx="107.01" cy="294.61" r="1.18"/><circle class="cls-3" cx="114.42" cy="294.61" r="1.18"/><circle class="cls-3" cx="121.83" cy="294.61" r="1.18"/><circle class="cls-3" cx="129.23" cy="294.61" r="1.18"/><circle class="cls-3" cx="136.64" cy="294.61" r="1.18"/><circle class="cls-3" cx="107.01" cy="300.78" r="1.18"/><circle class="cls-3" cx="114.42" cy="300.78" r="1.18"/><circle class="cls-3" cx="121.83" cy="300.78" r="1.18"/><circle class="cls-3" cx="129.23" cy="300.78" r="1.18"/><circle class="cls-3" cx="136.64" cy="300.78" r="1.18"/><circle class="cls-3" cx="107.01" cy="306.95" r="1.18"/><circle class="cls-3" cx="114.42" cy="306.95" r="1.18"/><circle class="cls-3" cx="121.83" cy="306.95" r="1.18"/><circle class="cls-3" cx="129.23" cy="306.95" r="1.18"/><circle class="cls-3" cx="136.64" cy="306.95" r="1.18"/><circle class="cls-3" cx="107.01" cy="313.12" r="1.18"/><circle class="cls-3" cx="114.42" cy="313.12" r="1.18"/><circle class="cls-3" cx="121.83" cy="313.12" r="1.18"/><circle class="cls-3" cx="129.23" cy="313.12" r="1.18"/><circle class="cls-3" cx="136.64" cy="313.12" r="1.18"/><circle class="cls-3" cx="107.01" cy="319.29" r="1.18"/><circle class="cls-3" cx="114.42" cy="319.29" r="1.18"/><circle class="cls-3" cx="121.83" cy="319.29" r="1.18"/><circle class="cls-3" cx="129.23" cy="319.29" r="1.18"/><circle class="cls-3" cx="136.64" cy="319.29" r="1.18"/></g><g class="cls-6"><circle class="cls-3" cx="200.1" cy="301.37" r="1.18"/><circle class="cls-3" cx="207.5" cy="301.37" r="1.18"/><circle class="cls-3" cx="214.91" cy="301.37" r="1.18"/><circle class="cls-3" cx="222.32" cy="301.37" r="1.18"/><circle class="cls-3" cx="229.72" cy="301.37" r="1.18"/><circle class="cls-3" cx="200.1" cy="307.54" r="1.18"/><circle class="cls-3" cx="207.5" cy="307.54" r="1.18"/><circle class="cls-3" cx="214.91" cy="307.54" r="1.18"/><circle class="cls-3" cx="222.32" cy="307.54" r="1.18"/><circle class="cls-3" cx="229.72" cy="307.54" r="1.18"/><circle class="cls-3" cx="200.1" cy="313.71" r="1.18"/><circle class="cls-3" cx="207.5" cy="313.71" r="1.18"/><circle class="cls-3" cx="214.91" cy="313.71" r="1.18"/><circle class="cls-3" cx="222.32" cy="313.71" r="1.18"/><circle class="cls-3" cx="229.72" cy="313.71" r="1.18"/><circle class="cls-3" cx="200.1" cy="319.88" r="1.18"/><circle class="cls-3" cx="207.5" cy="319.88" r="1.18"/><circle class="cls-3" cx="214.91" cy="319.88" r="1.18"/><circle class="cls-3" cx="222.32" cy="319.88" r="1.18"/><circle class="cls-3" cx="229.72" cy="319.88" r="1.18"/><circle class="cls-3" cx="200.1" cy="326.05" r="1.18"/><circle class="cls-3" cx="207.5" cy="326.05" r="1.18"/><circle class="cls-3" cx="214.91" cy="326.05" r="1.18"/><circle class="cls-3" cx="222.32" cy="326.05" r="1.18"/><circle class="cls-3" cx="229.72" cy="326.05" r="1.18"/><circle class="cls-3" cx="200.1" cy="332.22" r="1.18"/><circle class="cls-3" cx="207.5" cy="332.22" r="1.18"/><circle class="cls-3" cx="214.91" cy="332.22" r="1.18"/><circle class="cls-3" cx="222.32" cy="332.22" r="1.18"/><circle class="cls-3" cx="229.72" cy="332.22" r="1.18"/></g><g class="cls-6"><circle class="cls-3" cx="68.88" cy="342.5" r="1.18"/><circle class="cls-3" cx="76.28" cy="342.5" r="1.18"/><circle class="cls-3" cx="83.69" cy="342.5" r="1.18"/><circle class="cls-3" cx="91.1" cy="342.5" r="1.18"/><circle class="cls-3" cx="98.5" cy="342.5" r="1.18"/><circle class="cls-3" cx="68.88" cy="348.67" r="1.18"/><circle class="cls-3" cx="76.28" cy="348.67" r="1.18"/><circle class="cls-3" cx="83.69" cy="348.67" r="1.18"/><circle class="cls-3" cx="91.1" cy="348.67" r="1.18"/><circle class="cls-3" cx="98.5" cy="348.67" r="1.18"/><circle class="cls-3" cx="68.88" cy="354.84" r="1.18"/><circle class="cls-3" cx="76.28" cy="354.84" r="1.18"/><circle class="cls-3" cx="83.69" cy="354.84" r="1.18"/><circle class="cls-3" cx="91.1" cy="354.84" r="1.18"/><circle class="cls-3" cx="98.5" cy="354.84" r="1.18"/><circle class="cls-3" cx="68.88" cy="361.01" r="1.18"/><circle class="cls-3" cx="76.28" cy="361.01" r="1.18"/><circle class="cls-3" cx="83.69" cy="361.01" r="1.18"/><circle class="cls-3" cx="91.1" cy="361.01" r="1.18"/><circle class="cls-3" cx="98.5" cy="361.01" r="1.18"/><circle class="cls-3" cx="68.88" cy="367.18" r="1.18"/><circle class="cls-3" cx="76.28" cy="367.18" r="1.18"/><circle class="cls-3" cx="83.69" cy="367.18" r="1.18"/><circle class="cls-3" cx="91.1" cy="367.18" r="1.18"/><circle class="cls-3" cx="98.5" cy="367.18" r="1.18"/><circle class="cls-3" cx="68.88" cy="373.35" r="1.18"/><circle class="cls-3" cx="76.28" cy="373.35" r="1.18"/><circle class="cls-3" cx="83.69" cy="373.35" r="1.18"/><circle class="cls-3" cx="91.1" cy="373.35" r="1.18"/><circle class="cls-3" cx="98.5" cy="373.35" r="1.18"/></g><g class="cls-6"><circle class="cls-3" cx="150.48" cy="342.45" r="1.18"/><circle class="cls-3" cx="157.89" cy="342.45" r="1.18"/><circle class="cls-3" cx="165.3" cy="342.45" r="1.18"/><path class="cls-3" d="M173.89,342.45a1.19,1.19,0,1,1-1.19-1.18A1.19,1.19,0,0,1,173.89,342.45Z"/><circle class="cls-3" cx="180.11" cy="342.45" r="1.18"/><circle class="cls-3" cx="150.48" cy="348.63" r="1.18"/><circle class="cls-3" cx="157.89" cy="348.63" r="1.18"/><circle class="cls-3" cx="165.3" cy="348.63" r="1.18"/><path class="cls-3" d="M173.89,348.62a1.19,1.19,0,1,1-1.19-1.18A1.19,1.19,0,0,1,173.89,348.62Z"/><circle class="cls-3" cx="180.11" cy="348.63" r="1.18"/><circle class="cls-3" cx="150.48" cy="354.8" r="1.18"/><circle class="cls-3" cx="157.89" cy="354.8" r="1.18"/><circle class="cls-3" cx="165.3" cy="354.8" r="1.18"/><path class="cls-3" d="M173.89,354.8a1.19,1.19,0,1,1-1.19-1.19A1.18,1.18,0,0,1,173.89,354.8Z"/><circle class="cls-3" cx="180.11" cy="354.8" r="1.18"/><circle class="cls-3" cx="150.48" cy="360.97" r="1.18"/><circle class="cls-3" cx="157.89" cy="360.97" r="1.18"/><circle class="cls-3" cx="165.3" cy="360.97" r="1.18"/><path class="cls-3" d="M173.89,361a1.19,1.19,0,1,1-1.19-1.19A1.18,1.18,0,0,1,173.89,361Z"/><circle class="cls-3" cx="180.11" cy="360.97" r="1.18"/><circle class="cls-3" cx="150.48" cy="367.14" r="1.18"/><circle class="cls-3" cx="157.89" cy="367.14" r="1.18"/><circle class="cls-3" cx="165.3" cy="367.14" r="1.18"/><path class="cls-3" d="M173.89,367.14A1.19,1.19,0,1,1,172.7,366,1.18,1.18,0,0,1,173.89,367.14Z"/><circle class="cls-3" cx="180.11" cy="367.14" r="1.18"/><circle class="cls-3" cx="150.48" cy="373.31" r="1.18"/><circle class="cls-3" cx="157.89" cy="373.31" r="1.18"/><circle class="cls-3" cx="165.3" cy="373.31" r="1.18"/><path class="cls-3" d="M173.89,373.31a1.19,1.19,0,1,1-1.19-1.18A1.19,1.19,0,0,1,173.89,373.31Z"/><circle class="cls-3" cx="180.11" cy="373.31" r="1.18"/></g></g><path class="cls-117" d="M248.11,292.2c-17.8,30.34-52.17,31.05-69,15.1.49.23,9.57,4.51,17.16,2.95,7.79-1.6,11.07,1.4,19.66,1s8.6-6.27,14.05-7.09,5.19-6.06,11.06-8c3.48-1.19,5.31-5,6.22-7.91a1.89,1.89,0,0,1,.09.21A9.13,9.13,0,0,1,248.11,292.2Z"/><path class="cls-118" d="M121.2,376.73c1.35,4,5.06,7,7.07,9.54-7.57-3.08-17.4-9-17.9-14.31-.82-8.6,7-27.29,7.78-34a125.41,125.41,0,0,0,.68-14.73s5.87-6.14,8.19-13c4,9.28-2.73,13.92-2,23.88s-8.46,20.88-5.32,29.34S119.47,371.55,121.2,376.73Z"/><path class="cls-94" d="M168,254.42a3,3,0,0,0,1.24,2.86c1.55,1,.75,2.25-1.27,2.59"/><path class="cls-119" d="M146.67,256.91c-1.2.54-1.1,3,.65,3.38S148.35,256.14,146.67,256.91Z"/><path class="cls-120" d="M175.66,247.85c-1.75,1.32-4.59,1.66-7,1.58-4.47-.15-9.53,3-13.49,4.41a9.43,9.43,0,0,1-5,.47,3,3,0,0,1,.28-1.62c.61-.51,9.82-4.4,11.4-7.47,1.49,3,2.1,3.12,3.22,2.77s6.91-4.71,7.63-7.17A13.52,13.52,0,0,0,175.66,247.85Z"/><path class="cls-121" d="M164.91,271.9c-.07.43-.12.88-.15,1.33-1,0-2-.1-2.95-.19-3.65-.36-3.45,2.19-8.66,1.31a22.42,22.42,0,0,0-3.85-.39,1.36,1.36,0,0,1-.18-1c.59-1.4.72-7.07.74-9.42a8.76,8.76,0,0,0,.93-.21C152.66,269,158.75,272,164.91,271.9Z"/></g><path class="cls-3" d="M167,161.78l-3.86,23.44-5.54.86-7.24-14.35-2.74,15.89-5.51.85-10.78-21.18,5.36-.82,7.45,14.9L147,164.88l4.78-.74,7.54,15,2.76-16.61Z"/><path class="cls-3" d="M188.24,179.07l-.41,4.17-17.39-1.69,2.18-22.47,17,1.65-.41,4.17-11.81-1.14-.48,4.88,10.44,1-.4,4-10.43-1-.5,5.2Z"/><path class="cls-3" d="M192,162.78l5-1.67,5.84,17.36,10.73-3.62,1.36,4-15.68,5.29Z"/><path class="cls-3" d="M222.06,178.16a13.56,13.56,0,0,1-6-4.16,14.63,14.63,0,0,1-2.22-14.36,13.46,13.46,0,0,1,4.47-5.78,15.71,15.71,0,0,1,7.21-3,15.94,15.94,0,0,1,6.53.25,13,13,0,0,1,5.3,2.81l-3.43,4.32a8.72,8.72,0,0,0-7.27-2.11,9.09,9.09,0,0,0-4.3,1.79,7.93,7.93,0,0,0-2.59,3.53,9.2,9.2,0,0,0-.4,4.64,9.09,9.09,0,0,0,1.79,4.3,7.83,7.83,0,0,0,3.53,2.58,9.09,9.09,0,0,0,4.64.41,8.65,8.65,0,0,0,6.28-4.24l4.58,3.08a12.72,12.72,0,0,1-4.22,4.32,16.15,16.15,0,0,1-6.17,2.21A15.74,15.74,0,0,1,222.06,178.16Z"/><path class="cls-3" d="M246.14,170.79a9.64,9.64,0,0,1-4.28-2.95,10.26,10.26,0,0,1-1.56-10.11,9.62,9.62,0,0,1,3.19-4.11,11.28,11.28,0,0,1,5.16-2.11,11.15,11.15,0,0,1,5.54.46,9.64,9.64,0,0,1,6.42,7.8A9.62,9.62,0,0,1,260,165a9.78,9.78,0,0,1-3.19,4.11,11.92,11.92,0,0,1-10.7,1.65Zm7.91-4.55a5.72,5.72,0,0,0,1.8-2.5,6.41,6.41,0,0,0,.29-3.28,6.34,6.34,0,0,0-1.27-3.05,5.59,5.59,0,0,0-2.47-1.83,6.45,6.45,0,0,0-6.11.94,5.58,5.58,0,0,0-1.8,2.5,6.4,6.4,0,0,0-.29,3.28,6.31,6.31,0,0,0,1.27,3,5.62,5.62,0,0,0,2.47,1.84,6,6,0,0,0,3.17.3A6.17,6.17,0,0,0,254.05,166.24Z"/><path class="cls-3" d="M283.22,170.65l.87-13.52-7.37,10.7-2.35-.16-5.88-11.28-.87,13.22-4.89-.32,1.49-22.52,4.31.28,7.5,14.56,9.23-13.45,4.28.28L288.12,171Z"/><path class="cls-3" d="M310.41,158.23l.64,4.14L293.78,165l-3.45-22.31,16.86-2.6.64,4.14-11.73,1.81.75,4.85,10.36-1.6.62,4-10.36,1.6.8,5.17Z"/></g></g></svg>